<svg width="36" height="36" viewBox="0 0 36 36" fill="none" xmlns="http://www.w3.org/2000/svg">
<g clip-path="url(#clip0_1_1035)">
<path d="M17.9368 36.012L16.8912 35.1157C15.4497 33.9088 2.86328 23.0387 2.86328 15.0874C2.86328 6.76258 9.61195 0.013916 17.9368 0.013916C26.2617 0.013916 33.0103 6.76258 33.0103 15.0874C33.0103 23.0387 20.4239 33.9088 18.9884 35.1217L17.9368 36.012ZM17.9368 3.27325C11.4151 3.28063 6.13007 8.56567 6.12269 15.0874C6.12269 20.0825 13.8663 28.0621 17.9368 31.7144C22.0073 28.0607 29.7509 20.0765 29.7509 15.0874C29.7435 8.56567 24.4586 3.2807 17.9368 3.27325Z" fill="#127AD4"/>
<path d="M17.9369 21.0625C14.637 21.0625 11.9619 18.3873 11.9619 15.0874C11.9619 11.7875 14.637 9.11243 17.9369 9.11243C21.2368 9.11243 23.9119 11.7875 23.9119 15.0874C23.9119 18.3873 21.2369 21.0625 17.9369 21.0625ZM17.9369 12.0999C16.287 12.0999 14.9494 13.4374 14.9494 15.0874C14.9494 16.7373 16.287 18.0749 17.9369 18.0749C19.5869 18.0749 20.9244 16.7373 20.9244 15.0874C20.9244 13.4374 19.587 12.0999 17.9369 12.0999Z" fill="#127AD4"/>
</g>
<defs>
<clipPath id="clip0_1_1035">
<rect width="36" height="36" fill="white"/>
</clipPath>
</defs>
</svg>
