<svg width="75" height="75" viewBox="0 0 75 75" fill="none" xmlns="http://www.w3.org/2000/svg">
<rect x="1" y="1" width="73" height="73" rx="36.5" fill="#127AD4" stroke="#E3EFFF" stroke-width="2"/>
<path d="M40.4583 30.6869C39.0651 30.6869 37.7032 31.1001 36.5448 31.8741C35.3864 32.6482 34.4835 33.7483 33.9503 35.0355C33.4172 36.3227 33.2777 37.739 33.5495 39.1055C33.8214 40.4719 34.4923 41.7271 35.4775 42.7122C36.4626 43.6973 37.7178 44.3682 39.0843 44.64C40.4507 44.9117 41.8671 44.7722 43.1542 44.239C44.4414 43.7058 45.5415 42.8029 46.3155 41.6444C47.0895 40.486 47.5026 39.1241 47.5025 37.7308C47.5004 35.8633 46.7575 34.0729 45.4369 32.7523C44.1163 31.4318 42.3259 30.689 40.4583 30.6869ZM40.4583 43.796C39.2588 43.796 38.0862 43.4403 37.0888 42.7739C36.0915 42.1075 35.3141 41.1603 34.8551 40.0521C34.396 38.9438 34.2759 37.7244 34.5099 36.5479C34.7439 35.3714 35.3215 34.2908 36.1697 33.4425C37.0179 32.5943 38.0985 32.0167 39.275 31.7826C40.4515 31.5486 41.6709 31.6687 42.7792 32.1277C43.8874 32.5867 44.8346 33.364 45.5011 34.3614C46.1675 35.3587 46.5233 36.5313 46.5233 37.7308C46.5215 39.3388 45.882 40.8805 44.745 42.0175C43.608 43.1546 42.0663 43.7942 40.4583 43.796ZM57.0379 50.7597L51.0703 44.7921C50.8694 44.5916 50.6186 44.4484 50.3437 44.3774C50.0689 44.3063 49.7801 44.31 49.5072 44.3879L47.9667 42.8474C49.1339 41.1369 49.6816 39.079 49.5193 37.0146C49.3569 34.9502 48.4942 33.0032 47.074 31.4961C45.6538 29.9891 43.7614 29.0124 41.7102 28.7279C39.6591 28.4434 37.5723 28.8682 35.7956 29.9318V25.569C36.2684 25.5121 36.704 25.2841 37.0202 24.928C37.3365 24.5719 37.5114 24.1124 37.5121 23.6362V22.1707C37.5114 21.6546 37.306 21.1598 36.9411 20.7949C36.5761 20.4299 36.0812 20.2247 35.5651 20.2241H26.201C25.6849 20.2247 25.1901 20.4299 24.8251 20.7949C24.4601 21.1598 24.2548 21.6546 24.2542 22.1707V23.6362C24.2548 24.1124 24.4297 24.572 24.7459 24.928C25.0622 25.2841 25.4978 25.5121 25.9706 25.569V49.8632C25.9755 51.1629 26.4953 52.4076 27.416 53.3249C28.3367 54.2422 29.5834 54.7572 30.8831 54.7572C32.1828 54.7572 33.4295 54.2422 34.3502 53.3249C35.271 52.4076 35.7907 51.1629 35.7956 49.8632V45.5302C37.2829 46.4215 38.9946 46.8678 40.7278 46.8163C42.461 46.7647 44.1431 46.2175 45.5749 45.2394L47.1155 46.7801C47.0751 46.9222 47.0546 47.0691 47.0544 47.2169C47.0536 47.426 47.0943 47.6332 47.1742 47.8265C47.254 48.0198 47.3714 48.1953 47.5195 48.3429L53.4871 54.3106C53.786 54.6087 54.191 54.7761 54.6132 54.7761C55.0354 54.7761 55.4403 54.6087 55.7393 54.3106L57.0379 53.012C57.3357 52.7129 57.5029 52.308 57.5029 51.8859C57.5029 51.4638 57.3357 51.0589 57.0379 50.7598V50.7597ZM31.3691 37.7308C31.3686 38.4986 31.4656 39.2634 31.6577 40.0068H26.9498V36.7532H28.2748C28.4047 36.7532 28.5292 36.7016 28.621 36.6098C28.7128 36.518 28.7644 36.3934 28.7644 36.2636C28.7644 36.1337 28.7128 36.0092 28.621 35.9174C28.5292 35.8256 28.4047 35.774 28.2748 35.774H26.9498V33.3174H30.0119C30.1417 33.3174 30.2662 33.2659 30.3581 33.174C30.4499 33.0822 30.5015 32.9577 30.5015 32.8278C30.5015 32.698 30.4499 32.5735 30.3581 32.4816C30.2662 32.3898 30.1417 32.3382 30.0119 32.3382H26.9498V29.8814H28.2748C28.4047 29.8814 28.5292 29.8298 28.621 29.738C28.7128 29.6462 28.7644 29.5217 28.7644 29.3918C28.7644 29.262 28.7128 29.1374 28.621 29.0456C28.5292 28.9538 28.4047 28.9022 28.2748 28.9022H26.9498V25.5831H34.8164V30.6101C33.7416 31.4599 32.8732 32.5419 32.2762 33.7751C31.6792 35.0084 31.3691 36.3607 31.3691 37.7308ZM25.2334 23.6362V22.1707C25.2337 21.9142 25.3358 21.6683 25.5172 21.4869C25.6986 21.3056 25.9445 21.2036 26.201 21.2033H35.5651C35.8217 21.2036 36.0677 21.3056 36.2491 21.487C36.4305 21.6684 36.5326 21.9144 36.5329 22.171V23.6362C36.5326 23.8928 36.4305 24.1387 36.2491 24.3202C36.0677 24.5016 35.8217 24.6036 35.5651 24.6039H26.201C25.9445 24.6036 25.6985 24.5016 25.5171 24.3202C25.3357 24.1387 25.2336 23.8928 25.2334 23.6362ZM34.8164 49.8632C34.812 50.9035 34.3957 51.8997 33.6585 52.6338C32.9213 53.3678 31.9234 53.7799 30.8831 53.7799C29.8428 53.7799 28.8449 53.3678 28.1077 52.6338C27.3705 51.8997 26.9542 50.9035 26.9498 49.8632V40.9862H31.9723C32.5587 42.5053 33.5406 43.84 34.8164 44.8519V49.8632ZM32.3483 37.7308C32.3483 36.1268 32.824 34.5589 33.7152 33.2252C34.6064 31.8915 35.873 30.8521 37.3549 30.2383C38.8368 29.6245 40.4675 29.4639 42.0407 29.7769C43.6138 30.0898 45.0589 30.8622 46.1931 31.9965C47.3273 33.1307 48.0996 34.5757 48.4125 36.1489C48.7255 37.7221 48.5648 39.3528 47.951 40.8347C47.3372 42.3166 46.2977 43.5832 44.964 44.4743C43.6303 45.3654 42.0623 45.8411 40.4583 45.8411C38.3081 45.8386 36.2467 44.9834 34.7263 43.4629C33.2059 41.9425 32.3507 39.881 32.3483 37.7308ZM47.366 43.6314L48.6723 44.9377L47.6651 45.9449L46.3588 44.6385C46.7202 44.3295 47.0569 43.9929 47.366 43.6316V43.6314ZM56.3454 52.3195L55.0469 53.6181C54.9318 53.7329 54.7758 53.7974 54.6133 53.7974C54.4507 53.7974 54.2947 53.7329 54.1796 53.6181L48.2121 47.6505C48.0978 47.5351 48.0337 47.3792 48.0337 47.2169C48.0337 47.0545 48.0978 46.8986 48.2121 46.7832L49.5108 45.4846C49.6259 45.3697 49.7818 45.3052 49.9444 45.3052C50.107 45.3052 50.263 45.3697 50.3781 45.4846L56.3456 51.4522C56.4599 51.5676 56.5239 51.7234 56.5239 51.8858C56.5239 52.0482 56.4599 52.2041 56.3456 52.3195L56.3454 52.3195ZM40.8757 34.412C40.8319 34.3407 40.7705 34.2817 40.6975 34.2408C40.6244 34.2 40.5421 34.1785 40.4584 34.1785C40.3746 34.1785 40.2923 34.2 40.2193 34.2408C40.1462 34.2817 40.0848 34.3407 40.0411 34.412L38.6352 36.7037C37.9428 37.832 37.7734 39.6273 38.7064 40.5604C39.1717 41.0238 39.8017 41.284 40.4585 41.284C41.1152 41.284 41.7452 41.0238 42.2105 40.5604C43.1435 39.6274 42.974 37.832 42.2817 36.7037L40.8757 34.412ZM41.518 39.868C41.2362 40.1476 40.8553 40.3045 40.4583 40.3045C40.0614 40.3045 39.6805 40.1476 39.3987 39.868C38.8304 39.2997 38.9801 38.0141 39.4699 37.2157L40.4584 35.6046L41.4468 37.216C41.9366 38.0141 42.0863 39.2997 41.518 39.868Z" fill="white"/>
</svg>
