<svg width="75" height="75" viewBox="0 0 75 75" fill="none" xmlns="http://www.w3.org/2000/svg">
<rect x="1" y="1" width="73" height="73" rx="36.5" fill="#127AD4" stroke="#E3EFFF" stroke-width="2"/>
<path d="M37.5 21.25C37.0643 21.25 36.6383 21.118 36.276 20.8708C35.9137 20.6236 35.6313 20.2722 35.4646 19.861C35.2978 19.4499 35.2542 18.9975 35.3392 18.561C35.4242 18.1246 35.634 17.7237 35.9422 17.409C36.2503 17.0943 36.6428 16.8801 37.0702 16.7932C37.4976 16.7064 37.9405 16.751 38.3431 16.9213C38.7457 17.0916 39.0897 17.38 39.3318 17.75C39.5739 18.12 39.7031 18.555 39.7031 19C39.7031 19.1989 39.6258 19.3897 39.488 19.5303C39.3503 19.671 39.1635 19.75 38.9688 19.75C38.774 19.75 38.5872 19.671 38.4495 19.5303C38.3117 19.3897 38.2344 19.1989 38.2344 19C38.2344 18.8517 38.1913 18.7067 38.1106 18.5833C38.0299 18.46 37.9152 18.3639 37.781 18.3071C37.6468 18.2503 37.4992 18.2355 37.3567 18.2644C37.2143 18.2934 37.0834 18.3648 36.9807 18.4697C36.878 18.5746 36.8081 18.7082 36.7797 18.8537C36.7514 18.9992 36.7659 19.15 36.8215 19.287C36.8771 19.4241 36.9712 19.5412 37.092 19.6236C37.2128 19.706 37.3548 19.75 37.5 19.75C37.6948 19.75 37.8816 19.829 38.0193 19.9697C38.157 20.1103 38.2344 20.3011 38.2344 20.5C38.2344 20.6989 38.157 20.8897 38.0193 21.0303C37.8816 21.171 37.6948 21.25 37.5 21.25Z" fill="white"/>
<path d="M37.5 24.25C36.9159 24.2493 36.3559 24.0121 35.9429 23.5903C35.5298 23.1685 35.2975 22.5965 35.2969 22C35.2969 21.8011 35.3742 21.6103 35.512 21.4697C35.6497 21.329 35.8365 21.25 36.0312 21.25C36.226 21.25 36.4128 21.329 36.5505 21.4697C36.6883 21.6103 36.7656 21.8011 36.7656 22C36.7656 22.1483 36.8087 22.2933 36.8894 22.4167C36.9701 22.54 37.0848 22.6361 37.219 22.6929C37.3532 22.7497 37.5008 22.7645 37.6433 22.7356C37.7857 22.7067 37.9166 22.6352 38.0193 22.5303C38.122 22.4254 38.1919 22.2918 38.2203 22.1463C38.2486 22.0008 38.2341 21.85 38.1785 21.713C38.1229 21.5759 38.0288 21.4588 37.908 21.3764C37.7872 21.294 37.6452 21.25 37.5 21.25C37.3052 21.25 37.1184 21.171 36.9807 21.0303C36.843 20.8897 36.7656 20.6989 36.7656 20.5C36.7656 20.3011 36.843 20.1103 36.9807 19.9697C37.1184 19.829 37.3052 19.75 37.5 19.75C38.0843 19.75 38.6447 19.9871 39.0578 20.409C39.471 20.831 39.7031 21.4033 39.7031 22C39.7031 22.5967 39.471 23.169 39.0578 23.591C38.6447 24.0129 38.0843 24.25 37.5 24.25Z" fill="white"/>
<path d="M37.5 18.25C37.3052 18.25 37.1184 18.171 36.9807 18.0303C36.843 17.8897 36.7656 17.6989 36.7656 17.5V16.75C36.7656 16.5511 36.843 16.3603 36.9807 16.2197C37.1184 16.079 37.3052 16 37.5 16C37.6948 16 37.8816 16.079 38.0193 16.2197C38.157 16.3603 38.2344 16.5511 38.2344 16.75V17.5C38.2344 17.6989 38.157 17.8897 38.0193 18.0303C37.8816 18.171 37.6948 18.25 37.5 18.25Z" fill="white"/>
<path d="M37.5 25C37.3052 25 37.1184 24.921 36.9807 24.7803C36.843 24.6397 36.7656 24.4489 36.7656 24.25V23.5C36.7656 23.3011 36.843 23.1103 36.9807 22.9697C37.1184 22.829 37.3052 22.75 37.5 22.75C37.6948 22.75 37.8816 22.829 38.0193 22.9697C38.157 23.1103 38.2344 23.3011 38.2344 23.5V24.25C38.2344 24.4489 38.157 24.6397 38.0193 24.7803C37.8816 24.921 37.6948 25 37.5 25Z" fill="white"/>
<path d="M37.5 28C36.0475 28 34.6277 27.5601 33.42 26.736C32.2124 25.9119 31.2711 24.7406 30.7153 23.3701C30.1594 21.9997 30.014 20.4917 30.2974 19.0368C30.5807 17.582 31.2801 16.2456 32.3072 15.1967C33.3342 14.1478 34.6428 13.4335 36.0673 13.1441C37.4919 12.8547 38.9684 13.0032 40.3103 13.5709C41.6522 14.1386 42.7992 15.0999 43.6061 16.3332C44.4131 17.5666 44.8438 19.0166 44.8438 20.5C44.8415 22.4884 44.0671 24.3948 42.6904 25.8008C41.3136 27.2068 39.447 27.9977 37.5 28ZM37.5 14.5C36.338 14.5 35.2022 14.8519 34.236 15.5112C33.2699 16.1705 32.5169 17.1075 32.0722 18.2039C31.6275 19.3003 31.5112 20.5067 31.7379 21.6705C31.9646 22.8344 32.5241 23.9035 33.3458 24.7426C34.1674 25.5818 35.2142 26.1532 36.3538 26.3847C37.4935 26.6162 38.6748 26.4974 39.7483 26.0433C40.8218 25.5892 41.7393 24.8201 42.3849 23.8334C43.0304 22.8467 43.375 21.6867 43.375 20.5C43.3732 18.9093 42.7537 17.3842 41.6523 16.2594C40.5509 15.1346 39.0576 14.5018 37.5 14.5Z" fill="white"/>
<path d="M47.0469 28H27.9531C27.7584 28 27.5716 27.921 27.4338 27.7803C27.2961 27.6397 27.2188 27.4489 27.2188 27.25C27.2188 27.0511 27.2961 26.8603 27.4338 26.7197C27.5716 26.579 27.7584 26.5 27.9531 26.5H47.0469C47.2416 26.5 47.4284 26.579 47.5662 26.7197C47.7039 26.8603 47.7812 27.0511 47.7812 27.25C47.7812 27.4489 47.7039 27.6397 47.5662 27.7803C47.4284 27.921 47.2416 28 47.0469 28Z" fill="white"/>
<path d="M19.14 32.5C19.0148 32.4999 18.8918 32.4671 18.7826 32.4048C18.6733 32.3425 18.5815 32.2527 18.5157 32.144C18.45 32.0352 18.4126 31.9112 18.407 31.7835C18.4014 31.6558 18.4278 31.5288 18.4838 31.4145L22.8901 22.4145C22.9511 22.2899 23.0448 22.1852 23.1609 22.112C23.2769 22.0388 23.4106 22 23.547 22H31.2726C31.4674 22 31.6541 22.079 31.7919 22.2197C31.9296 22.3603 32.007 22.5511 32.007 22.75C32.007 22.9489 31.9296 23.1397 31.7919 23.2803C31.6541 23.421 31.4674 23.5 31.2726 23.5H24.001L19.7976 32.0855C19.7365 32.2102 19.6427 32.315 19.5265 32.3882C19.4103 32.4614 19.2765 32.5002 19.14 32.5Z" fill="white"/>
<path d="M55.8588 32.5C55.7223 32.5002 55.5884 32.4616 55.4722 32.3883C55.356 32.3151 55.2622 32.2102 55.2012 32.0855L50.9978 23.5H43.7266C43.5318 23.5 43.345 23.421 43.2073 23.2803C43.0696 23.1397 42.9922 22.9489 42.9922 22.75C42.9922 22.5511 43.0696 22.3603 43.2073 22.2197C43.345 22.079 43.5318 22 43.7266 22H51.4518C51.5882 22 51.7219 22.0388 51.8379 22.112C51.9539 22.1852 52.0477 22.2899 52.1087 22.4145L56.515 31.4145C56.5709 31.5288 56.5974 31.6558 56.5918 31.7835C56.5862 31.9112 56.5488 32.0352 56.483 32.144C56.4173 32.2527 56.3255 32.3425 56.2162 32.4048C56.107 32.4671 55.9839 32.4999 55.8588 32.5Z" fill="white"/>
<path d="M55.8594 55H19.1406C18.9459 55 18.7591 54.921 18.6213 54.7803C18.4836 54.6397 18.4062 54.4489 18.4062 54.25V31.75C18.4062 31.5511 18.4836 31.3603 18.6213 31.2197C18.7591 31.079 18.9459 31 19.1406 31C19.3354 31 19.5222 31.079 19.6599 31.2197C19.7976 31.3603 19.875 31.5511 19.875 31.75V53.5H55.125V31.75C55.125 31.5511 55.2024 31.3603 55.3401 31.2197C55.4778 31.079 55.6646 31 55.8594 31C56.0541 31 56.2409 31.079 56.3787 31.2197C56.5164 31.3603 56.5938 31.5511 56.5938 31.75V54.25C56.5938 54.4489 56.5164 54.6397 56.3787 54.7803C56.2409 54.921 56.0541 55 55.8594 55Z" fill="white"/>
<path d="M55.8594 32.5H19.1406C18.9459 32.5 18.7591 32.421 18.6213 32.2803C18.4836 32.1397 18.4062 31.9489 18.4062 31.75C18.4062 31.5511 18.4836 31.3603 18.6213 31.2197C18.7591 31.079 18.9459 31 19.1406 31H55.8594C56.0541 31 56.2409 31.079 56.3787 31.2197C56.5164 31.3603 56.5938 31.5511 56.5938 31.75C56.5938 31.9489 56.5164 32.1397 56.3787 32.2803C56.2409 32.421 56.0541 32.5 55.8594 32.5Z" fill="white"/>
<path fill-rule="evenodd" clip-rule="evenodd" d="M37.5449 37.8203C37.8745 37.8203 38.1416 38.0931 38.1416 38.4297V41.6172H41.2627C41.5922 41.6172 41.8594 41.89 41.8594 42.2266C41.8594 42.5631 41.5922 42.8359 41.2627 42.8359H38.1416V46.0234C38.1416 46.36 37.8745 46.6328 37.5449 46.6328C37.2154 46.6328 36.9482 46.36 36.9482 46.0234V42.8359H33.8271C33.4976 42.8359 33.2305 42.5631 33.2305 42.2266C33.2305 41.89 33.4976 41.6172 33.8271 41.6172H36.9482V38.4297C36.9482 38.0931 37.2154 37.8203 37.5449 37.8203Z" fill="white"/>
</svg>
