<svg width="75" height="75" viewBox="0 0 75 75" fill="none" xmlns="http://www.w3.org/2000/svg">
<rect x="1" y="1" width="73" height="73" rx="36.5" fill="#127AD4" stroke="#E3EFFF" stroke-width="2"/>
<path d="M30.0934 51.6754C25.6623 48.4205 28.7856 40.7168 31.8709 36.3685C34.9561 32.0202 41.0251 27.031 45.3292 30.198C49.6334 33.3649 46.8782 40.8047 43.8056 45.153C40.7204 49.5013 34.5245 54.9429 30.0934 51.688M30.8806 49.7275C34.169 52.5803 39.3872 48.697 42.0916 45.4797C44.796 42.2625 47.4368 36.5821 44.2373 33.8048C41.0505 31.0274 35.9465 34.5714 33.2421 37.7886C30.5377 41.0058 27.5921 46.8747 30.8806 49.7275Z" fill="white"/>
<path d="M28.1753 54.5035C20.7478 50.6327 23.8584 38.543 27.6166 31.43C31.3748 24.3294 39.5514 15.6078 46.7757 19.3779C54 23.1481 51.3972 34.7729 47.6391 41.8734C43.8809 48.9739 35.6027 58.3742 28.1753 54.5035ZM28.9497 51.437C34.5489 54.9684 41.6717 48.0816 45.0998 42.7405C48.5278 37.3868 51.3211 28.4012 45.8869 24.9704C40.4401 21.5395 33.4316 27.886 30.0163 33.2396C26.5882 38.5933 23.3506 47.9182 28.9624 51.4496" fill="white"/>
<path d="M28.8974 51.3366C23.9965 47.8178 27.45 39.5108 30.8653 34.8232C34.2807 30.1356 41.0099 24.7443 45.7711 28.15C50.545 31.5683 47.4978 39.5988 44.0824 44.2864C40.6671 48.9739 33.7982 54.8429 28.8974 51.3366ZM29.7734 49.2253C33.4046 52.3043 39.1943 48.1194 42.1907 44.6508C45.187 41.1697 48.1072 35.0494 44.5776 32.0458C41.048 29.0548 35.398 32.8627 32.4016 36.3438C29.4052 39.8124 26.1422 46.1463 29.7734 49.2253Z" fill="white"/>
</svg>
