<svg width="31" height="29" viewBox="0 0 31 29" fill="none" xmlns="http://www.w3.org/2000/svg">
<path d="M29.2757 7.83048C29.1538 8.23142 29.3683 8.64605 29.5215 9.08871C30.3749 11.5471 29.8898 13.7279 28.0839 15.6002C27.8577 15.8349 27.7814 16.0292 27.84 16.3636C28.1706 18.2523 27.6979 19.9427 26.4494 21.3933C26.1867 21.6984 26.0921 21.9663 26.1091 22.3699C26.1919 24.3485 24.6598 26.1967 22.6954 26.5481C21.7194 26.7228 20.791 26.5852 19.92 26.1113C19.7472 26.0174 19.624 26.0155 19.448 26.1146C17.2632 27.3447 15.1013 27.2913 12.9753 25.9653C12.8005 25.8564 12.6878 25.9046 12.5352 25.9907C11.2111 26.7345 9.91039 26.6687 8.67231 25.8049C7.56201 25.031 7.03392 23.5759 7.36186 22.2603C7.43097 21.9826 7.36838 21.8385 7.14541 21.6658C5.49594 20.3919 4.67773 18.7093 4.71945 16.6179C4.72858 16.1628 4.78595 16.1498 4.2696 16.0892C2.29675 15.8558 1.02999 14.4078 1.06976 12.4742C1.10366 10.8313 2.44345 9.36318 4.08118 9.17542C4.72402 9.10175 4.71358 9.09914 4.86354 8.46155C5.16735 7.16486 5.80041 6.05984 6.83833 5.21102C7.10564 4.99263 7.21452 4.7651 7.20474 4.40915C7.14345 2.25647 8.4689 0.539283 10.5174 0.0992291C11.6055 -0.134814 12.6336 0.0457707 13.5803 0.634465C13.7655 0.749857 13.9206 0.765503 14.1247 0.687271C15.8693 0.024257 17.571 0.127914 19.2185 1.00802C19.4193 1.11559 19.6038 1.15405 19.8365 1.10581C22.2384 0.610995 24.2549 1.73036 25.1181 4.03038C25.1846 4.20705 25.2615 4.28984 25.4708 4.26963C27.5591 4.0721 29.2822 5.64977 29.2763 7.82983L29.2757 7.83048ZM21.4339 6.83042C21.4352 2.88363 18.2275 0.444753 14.9325 1.37376C14.7473 1.42591 14.5582 1.43373 14.7617 1.71732C16.3049 3.8687 15.6333 6.70721 13.2882 7.95174C13.0255 8.09126 13.03 8.21056 13.18 8.42309C13.9108 9.45836 14.9057 10.0145 16.1692 10.0907C16.4013 10.1051 16.6289 10.1357 16.6158 10.4369C16.6028 10.7309 16.3661 10.7251 16.1562 10.7153C14.611 10.6442 13.4153 9.94861 12.5893 8.65061C12.4204 8.38528 12.2738 8.29727 11.9706 8.35855C11.7274 8.4081 11.674 8.4759 11.7965 8.6956C12.101 9.24126 12.4667 9.73412 12.9472 10.1383C14.583 11.5126 16.4261 11.8255 18.3638 10.9839C20.3581 10.1181 21.3706 8.50458 21.4339 6.83042ZM11.1993 15.4346C11.2234 16.7952 11.732 18.0215 12.753 19.0398C14.6665 20.9486 17.8924 20.9839 19.8255 19.1069C20.1054 18.8349 20.1108 18.5595 19.8418 18.2809C18.2699 16.6537 18.2751 13.9743 19.8541 12.4572C20.3249 12.0048 20.2949 12.1202 19.8528 11.6502C19.7016 11.4891 19.5705 11.405 19.3228 11.538C17.3239 12.6111 15.3158 12.6183 13.3189 11.525C13.1467 11.4304 13.032 11.437 12.8892 11.5713C11.7972 12.5994 11.2234 13.8543 11.1993 15.434V15.4346ZM12.202 19.8136C11.8148 19.4088 11.4608 18.985 11.1745 18.5085C10.5252 17.4256 10.2357 16.26 10.3094 14.9939C10.3726 13.9117 10.7266 12.9384 11.3004 12.0328C11.3897 11.892 11.4829 11.7701 11.1993 11.7408C10.136 11.6299 9.1515 11.8627 8.22897 12.3881C8.11227 12.4546 8.02947 12.5316 8.02165 12.6893C7.94928 14.1464 7.24907 15.1888 5.93015 15.8101C5.74955 15.8949 5.67719 16.0168 5.66154 16.2124C5.62764 16.6355 5.60547 17.0547 5.6635 17.4784C5.85778 18.8931 6.51757 20.0346 7.64351 20.9121C7.78238 21.0204 7.88408 21.0223 8.00079 20.8815C8.15987 20.6898 8.31373 20.4936 8.51323 20.3371C9.64113 19.4512 10.8707 19.3182 12.202 19.8143V19.8136ZM11.4079 7.49278C13.2224 7.48496 14.7043 5.99204 14.6899 4.18619C14.6762 2.37708 13.1872 0.918055 11.3617 0.923922C9.55572 0.92979 8.07902 2.40576 8.08359 4.20053C8.0888 6.04028 9.56354 7.50061 11.4079 7.49278ZM22.8506 18.6493C24.6832 18.6571 26.1671 17.1987 26.1684 15.389C26.1697 13.576 24.6911 12.0843 22.8858 12.0778C21.0655 12.0713 19.5575 13.5727 19.5627 15.387C19.5679 17.1844 21.0368 18.6421 22.8506 18.6499V18.6493ZM16.267 26.0761C18.1734 26.0337 19.6638 25.2416 20.7037 23.6222C20.8236 23.4358 20.7891 23.3601 20.5843 23.3132C19.3528 23.0322 18.3057 22.4298 17.451 21.4976C17.348 21.3848 17.2378 21.3307 17.0787 21.3528C16.4281 21.4448 15.78 21.4226 15.1365 21.285C14.9657 21.2485 14.8177 21.2798 14.6847 21.4011C14.5648 21.5106 14.4383 21.6156 14.304 21.7062C14.1188 21.8307 14.0608 21.9689 14.1234 22.2004C14.2616 22.7102 14.2622 23.2343 14.1423 23.748C14.0895 23.973 14.1625 24.0838 14.3457 24.1907C14.9292 24.531 15.5531 24.7233 16.2279 24.7553C16.5695 24.7716 16.7319 24.9913 16.5813 25.2286C16.4939 25.3668 16.3511 25.3792 16.2071 25.3766C15.4762 25.3629 14.7923 25.1823 14.1586 24.8133C14.0536 24.752 13.9526 24.6295 13.8065 24.7103C13.5021 24.8804 13.4975 25.2416 13.8059 25.4118C14.5693 25.8329 15.3817 26.0807 16.2664 26.0748L16.267 26.0761ZM4.51995 15.183C5.93145 15.196 7.10825 14.0669 7.1265 12.6835C7.14541 11.2531 5.99078 10.0633 4.57472 10.0549C3.14952 10.0464 1.99881 11.1671 1.96686 12.5935C1.93557 13.9867 3.10258 15.1699 4.51995 15.183ZM8.19116 22.984C8.18529 24.4254 9.32493 25.5832 10.7553 25.5904C12.1251 25.5969 13.3136 24.4156 13.3241 23.0368C13.3345 21.6182 12.1603 20.431 10.7436 20.4291C9.35883 20.4265 8.19638 21.5901 8.19051 22.9846L8.19116 22.984ZM23.2502 7.72618C23.2483 9.15716 24.3762 10.2896 25.8072 10.2915C27.2252 10.2935 28.3831 9.14282 28.3844 7.72943C28.3857 6.32322 27.2233 5.16474 25.8092 5.16213C24.3788 5.15952 23.2528 6.28801 23.2502 7.72552V7.72618ZM26.9397 16.496C26.851 16.7215 26.7897 16.8819 26.7245 17.0403C26.4168 17.7848 25.9207 18.3853 25.2576 18.8286C24.015 19.6591 22.6817 19.8052 21.2846 19.2588C21.1085 19.1897 20.9788 19.1839 20.8588 19.3449C20.5759 19.7237 20.2075 20.0131 19.8255 20.2811C19.6077 20.4336 19.6703 20.5066 19.8489 20.6207C20.4403 20.9975 21.087 21.1938 21.7833 21.2316C22.0095 21.244 22.2214 21.287 22.2071 21.5628C22.1927 21.8366 21.9704 21.8646 21.7494 21.8574C20.8556 21.8281 20.04 21.5602 19.3274 21.0184C19.1018 20.8469 18.916 20.7974 18.6532 20.9382C18.3207 21.1162 18.3077 21.1103 18.59 21.3444C21.2709 23.5675 25.2478 22.6195 26.632 19.4199C27.0277 18.5052 27.1216 17.5488 26.939 16.496H26.9397ZM12.054 10.9363C12.1414 10.9382 12.2438 10.9493 12.2783 10.8502C12.3083 10.7648 12.2164 10.7198 12.1649 10.669C11.554 10.0686 11.0591 9.3886 10.7475 8.58607C10.6751 8.39962 10.5382 8.33052 10.3596 8.28358C9.12608 7.95696 8.21593 7.21897 7.62852 6.09113C7.51377 5.87078 7.42836 5.89099 7.27254 6.03572C6.40673 6.8402 5.88321 7.82592 5.68045 8.98831C5.64068 9.21779 5.71565 9.33775 5.93602 9.43489C6.76271 9.79997 7.37881 10.3958 7.73153 11.2316C7.83454 11.4761 7.92125 11.5093 8.15204 11.3946C9.01263 10.9656 9.9319 10.7876 10.8922 10.8039C11.2847 10.8105 11.6687 10.875 12.054 10.9363ZM29.0305 11.1651C28.994 10.7811 28.9582 10.3261 28.8297 9.88602C28.8095 9.81757 28.8004 9.71457 28.7085 9.71783C28.6622 9.71913 28.612 9.7941 28.5742 9.84365C28.1373 10.4115 27.5682 10.7831 26.8999 11.0341C26.6124 11.1423 26.1925 11.0243 26.0491 11.3222C25.9168 11.5973 25.9683 11.9598 25.9285 12.2825C25.9141 12.3992 25.9285 12.499 26.0087 12.5837C26.5648 13.1698 26.8034 13.9482 27.2357 14.6099C27.4547 14.9457 27.4443 14.9678 27.7227 14.6569C28.5931 13.6835 28.9992 12.5296 29.0305 11.1651ZM21.9176 25.6914C23.5658 25.6888 24.9388 24.5102 25.1761 22.8914C25.1911 22.7891 25.2407 22.6645 25.1455 22.5856C25.0783 22.5302 25.0034 22.6104 24.9414 22.6476C24.0626 23.1685 23.1035 23.4182 22.091 23.471C21.8902 23.4814 21.7781 23.5609 21.6868 23.7337C21.4026 24.2748 21.0551 24.7742 20.6182 25.2032C20.4657 25.3531 20.5218 25.4033 20.6763 25.4704C21.0733 25.6426 21.4893 25.698 21.917 25.6921L21.9176 25.6914ZM20.5354 1.94354C21.2774 2.73368 21.7064 3.41691 22.0297 4.32179C22.1614 4.69078 22.2592 5.06955 22.2997 5.45941C22.3244 5.69932 22.4959 5.7756 22.6817 5.85187C22.8956 5.93988 22.9438 5.75017 23.0273 5.64195C23.2274 5.38183 23.4686 5.16734 23.7092 4.94699C23.9002 4.77293 24.2797 4.76445 24.2829 4.44696C24.2855 4.17054 24.1056 3.91759 23.9713 3.66855C23.9609 3.64965 23.9504 3.63074 23.9394 3.61184C23.262 2.43966 21.7703 1.70037 20.5348 1.94354H20.5354ZM22.3655 6.81608C22.3479 6.89822 22.3238 6.97971 22.3127 7.06316C22.1491 8.32921 21.6294 9.42772 20.7806 10.3789C20.3646 10.8457 20.3822 10.8457 20.7812 11.3072C20.9586 11.5119 21.1183 11.5445 21.3745 11.4494C22.507 11.0302 23.6271 11.0667 24.7217 11.6006C24.8221 11.6495 24.9342 11.791 25.0379 11.6958C25.1514 11.5915 25.1351 11.4096 25.1083 11.2623C25.0738 11.0699 24.8795 11.0882 24.7445 11.0406C23.4236 10.5699 22.6335 9.65133 22.3733 8.26989C22.2814 7.78159 22.3473 7.30372 22.3655 6.81608Z" fill="white"/>
<path d="M16.1942 19.8132C13.9671 19.7487 12.1012 17.9859 11.9069 15.7589C11.8945 15.6193 11.8919 15.4746 11.9141 15.3377C11.9408 15.1747 12.0399 15.0541 12.2244 15.0659C12.4011 15.0769 12.4924 15.1891 12.5139 15.3625C12.5465 15.6311 12.5589 15.9049 12.6195 16.1676C13.0159 17.8965 14.3759 19.0452 16.1466 19.16C16.3311 19.1717 16.5287 19.1704 16.6062 19.3901C16.693 19.6352 16.5078 19.823 16.1942 19.8139V19.8132Z" fill="white"/>
<path d="M11.3443 7.12473C9.82459 7.09931 8.45286 5.72308 8.43721 4.20799C8.43526 3.9922 8.44178 3.77055 8.73516 3.76598C9.01616 3.76207 9.0468 3.96547 9.06505 4.18974C9.16937 5.46752 10.0939 6.38675 11.3821 6.49953C11.6031 6.51909 11.8124 6.54973 11.7968 6.83658C11.7811 7.12669 11.5588 7.12864 11.3443 7.12538V7.12473Z" fill="white"/>
<path d="M22.7757 18.2772C21.3055 18.2459 19.9416 16.8573 19.9149 15.3676C19.911 15.1447 19.9351 14.9341 20.2168 14.9211C20.4789 14.9087 20.5193 15.0997 20.5467 15.3129C20.711 16.5946 21.4372 17.416 22.5808 17.6233C22.6975 17.6448 22.8181 17.6468 22.9368 17.6579C23.1421 17.6768 23.3084 17.7563 23.2992 17.9897C23.2895 18.2296 23.1102 18.2805 22.9061 18.2779C22.8624 18.2772 22.8194 18.2779 22.7757 18.2779V18.2772Z" fill="white"/>
<path d="M4.30122 14.6915C3.27437 14.6745 2.35836 13.7781 2.31794 12.7605C2.30947 12.5479 2.34793 12.3511 2.59959 12.3256C2.83039 12.3022 2.90601 12.4638 2.94644 12.6685C3.12964 13.5962 3.44649 13.9007 4.38597 14.0715C4.5783 14.1067 4.71847 14.196 4.68979 14.4151C4.6598 14.6432 4.50528 14.7169 4.30056 14.6915H4.30122Z" fill="white"/>
<path d="M10.4712 25.092C9.44301 25.0274 8.58307 24.1799 8.51787 23.1642C8.50418 22.9523 8.54786 22.7593 8.79496 22.7228C9.05705 22.6844 9.11833 22.8741 9.15745 23.0814C9.325 23.9739 9.66924 24.3136 10.5474 24.4439C10.7769 24.4778 10.9178 24.588 10.8852 24.8279C10.8532 25.0607 10.672 25.1017 10.4712 25.092Z" fill="white"/>
<path d="M25.5132 9.7953C24.5254 9.77639 23.5762 8.81349 23.5742 7.82907C23.5742 7.62437 23.6316 7.45095 23.8624 7.43009C24.0912 7.40923 24.1779 7.56374 24.2177 7.76779C24.4048 8.71961 24.7047 9.01494 25.6416 9.17727C25.8346 9.21052 25.9826 9.2907 25.95 9.51236C25.9141 9.75814 25.727 9.80638 25.5125 9.7953H25.5132Z" fill="white"/>
</svg>
