<svg width="30" height="35" viewBox="0 0 30 35" fill="none" xmlns="http://www.w3.org/2000/svg">
<path d="M28.4105 23.8435C28.0226 22.6335 26.7708 21.974 25.4408 22.2679L25.4407 22.2679L19.545 23.5735C19.5237 22.7442 19.0871 21.9434 18.3199 21.496L16.1959 20.254L16.1958 20.2539C14.3985 19.2047 12.4268 18.3022 10.2799 18.8775L5.6074 20.1295C5.23338 19.3873 4.37801 18.9813 3.54495 19.2045L1.67036 19.7068C0.715523 19.9627 0.146969 20.9477 0.402864 21.9027L2.33799 29.1247C2.59362 30.0787 3.57831 30.6465 4.53309 30.3907L6.40769 29.8884C7.24057 29.6652 7.77853 28.8868 7.73177 28.0581L8.6334 27.8165C9.6109 27.5546 10.4907 27.8593 12.5958 29.2308L12.5958 29.2308L12.5994 29.2332C13.4452 29.7836 14.2411 30.3016 15.1167 30.56C15.9965 30.8196 16.9546 30.8168 18.1246 30.3319C18.1247 30.3318 18.1248 30.3318 18.125 30.3317L26.8974 26.8611C28.1522 26.3643 28.8049 25.0672 28.4105 23.8435ZM28.4105 23.8435C28.4105 23.8435 28.4105 23.8435 28.4105 23.8435L28.3629 23.8588L28.4104 23.8434C28.4104 23.8434 28.4105 23.8435 28.4105 23.8435ZM17.5997 22.7293L17.5996 22.7293L15.4753 21.487L15.4752 21.487M17.5997 22.7293L10.6364 20.2086C12.1997 19.7897 13.7117 20.3995 15.5005 21.4438L15.4752 21.487M17.5997 22.7293C18.0969 23.0192 18.2665 23.6595 17.9779 24.1564C17.6901 24.6518 17.0499 24.8209 16.5512 24.5329M17.5997 22.7293L16.5512 24.5329M15.4752 21.487C13.6871 20.4431 12.1913 19.8438 10.6494 20.2569L6.01358 21.4991M15.4752 21.487L6.01358 21.4991M6.01358 21.4991L7.39878 26.6687L8.26363 26.437C9.87151 26.0062 11.2021 26.6185 13.3749 28.034C14.2467 28.6013 14.9027 29.0088 15.5395 29.1933C16.1721 29.3767 16.7887 29.3405 17.5824 29.0106L17.5828 29.0105L17.5934 29.0062L17.5938 29.006L26.3718 25.5331C26.9245 25.3144 27.2104 24.7732 27.0509 24.2808L27.0509 24.2807C26.8746 23.7309 26.2698 23.5472 25.7492 23.6623L19.0245 25.1514C18.2789 26.1077 16.9171 26.3934 15.8363 25.7692L15.8363 25.7692L12.5603 23.8727L12.5854 23.8294L12.5603 23.8727C12.2191 23.6751 12.1026 23.2383 12.3001 22.8969L12.3434 22.922L12.3001 22.8969C12.4977 22.5557 12.9345 22.4392 13.2759 22.6367L16.5511 24.5329L16.5512 24.5329M6.01358 21.4991L17.6249 22.6861C18.1459 22.9899 18.3236 23.6607 18.0212 24.1815C17.7194 24.701 17.0485 24.8779 16.5261 24.5762L16.5512 24.5329M6.03798 28.5089L4.16339 29.0112C3.9691 29.0633 3.76909 28.948 3.71737 28.755L1.78224 21.533C1.73118 21.3425 1.84956 21.1373 2.03991 21.0863L3.9145 20.584C4.10735 20.5323 4.30709 20.648 4.35922 20.8425L6.29434 28.0645C6.34614 28.2578 6.23104 28.4572 6.03798 28.5089Z" fill="black" stroke="black" stroke-width="0.1"/>
<path d="M22.1909 8.43458C22.6737 7.67866 22.9548 6.78194 22.9548 5.82036C22.9549 3.13474 20.7688 0.95 18.0817 0.95C15.3956 0.95 13.2103 3.13476 13.2103 5.8203C13.2103 6.78153 13.4911 7.67805 13.9734 8.43376C12.5284 9.37639 11.6325 10.9886 11.6325 12.7492V15.3524C11.6324 16.395 12.4806 17.243 13.5232 17.243H21.064H22.6399C23.6825 17.243 24.5308 16.395 24.5308 15.3525V12.7493C24.5308 10.9891 23.6353 9.37733 22.1909 8.43458ZM13.0605 12.7493C13.0605 11.4098 13.7785 10.1882 14.923 9.5249C15.7741 10.2519 16.877 10.6925 18.0816 10.6925C19.2864 10.6925 20.3895 10.2521 21.2409 9.52537C22.385 10.1888 23.1026 11.4102 23.1026 12.7493V15.3525C23.1026 15.6074 22.8951 15.8149 22.6399 15.8149H21.064H13.5232C13.2681 15.8149 13.0605 15.6074 13.0605 15.3525V12.7493ZM18.0817 2.37812C19.9813 2.37812 21.5268 3.92237 21.5268 5.8203C21.5268 7.71931 19.9812 9.26433 18.0817 9.26433C16.1831 9.26433 14.6384 7.71927 14.6384 5.8203C14.6384 3.92234 16.183 2.37812 18.0817 2.37812Z" fill="black" stroke="black" stroke-width="0.1"/>
</svg>
