<svg width="27" height="27" viewBox="0 0 27 27" fill="none" xmlns="http://www.w3.org/2000/svg">
<mask id="path-1-outside-1_113_1986" maskUnits="userSpaceOnUse" x="-0.578369" y="-0.573242" width="28" height="28" fill="black">
<rect fill="white" x="-0.578369" y="-0.573242" width="28" height="28"/>
<path d="M18.7203 16.0144C18.9163 15.7377 19.008 15.4006 18.9791 15.0628C18.9503 14.725 18.8027 14.4084 18.5625 14.1691L17.3357 12.9423C18.0656 11.3356 18.2988 9.54754 18.0052 7.80747C17.7117 6.0674 16.9048 4.45475 15.6882 3.17649C14.4716 1.89824 12.9008 1.0127 11.1774 0.633541C9.45394 0.254381 7.65651 0.398895 6.01578 1.04854C4.37506 1.69818 2.9659 2.8233 1.96916 4.27951C0.972428 5.73572 0.433597 7.45656 0.421828 9.22118C0.410058 10.9858 0.925886 12.7137 1.90311 14.1831C2.88033 15.6524 4.27436 16.7962 5.90627 17.4677V19.8281C5.90627 20.1638 6.03961 20.4857 6.27697 20.723C6.51432 20.9604 6.83623 21.0937 7.1719 21.0937H11.3906C11.7263 21.0937 12.0482 20.9604 12.2856 20.723C12.5229 20.4857 12.6563 20.1638 12.6563 19.8281V17.4677C12.7546 17.4255 12.8541 17.3884 12.9516 17.3441L14.1691 18.5625C14.4085 18.8024 14.7251 18.9499 15.0628 18.9787C15.4005 19.0075 15.7374 18.9158 16.014 18.7198L23.3124 26.0183C23.6712 26.3771 24.1579 26.5787 24.6654 26.5787C25.1728 26.5787 25.6595 26.3771 26.0183 26.0183C26.3771 25.6595 26.5787 25.1728 26.5787 24.6653C26.5787 24.1579 26.3771 23.6712 26.0183 23.3124L18.7203 16.0144ZM7.59377 9.28123V8.43748H10.9688V9.28123H7.59377ZM8.43752 10.619V10.125H10.125V10.619C10.1245 10.7853 10.157 10.9501 10.2207 11.1038C10.2843 11.2575 10.3779 11.397 10.4959 11.5142L11.4417 12.4605C11.6098 12.6306 11.7266 12.8447 11.7788 13.0781H6.78377C6.83605 12.8446 6.95301 12.6306 7.12127 12.4605L8.06712 11.5142C8.18504 11.3969 8.2785 11.2574 8.34208 11.1037C8.40567 10.9501 8.43811 10.7853 8.43752 10.619ZM11.8125 13.9219V18.1406H6.75002V13.9219H11.8125ZM12.0382 11.8639L11.0924 10.9177C11.0532 10.8785 11.022 10.8319 11.0008 10.7806C10.9796 10.7294 10.9687 10.6745 10.9688 10.619V10.125H11.3906C11.5025 10.125 11.6098 10.0805 11.689 10.0014C11.7681 9.9223 11.8125 9.81499 11.8125 9.7031V8.0156C11.8125 7.90372 11.7681 7.79641 11.689 7.71729C11.6098 7.63818 11.5025 7.59373 11.3906 7.59373H7.1719C7.06001 7.59373 6.9527 7.63818 6.87359 7.71729C6.79447 7.79641 6.75002 7.90372 6.75002 8.0156V9.7031C6.75002 9.81499 6.79447 9.9223 6.87359 10.0014C6.9527 10.0805 7.06001 10.125 7.1719 10.125H7.59377V10.619C7.59382 10.6745 7.58292 10.7294 7.56171 10.7806C7.5405 10.8319 7.50939 10.8785 7.47016 10.9177L6.52432 11.8639C6.32783 12.0593 6.17204 12.2917 6.06595 12.5477C5.95987 12.8037 5.90559 13.0782 5.90627 13.3553V14.1265C4.87438 13.4079 4.09873 12.3789 3.69221 11.189C3.28569 9.9991 3.26952 8.71053 3.64606 7.51083C4.0226 6.31112 4.77219 5.2629 5.78573 4.51871C6.79927 3.77453 8.02387 3.37324 9.28127 3.37324C10.5387 3.37324 11.7633 3.77453 12.7768 4.51871C13.7904 5.2629 14.5399 6.31112 14.9165 7.51083C15.293 8.71053 15.2769 9.9991 14.8703 11.189C14.4638 12.3789 13.6882 13.4079 12.6563 14.1265V13.3553C12.657 13.0782 12.6027 12.8037 12.4966 12.5477C12.3905 12.2917 12.2347 12.0593 12.0382 11.8639ZM11.3906 20.25H7.1719C7.06001 20.25 6.9527 20.2055 6.87359 20.1264C6.79447 20.0473 6.75002 19.94 6.75002 19.8281V18.9844H11.8125V19.8281C11.8125 19.94 11.7681 20.0473 11.689 20.1264C11.6098 20.2055 11.5025 20.25 11.3906 20.25ZM12.6563 15.1238C13.9431 14.3808 14.9488 13.234 15.5175 11.8612C16.0861 10.4884 16.1859 8.96635 15.8013 7.53108C15.4167 6.0958 14.5693 4.82753 13.3904 3.92297C12.2116 3.01841 10.7672 2.52811 9.28127 2.52811C7.79537 2.52811 6.35098 3.01841 5.17213 3.92297C3.99328 4.82753 3.14585 6.0958 2.76127 7.53108C2.37669 8.96635 2.47645 10.4884 3.04509 11.8612C3.61372 13.234 4.61944 14.3808 5.90627 15.1238V16.5539C4.25036 15.7852 2.90645 14.4743 2.09687 12.838C1.2873 11.2017 1.06055 9.33803 1.45415 7.55533C1.84776 5.77263 2.83812 4.1777 4.26141 3.03438C5.6847 1.89105 7.45564 1.26785 9.28127 1.26785C11.1069 1.26785 12.8778 1.89105 14.3011 3.03438C15.7244 4.1777 16.7148 5.77263 17.1084 7.55533C17.502 9.33803 17.2752 11.2017 16.4657 12.838C15.6561 14.4743 14.3122 15.7852 12.6563 16.5539V15.1238ZM14.7656 17.9659L13.735 16.9353C15.0587 16.1604 16.1598 15.0567 16.9316 13.7312L17.966 14.7656C18.0778 14.8775 18.1406 15.0293 18.1406 15.1875C18.1406 15.3457 18.0778 15.4974 17.966 15.6094L15.6094 17.9655C15.4959 18.0742 15.3448 18.1349 15.1876 18.135C15.0304 18.1351 14.8793 18.0745 14.7656 17.9659ZM24.6649 25.7344C24.5244 25.7347 24.3852 25.7072 24.2553 25.6534C24.1255 25.5996 24.0076 25.5206 23.9085 25.4209L16.6278 18.1406L18.1406 16.6278L25.4214 23.9081C25.571 24.0577 25.6728 24.2483 25.7141 24.4558C25.7554 24.6633 25.7342 24.8784 25.6532 25.0739C25.5722 25.2694 25.4351 25.4364 25.2592 25.554C25.0833 25.6716 24.8765 25.7343 24.6649 25.7344Z"/>
</mask>
<path d="M18.7203 16.0144C18.9163 15.7377 19.008 15.4006 18.9791 15.0628C18.9503 14.725 18.8027 14.4084 18.5625 14.1691L17.3357 12.9423C18.0656 11.3356 18.2988 9.54754 18.0052 7.80747C17.7117 6.0674 16.9048 4.45475 15.6882 3.17649C14.4716 1.89824 12.9008 1.0127 11.1774 0.633541C9.45394 0.254381 7.65651 0.398895 6.01578 1.04854C4.37506 1.69818 2.9659 2.8233 1.96916 4.27951C0.972428 5.73572 0.433597 7.45656 0.421828 9.22118C0.410058 10.9858 0.925886 12.7137 1.90311 14.1831C2.88033 15.6524 4.27436 16.7962 5.90627 17.4677V19.8281C5.90627 20.1638 6.03961 20.4857 6.27697 20.723C6.51432 20.9604 6.83623 21.0937 7.1719 21.0937H11.3906C11.7263 21.0937 12.0482 20.9604 12.2856 20.723C12.5229 20.4857 12.6563 20.1638 12.6563 19.8281V17.4677C12.7546 17.4255 12.8541 17.3884 12.9516 17.3441L14.1691 18.5625C14.4085 18.8024 14.7251 18.9499 15.0628 18.9787C15.4005 19.0075 15.7374 18.9158 16.014 18.7198L23.3124 26.0183C23.6712 26.3771 24.1579 26.5787 24.6654 26.5787C25.1728 26.5787 25.6595 26.3771 26.0183 26.0183C26.3771 25.6595 26.5787 25.1728 26.5787 24.6653C26.5787 24.1579 26.3771 23.6712 26.0183 23.3124L18.7203 16.0144ZM7.59377 9.28123V8.43748H10.9688V9.28123H7.59377ZM8.43752 10.619V10.125H10.125V10.619C10.1245 10.7853 10.157 10.9501 10.2207 11.1038C10.2843 11.2575 10.3779 11.397 10.4959 11.5142L11.4417 12.4605C11.6098 12.6306 11.7266 12.8447 11.7788 13.0781H6.78377C6.83605 12.8446 6.95301 12.6306 7.12127 12.4605L8.06712 11.5142C8.18504 11.3969 8.2785 11.2574 8.34208 11.1037C8.40567 10.9501 8.43811 10.7853 8.43752 10.619ZM11.8125 13.9219V18.1406H6.75002V13.9219H11.8125ZM12.0382 11.8639L11.0924 10.9177C11.0532 10.8785 11.022 10.8319 11.0008 10.7806C10.9796 10.7294 10.9687 10.6745 10.9688 10.619V10.125H11.3906C11.5025 10.125 11.6098 10.0805 11.689 10.0014C11.7681 9.9223 11.8125 9.81499 11.8125 9.7031V8.0156C11.8125 7.90372 11.7681 7.79641 11.689 7.71729C11.6098 7.63818 11.5025 7.59373 11.3906 7.59373H7.1719C7.06001 7.59373 6.9527 7.63818 6.87359 7.71729C6.79447 7.79641 6.75002 7.90372 6.75002 8.0156V9.7031C6.75002 9.81499 6.79447 9.9223 6.87359 10.0014C6.9527 10.0805 7.06001 10.125 7.1719 10.125H7.59377V10.619C7.59382 10.6745 7.58292 10.7294 7.56171 10.7806C7.5405 10.8319 7.50939 10.8785 7.47016 10.9177L6.52432 11.8639C6.32783 12.0593 6.17204 12.2917 6.06595 12.5477C5.95987 12.8037 5.90559 13.0782 5.90627 13.3553V14.1265C4.87438 13.4079 4.09873 12.3789 3.69221 11.189C3.28569 9.9991 3.26952 8.71053 3.64606 7.51083C4.0226 6.31112 4.77219 5.2629 5.78573 4.51871C6.79927 3.77453 8.02387 3.37324 9.28127 3.37324C10.5387 3.37324 11.7633 3.77453 12.7768 4.51871C13.7904 5.2629 14.5399 6.31112 14.9165 7.51083C15.293 8.71053 15.2769 9.9991 14.8703 11.189C14.4638 12.3789 13.6882 13.4079 12.6563 14.1265V13.3553C12.657 13.0782 12.6027 12.8037 12.4966 12.5477C12.3905 12.2917 12.2347 12.0593 12.0382 11.8639ZM11.3906 20.25H7.1719C7.06001 20.25 6.9527 20.2055 6.87359 20.1264C6.79447 20.0473 6.75002 19.94 6.75002 19.8281V18.9844H11.8125V19.8281C11.8125 19.94 11.7681 20.0473 11.689 20.1264C11.6098 20.2055 11.5025 20.25 11.3906 20.25ZM12.6563 15.1238C13.9431 14.3808 14.9488 13.234 15.5175 11.8612C16.0861 10.4884 16.1859 8.96635 15.8013 7.53108C15.4167 6.0958 14.5693 4.82753 13.3904 3.92297C12.2116 3.01841 10.7672 2.52811 9.28127 2.52811C7.79537 2.52811 6.35098 3.01841 5.17213 3.92297C3.99328 4.82753 3.14585 6.0958 2.76127 7.53108C2.37669 8.96635 2.47645 10.4884 3.04509 11.8612C3.61372 13.234 4.61944 14.3808 5.90627 15.1238V16.5539C4.25036 15.7852 2.90645 14.4743 2.09687 12.838C1.2873 11.2017 1.06055 9.33803 1.45415 7.55533C1.84776 5.77263 2.83812 4.1777 4.26141 3.03438C5.6847 1.89105 7.45564 1.26785 9.28127 1.26785C11.1069 1.26785 12.8778 1.89105 14.3011 3.03438C15.7244 4.1777 16.7148 5.77263 17.1084 7.55533C17.502 9.33803 17.2752 11.2017 16.4657 12.838C15.6561 14.4743 14.3122 15.7852 12.6563 16.5539V15.1238ZM14.7656 17.9659L13.735 16.9353C15.0587 16.1604 16.1598 15.0567 16.9316 13.7312L17.966 14.7656C18.0778 14.8775 18.1406 15.0293 18.1406 15.1875C18.1406 15.3457 18.0778 15.4974 17.966 15.6094L15.6094 17.9655C15.4959 18.0742 15.3448 18.1349 15.1876 18.135C15.0304 18.1351 14.8793 18.0745 14.7656 17.9659ZM24.6649 25.7344C24.5244 25.7347 24.3852 25.7072 24.2553 25.6534C24.1255 25.5996 24.0076 25.5206 23.9085 25.4209L16.6278 18.1406L18.1406 16.6278L25.4214 23.9081C25.571 24.0577 25.6728 24.2483 25.7141 24.4558C25.7554 24.6633 25.7342 24.8784 25.6532 25.0739C25.5722 25.2694 25.4351 25.4364 25.2592 25.554C25.0833 25.6716 24.8765 25.7343 24.6649 25.7344Z" fill="black"/>
<path d="M18.7203 16.0144C18.9163 15.7377 19.008 15.4006 18.9791 15.0628C18.9503 14.725 18.8027 14.4084 18.5625 14.1691L17.3357 12.9423C18.0656 11.3356 18.2988 9.54754 18.0052 7.80747C17.7117 6.0674 16.9048 4.45475 15.6882 3.17649C14.4716 1.89824 12.9008 1.0127 11.1774 0.633541C9.45394 0.254381 7.65651 0.398895 6.01578 1.04854C4.37506 1.69818 2.9659 2.8233 1.96916 4.27951C0.972428 5.73572 0.433597 7.45656 0.421828 9.22118C0.410058 10.9858 0.925886 12.7137 1.90311 14.1831C2.88033 15.6524 4.27436 16.7962 5.90627 17.4677V19.8281C5.90627 20.1638 6.03961 20.4857 6.27697 20.723C6.51432 20.9604 6.83623 21.0937 7.1719 21.0937H11.3906C11.7263 21.0937 12.0482 20.9604 12.2856 20.723C12.5229 20.4857 12.6563 20.1638 12.6563 19.8281V17.4677C12.7546 17.4255 12.8541 17.3884 12.9516 17.3441L14.1691 18.5625C14.4085 18.8024 14.7251 18.9499 15.0628 18.9787C15.4005 19.0075 15.7374 18.9158 16.014 18.7198L23.3124 26.0183C23.6712 26.3771 24.1579 26.5787 24.6654 26.5787C25.1728 26.5787 25.6595 26.3771 26.0183 26.0183C26.3771 25.6595 26.5787 25.1728 26.5787 24.6653C26.5787 24.1579 26.3771 23.6712 26.0183 23.3124L18.7203 16.0144ZM7.59377 9.28123V8.43748H10.9688V9.28123H7.59377ZM8.43752 10.619V10.125H10.125V10.619C10.1245 10.7853 10.157 10.9501 10.2207 11.1038C10.2843 11.2575 10.3779 11.397 10.4959 11.5142L11.4417 12.4605C11.6098 12.6306 11.7266 12.8447 11.7788 13.0781H6.78377C6.83605 12.8446 6.95301 12.6306 7.12127 12.4605L8.06712 11.5142C8.18504 11.3969 8.2785 11.2574 8.34208 11.1037C8.40567 10.9501 8.43811 10.7853 8.43752 10.619ZM11.8125 13.9219V18.1406H6.75002V13.9219H11.8125ZM12.0382 11.8639L11.0924 10.9177C11.0532 10.8785 11.022 10.8319 11.0008 10.7806C10.9796 10.7294 10.9687 10.6745 10.9688 10.619V10.125H11.3906C11.5025 10.125 11.6098 10.0805 11.689 10.0014C11.7681 9.9223 11.8125 9.81499 11.8125 9.7031V8.0156C11.8125 7.90372 11.7681 7.79641 11.689 7.71729C11.6098 7.63818 11.5025 7.59373 11.3906 7.59373H7.1719C7.06001 7.59373 6.9527 7.63818 6.87359 7.71729C6.79447 7.79641 6.75002 7.90372 6.75002 8.0156V9.7031C6.75002 9.81499 6.79447 9.9223 6.87359 10.0014C6.9527 10.0805 7.06001 10.125 7.1719 10.125H7.59377V10.619C7.59382 10.6745 7.58292 10.7294 7.56171 10.7806C7.5405 10.8319 7.50939 10.8785 7.47016 10.9177L6.52432 11.8639C6.32783 12.0593 6.17204 12.2917 6.06595 12.5477C5.95987 12.8037 5.90559 13.0782 5.90627 13.3553V14.1265C4.87438 13.4079 4.09873 12.3789 3.69221 11.189C3.28569 9.9991 3.26952 8.71053 3.64606 7.51083C4.0226 6.31112 4.77219 5.2629 5.78573 4.51871C6.79927 3.77453 8.02387 3.37324 9.28127 3.37324C10.5387 3.37324 11.7633 3.77453 12.7768 4.51871C13.7904 5.2629 14.5399 6.31112 14.9165 7.51083C15.293 8.71053 15.2769 9.9991 14.8703 11.189C14.4638 12.3789 13.6882 13.4079 12.6563 14.1265V13.3553C12.657 13.0782 12.6027 12.8037 12.4966 12.5477C12.3905 12.2917 12.2347 12.0593 12.0382 11.8639ZM11.3906 20.25H7.1719C7.06001 20.25 6.9527 20.2055 6.87359 20.1264C6.79447 20.0473 6.75002 19.94 6.75002 19.8281V18.9844H11.8125V19.8281C11.8125 19.94 11.7681 20.0473 11.689 20.1264C11.6098 20.2055 11.5025 20.25 11.3906 20.25ZM12.6563 15.1238C13.9431 14.3808 14.9488 13.234 15.5175 11.8612C16.0861 10.4884 16.1859 8.96635 15.8013 7.53108C15.4167 6.0958 14.5693 4.82753 13.3904 3.92297C12.2116 3.01841 10.7672 2.52811 9.28127 2.52811C7.79537 2.52811 6.35098 3.01841 5.17213 3.92297C3.99328 4.82753 3.14585 6.0958 2.76127 7.53108C2.37669 8.96635 2.47645 10.4884 3.04509 11.8612C3.61372 13.234 4.61944 14.3808 5.90627 15.1238V16.5539C4.25036 15.7852 2.90645 14.4743 2.09687 12.838C1.2873 11.2017 1.06055 9.33803 1.45415 7.55533C1.84776 5.77263 2.83812 4.1777 4.26141 3.03438C5.6847 1.89105 7.45564 1.26785 9.28127 1.26785C11.1069 1.26785 12.8778 1.89105 14.3011 3.03438C15.7244 4.1777 16.7148 5.77263 17.1084 7.55533C17.502 9.33803 17.2752 11.2017 16.4657 12.838C15.6561 14.4743 14.3122 15.7852 12.6563 16.5539V15.1238ZM14.7656 17.9659L13.735 16.9353C15.0587 16.1604 16.1598 15.0567 16.9316 13.7312L17.966 14.7656C18.0778 14.8775 18.1406 15.0293 18.1406 15.1875C18.1406 15.3457 18.0778 15.4974 17.966 15.6094L15.6094 17.9655C15.4959 18.0742 15.3448 18.1349 15.1876 18.135C15.0304 18.1351 14.8793 18.0745 14.7656 17.9659ZM24.6649 25.7344C24.5244 25.7347 24.3852 25.7072 24.2553 25.6534C24.1255 25.5996 24.0076 25.5206 23.9085 25.4209L16.6278 18.1406L18.1406 16.6278L25.4214 23.9081C25.571 24.0577 25.6728 24.2483 25.7141 24.4558C25.7554 24.6633 25.7342 24.8784 25.6532 25.0739C25.5722 25.2694 25.4351 25.4364 25.2592 25.554C25.0833 25.6716 24.8765 25.7343 24.6649 25.7344Z" stroke="black" stroke-width="0.4" mask="url(#path-1-outside-1_113_1986)"/>
<mask id="path-2-outside-2_113_1986" maskUnits="userSpaceOnUse" x="18.8281" y="-0.578125" width="8" height="18" fill="black">
<rect fill="white" x="18.8281" y="-0.578125" width="8" height="18"/>
<path d="M25.3126 5.0625C25.382 5.06251 25.4504 5.04538 25.5116 5.01263C25.5728 4.97989 25.625 4.93253 25.6636 4.87477L26.5073 3.60914C26.5536 3.53982 26.5783 3.45834 26.5783 3.375C26.5783 3.29166 26.5536 3.21019 26.5073 3.14086L25.6636 1.87524C25.625 1.81748 25.5728 1.77012 25.5116 1.73737C25.4504 1.70462 25.382 1.68749 25.3126 1.6875H23.8508L23.1336 0.609611C23.0949 0.551671 23.0425 0.504204 22.9811 0.471446C22.9196 0.438687 22.851 0.421658 22.7813 0.421877H21.0938C21.0244 0.421867 20.956 0.438996 20.8948 0.471745C20.8335 0.504494 20.7814 0.55185 20.7428 0.609611L19.8991 1.87524C19.8528 1.94456 19.8281 2.02604 19.8281 2.10938C19.8281 2.19272 19.8528 2.27419 19.8991 2.34352L20.5876 3.375L19.8999 4.40649C19.8537 4.47581 19.829 4.55729 19.829 4.64063C19.829 4.72397 19.8537 4.80544 19.8999 4.87477L20.5876 5.90625L19.8999 6.93774C19.8537 7.00706 19.829 7.08854 19.829 7.17188C19.829 7.25522 19.8537 7.33669 19.8999 7.40602L20.5876 8.4375L19.8999 9.46899C19.8537 9.53831 19.829 9.61979 19.829 9.70313C19.829 9.78647 19.8537 9.86794 19.8999 9.93727L20.7437 11.2029C20.7821 11.2605 20.8342 11.3078 20.8953 11.3406C20.9563 11.3733 21.0245 11.3905 21.0938 11.3906H22.5556L23.1188 12.2344L22.5565 13.0781H21.0938C21.0244 13.0781 20.956 13.0952 20.8948 13.128C20.8335 13.1607 20.7814 13.2081 20.7428 13.2659L19.8991 14.5315C19.8528 14.6008 19.8281 14.6823 19.8281 14.7656C19.8281 14.849 19.8528 14.9304 19.8991 14.9998L20.7428 16.2654C20.7814 16.3232 20.8335 16.3705 20.8948 16.4033C20.956 16.436 21.0244 16.4531 21.0938 16.4531H22.7813C22.8508 16.4531 22.9191 16.436 22.9803 16.4033C23.0416 16.3705 23.0938 16.3232 23.1323 16.2654L23.8508 15.1875H25.3126C25.382 15.1875 25.4504 15.1704 25.5116 15.1376C25.5728 15.1049 25.625 15.0575 25.6636 14.9998L26.5073 13.7341C26.5536 13.6648 26.5783 13.5833 26.5783 13.5C26.5783 13.4167 26.5536 13.3352 26.5073 13.2659L25.8188 12.2344L26.5065 11.2029C26.5527 11.1336 26.5774 11.0521 26.5774 10.9688C26.5774 10.8854 26.5527 10.8039 26.5065 10.7346L25.6627 9.46899C25.6243 9.41134 25.5722 9.36406 25.5111 9.33132C25.4501 9.29858 25.3819 9.28138 25.3126 9.28125H23.8508L23.2876 8.4375L23.9752 7.40602C24.0215 7.33669 24.0462 7.25522 24.0462 7.17188C24.0462 7.08854 24.0215 7.00706 23.9752 6.93774L23.2876 5.90625L23.8499 5.0625H25.3126ZM25.6501 3.375L25.0877 4.21875H23.8516L23.2876 3.375L23.8499 2.53125H25.086L25.6501 3.375ZM23.1188 4.64063L22.5565 5.48438H21.3204L20.7563 4.64063L21.3187 3.79688H22.5548L23.1188 4.64063ZM22.5565 8.01563H21.3204L20.7563 7.17188L21.3187 6.32813H22.5548L23.1188 7.17188L22.5565 8.01563ZM21.3195 1.26563H22.5556L23.1188 2.10938L22.5556 2.95313H21.3195L20.7563 2.10938L21.3195 1.26563ZM20.7563 9.70313L21.3187 8.85938H22.5548L23.1188 9.70313L22.5565 10.5469H21.3204L20.7563 9.70313ZM22.5548 15.6094H21.3187L20.7563 14.7656L21.3187 13.9219H22.5548L23.1188 14.7656L22.5548 15.6094ZM25.086 14.3438H23.8499L23.2876 13.5L23.8499 12.6563H25.086L25.6501 13.5L25.086 14.3438ZM25.6501 10.9688L25.0877 11.8125H23.8516L23.2876 10.9688L23.8499 10.125H25.086L25.6501 10.9688Z"/>
</mask>
<path d="M25.3126 5.0625C25.382 5.06251 25.4504 5.04538 25.5116 5.01263C25.5728 4.97989 25.625 4.93253 25.6636 4.87477L26.5073 3.60914C26.5536 3.53982 26.5783 3.45834 26.5783 3.375C26.5783 3.29166 26.5536 3.21019 26.5073 3.14086L25.6636 1.87524C25.625 1.81748 25.5728 1.77012 25.5116 1.73737C25.4504 1.70462 25.382 1.68749 25.3126 1.6875H23.8508L23.1336 0.609611C23.0949 0.551671 23.0425 0.504204 22.9811 0.471446C22.9196 0.438687 22.851 0.421658 22.7813 0.421877H21.0938C21.0244 0.421867 20.956 0.438996 20.8948 0.471745C20.8335 0.504494 20.7814 0.55185 20.7428 0.609611L19.8991 1.87524C19.8528 1.94456 19.8281 2.02604 19.8281 2.10938C19.8281 2.19272 19.8528 2.27419 19.8991 2.34352L20.5876 3.375L19.8999 4.40649C19.8537 4.47581 19.829 4.55729 19.829 4.64063C19.829 4.72397 19.8537 4.80544 19.8999 4.87477L20.5876 5.90625L19.8999 6.93774C19.8537 7.00706 19.829 7.08854 19.829 7.17188C19.829 7.25522 19.8537 7.33669 19.8999 7.40602L20.5876 8.4375L19.8999 9.46899C19.8537 9.53831 19.829 9.61979 19.829 9.70313C19.829 9.78647 19.8537 9.86794 19.8999 9.93727L20.7437 11.2029C20.7821 11.2605 20.8342 11.3078 20.8953 11.3406C20.9563 11.3733 21.0245 11.3905 21.0938 11.3906H22.5556L23.1188 12.2344L22.5565 13.0781H21.0938C21.0244 13.0781 20.956 13.0952 20.8948 13.128C20.8335 13.1607 20.7814 13.2081 20.7428 13.2659L19.8991 14.5315C19.8528 14.6008 19.8281 14.6823 19.8281 14.7656C19.8281 14.849 19.8528 14.9304 19.8991 14.9998L20.7428 16.2654C20.7814 16.3232 20.8335 16.3705 20.8948 16.4033C20.956 16.436 21.0244 16.4531 21.0938 16.4531H22.7813C22.8508 16.4531 22.9191 16.436 22.9803 16.4033C23.0416 16.3705 23.0938 16.3232 23.1323 16.2654L23.8508 15.1875H25.3126C25.382 15.1875 25.4504 15.1704 25.5116 15.1376C25.5728 15.1049 25.625 15.0575 25.6636 14.9998L26.5073 13.7341C26.5536 13.6648 26.5783 13.5833 26.5783 13.5C26.5783 13.4167 26.5536 13.3352 26.5073 13.2659L25.8188 12.2344L26.5065 11.2029C26.5527 11.1336 26.5774 11.0521 26.5774 10.9688C26.5774 10.8854 26.5527 10.8039 26.5065 10.7346L25.6627 9.46899C25.6243 9.41134 25.5722 9.36406 25.5111 9.33132C25.4501 9.29858 25.3819 9.28138 25.3126 9.28125H23.8508L23.2876 8.4375L23.9752 7.40602C24.0215 7.33669 24.0462 7.25522 24.0462 7.17188C24.0462 7.08854 24.0215 7.00706 23.9752 6.93774L23.2876 5.90625L23.8499 5.0625H25.3126ZM25.6501 3.375L25.0877 4.21875H23.8516L23.2876 3.375L23.8499 2.53125H25.086L25.6501 3.375ZM23.1188 4.64063L22.5565 5.48438H21.3204L20.7563 4.64063L21.3187 3.79688H22.5548L23.1188 4.64063ZM22.5565 8.01563H21.3204L20.7563 7.17188L21.3187 6.32813H22.5548L23.1188 7.17188L22.5565 8.01563ZM21.3195 1.26563H22.5556L23.1188 2.10938L22.5556 2.95313H21.3195L20.7563 2.10938L21.3195 1.26563ZM20.7563 9.70313L21.3187 8.85938H22.5548L23.1188 9.70313L22.5565 10.5469H21.3204L20.7563 9.70313ZM22.5548 15.6094H21.3187L20.7563 14.7656L21.3187 13.9219H22.5548L23.1188 14.7656L22.5548 15.6094ZM25.086 14.3438H23.8499L23.2876 13.5L23.8499 12.6563H25.086L25.6501 13.5L25.086 14.3438ZM25.6501 10.9688L25.0877 11.8125H23.8516L23.2876 10.9688L23.8499 10.125H25.086L25.6501 10.9688Z" fill="black"/>
<path d="M25.3126 5.0625C25.382 5.06251 25.4504 5.04538 25.5116 5.01263C25.5728 4.97989 25.625 4.93253 25.6636 4.87477L26.5073 3.60914C26.5536 3.53982 26.5783 3.45834 26.5783 3.375C26.5783 3.29166 26.5536 3.21019 26.5073 3.14086L25.6636 1.87524C25.625 1.81748 25.5728 1.77012 25.5116 1.73737C25.4504 1.70462 25.382 1.68749 25.3126 1.6875H23.8508L23.1336 0.609611C23.0949 0.551671 23.0425 0.504204 22.9811 0.471446C22.9196 0.438687 22.851 0.421658 22.7813 0.421877H21.0938C21.0244 0.421867 20.956 0.438996 20.8948 0.471745C20.8335 0.504494 20.7814 0.55185 20.7428 0.609611L19.8991 1.87524C19.8528 1.94456 19.8281 2.02604 19.8281 2.10938C19.8281 2.19272 19.8528 2.27419 19.8991 2.34352L20.5876 3.375L19.8999 4.40649C19.8537 4.47581 19.829 4.55729 19.829 4.64063C19.829 4.72397 19.8537 4.80544 19.8999 4.87477L20.5876 5.90625L19.8999 6.93774C19.8537 7.00706 19.829 7.08854 19.829 7.17188C19.829 7.25522 19.8537 7.33669 19.8999 7.40602L20.5876 8.4375L19.8999 9.46899C19.8537 9.53831 19.829 9.61979 19.829 9.70313C19.829 9.78647 19.8537 9.86794 19.8999 9.93727L20.7437 11.2029C20.7821 11.2605 20.8342 11.3078 20.8953 11.3406C20.9563 11.3733 21.0245 11.3905 21.0938 11.3906H22.5556L23.1188 12.2344L22.5565 13.0781H21.0938C21.0244 13.0781 20.956 13.0952 20.8948 13.128C20.8335 13.1607 20.7814 13.2081 20.7428 13.2659L19.8991 14.5315C19.8528 14.6008 19.8281 14.6823 19.8281 14.7656C19.8281 14.849 19.8528 14.9304 19.8991 14.9998L20.7428 16.2654C20.7814 16.3232 20.8335 16.3705 20.8948 16.4033C20.956 16.436 21.0244 16.4531 21.0938 16.4531H22.7813C22.8508 16.4531 22.9191 16.436 22.9803 16.4033C23.0416 16.3705 23.0938 16.3232 23.1323 16.2654L23.8508 15.1875H25.3126C25.382 15.1875 25.4504 15.1704 25.5116 15.1376C25.5728 15.1049 25.625 15.0575 25.6636 14.9998L26.5073 13.7341C26.5536 13.6648 26.5783 13.5833 26.5783 13.5C26.5783 13.4167 26.5536 13.3352 26.5073 13.2659L25.8188 12.2344L26.5065 11.2029C26.5527 11.1336 26.5774 11.0521 26.5774 10.9688C26.5774 10.8854 26.5527 10.8039 26.5065 10.7346L25.6627 9.46899C25.6243 9.41134 25.5722 9.36406 25.5111 9.33132C25.4501 9.29858 25.3819 9.28138 25.3126 9.28125H23.8508L23.2876 8.4375L23.9752 7.40602C24.0215 7.33669 24.0462 7.25522 24.0462 7.17188C24.0462 7.08854 24.0215 7.00706 23.9752 6.93774L23.2876 5.90625L23.8499 5.0625H25.3126ZM25.6501 3.375L25.0877 4.21875H23.8516L23.2876 3.375L23.8499 2.53125H25.086L25.6501 3.375ZM23.1188 4.64063L22.5565 5.48438H21.3204L20.7563 4.64063L21.3187 3.79688H22.5548L23.1188 4.64063ZM22.5565 8.01563H21.3204L20.7563 7.17188L21.3187 6.32813H22.5548L23.1188 7.17188L22.5565 8.01563ZM21.3195 1.26563H22.5556L23.1188 2.10938L22.5556 2.95313H21.3195L20.7563 2.10938L21.3195 1.26563ZM20.7563 9.70313L21.3187 8.85938H22.5548L23.1188 9.70313L22.5565 10.5469H21.3204L20.7563 9.70313ZM22.5548 15.6094H21.3187L20.7563 14.7656L21.3187 13.9219H22.5548L23.1188 14.7656L22.5548 15.6094ZM25.086 14.3438H23.8499L23.2876 13.5L23.8499 12.6563H25.086L25.6501 13.5L25.086 14.3438ZM25.6501 10.9688L25.0877 11.8125H23.8516L23.2876 10.9688L23.8499 10.125H25.086L25.6501 10.9688Z" stroke="black" stroke-width="0.2" mask="url(#path-2-outside-2_113_1986)"/>
<path d="M8.01562 16.4531H8.85938V17.2969H9.70312V16.4531H10.5469V15.6094H9.70312V14.7656H8.85938V15.6094H8.01562V16.4531Z" fill="black"/>
</svg>
