<svg width="26" height="26" viewBox="0 0 26 26" fill="none" xmlns="http://www.w3.org/2000/svg">
<g clip-path="url(#clip0_113_1990)">
<path d="M2.68531 2.68536C4.417 0.953672 6.71937 0 9.16835 0C11.6173 0 13.9196 0.953672 15.6513 2.68536C17.383 4.41705 18.3367 6.71943 18.3367 9.1684C18.3367 11.3445 17.5832 13.4044 16.2004 15.0515L18.0366 16.8876C18.378 16.6505 18.7833 16.5223 19.2093 16.5223C19.7602 16.5223 20.2773 16.7359 20.6652 17.1238L25.3984 21.8571C25.7864 22.245 26 22.762 26 23.313C26 23.8639 25.7864 24.3809 25.3984 24.7689L24.7689 25.3984C24.381 25.7864 23.8639 26 23.313 26C22.762 26 22.245 25.7864 21.8571 25.3984L17.1238 20.6652C16.7359 20.2773 16.5223 19.7603 16.5223 19.2093C16.5223 18.7834 16.6505 18.378 16.8876 18.0366L15.0514 16.2004C13.4044 17.5832 11.3444 18.3367 9.16835 18.3367C6.71937 18.3367 4.417 17.383 2.68531 15.6513C0.953621 13.9196 0 11.6173 0 9.16835C0 6.71938 0.953672 4.417 2.68531 2.68536ZM18.2729 19.5161L23.0061 24.2494C23.1724 24.4157 23.4535 24.4157 23.6198 24.2494L24.2494 23.6198C24.3586 23.5105 24.375 23.3807 24.375 23.313C24.375 23.2453 24.3587 23.1154 24.2494 23.0061L19.5161 18.2729C19.4069 18.1636 19.277 18.1472 19.2093 18.1472C19.1416 18.1472 19.0117 18.1635 18.9025 18.2728L18.2729 18.9024C18.1066 19.0688 18.1066 19.3498 18.2729 19.5161ZM3.83439 14.5023C5.25916 15.9271 7.15345 16.7117 9.1684 16.7117C11.1833 16.7117 13.0776 15.927 14.5024 14.5023C15.9271 13.0775 16.7118 11.1833 16.7118 9.16835C16.7118 7.15345 15.9271 5.25916 14.5024 3.83439C13.0775 2.40967 11.1832 1.625 9.16835 1.625C7.15345 1.625 5.25916 2.40967 3.83434 3.83439C2.40962 5.25916 1.625 7.15345 1.625 9.16835C1.625 11.1833 2.40962 13.0776 3.83439 14.5023ZM4.63684 6.6396H6.63955V4.63689C6.63955 4.18818 7.00334 3.82439 7.45205 3.82439H10.8847C11.3334 3.82439 11.6972 4.18818 11.6972 4.63689V6.6396H13.6999C14.1486 6.6396 14.5124 7.00339 14.5124 7.4521V10.8847C14.5124 11.3334 14.1486 11.6972 13.6999 11.6972H11.6972V13.6999C11.6972 14.1486 11.3334 14.5124 10.8847 14.5124H7.45205C7.00334 14.5124 6.63955 14.1486 6.63955 13.6999V11.6972H4.63684C4.18813 11.6972 3.82434 11.3334 3.82434 10.8847V7.4521C3.82434 7.00334 4.18813 6.6396 4.63684 6.6396ZM5.44934 10.0722H7.45205C7.90075 10.0722 8.26455 10.436 8.26455 10.8847V12.8874H10.0722V10.8847C10.0722 10.436 10.436 10.0722 10.8847 10.0722H12.8874V8.26455H10.8847C10.436 8.26455 10.0722 7.90075 10.0722 7.45205V5.44934H8.26455V7.45205C8.26455 7.90075 7.90075 8.26455 7.45205 8.26455H5.44934V10.0722Z" fill="black"/>
</g>
<defs>
<clipPath id="clip0_113_1990">
<rect width="26" height="26" fill="white" transform="matrix(-1 0 0 1 26 0)"/>
</clipPath>
</defs>
</svg>
