<svg width="26" height="26" viewBox="0 0 26 26" fill="none" xmlns="http://www.w3.org/2000/svg">
<g clip-path="url(#clip0_113_1979)">
<path d="M25.9964 4.90661C25.9722 4.61391 25.7644 4.3502 25.4863 4.25656L13.2481 0.0417197C13.0873 -0.0135811 12.9128 -0.0135811 12.752 0.0417197L0.513703 4.25656C0.206324 4.36244 0 4.65169 0 4.97679C0 5.3019 0.206324 5.59115 0.513703 5.69702L4.64648 7.12032V14.3713C4.64648 14.6809 4.83382 14.9596 5.12043 15.0766C5.72422 15.323 6.34324 15.5415 6.96993 15.7308C6.4123 16.7267 6.09375 17.8737 6.09375 19.094C6.09375 22.9021 9.19186 26.0002 13 26.0002C16.8081 26.0002 19.9062 22.9021 19.9062 19.094C19.9062 17.8737 19.5877 16.7267 19.0301 15.7308C19.6568 15.5415 20.2758 15.323 20.8796 15.0766C21.1662 14.9596 21.3535 14.6809 21.3535 14.3713V7.12032L24.4766 6.04472V9.95336C24.4766 10.374 24.8176 10.7151 25.2383 10.7151C25.659 10.7151 26 10.374 26 9.95336V4.97679C26 4.95318 25.9986 4.92982 25.9964 4.90661ZM13 24.4768C10.0319 24.4768 7.61719 22.0621 7.61719 19.094C7.61719 16.1259 10.0319 13.7112 13 13.7112C15.9681 13.7112 18.3828 16.1259 18.3828 19.094C18.3828 22.0621 15.9681 24.4768 13 24.4768ZM19.8301 13.8521C19.2564 14.0687 18.6701 14.2581 18.0786 14.4191C16.8157 13.0482 15.0065 12.1877 13 12.1877C10.9935 12.1877 9.18435 13.0482 7.92137 14.4191C7.32987 14.2581 6.74365 14.0687 6.16992 13.8521V7.64499L12.752 9.91182C12.9127 9.96717 13.0873 9.96717 13.2481 9.91182L19.8301 7.64499V13.8521ZM13 8.38599L3.10096 4.97679L13 1.56759L22.8991 4.97679L13 8.38599Z" fill="black"/>
<path d="M13.825 18.4191C13.2239 18.1974 12.6627 17.9564 12.4678 17.8712C12.3948 17.8042 12.3938 17.7174 12.4009 17.6681C12.4103 17.6027 12.4597 17.4422 12.7153 17.3653C13.3697 17.1682 13.9891 17.6604 13.9953 17.6654C14.3575 17.933 14.8624 17.8455 15.0989 17.5072C15.31 17.2051 15.2636 16.7654 14.9703 16.4949C14.8677 16.4145 14.7509 16.3317 14.6181 16.2532C14.4078 16.129 14.1134 15.9848 13.7617 15.8918V15.7422C13.7617 15.3215 13.4207 14.9805 13 14.9805C12.5793 14.9805 12.2383 15.3215 12.2383 15.7422V15.9193C11.5098 16.1532 10.9956 16.7366 10.8929 17.4516C10.7945 18.1373 11.0919 18.7969 11.669 19.1732C11.7026 19.1951 11.7379 19.2144 11.7746 19.2307C11.8041 19.2439 12.5068 19.5566 13.2978 19.8484C13.6072 19.9625 13.9231 20.1667 13.882 20.3975C13.8479 20.5878 13.5826 20.8695 13.1208 20.8695C12.6517 20.8695 12.2016 20.6818 11.9166 20.3674C11.6342 20.0557 11.1525 20.032 10.8407 20.3145C10.5289 20.597 10.5053 21.0787 10.7878 21.3905C11.1718 21.8143 11.6769 22.1169 12.2383 22.2727V22.4453C12.2383 22.866 12.5793 23.207 13 23.207C13.4207 23.207 13.7617 22.866 13.7617 22.4453V22.312C14.5955 22.0966 15.238 21.4698 15.3816 20.6652C15.5171 19.9069 15.1793 18.9186 13.825 18.4191Z" fill="black"/>
</g>
<defs>
<clipPath id="clip0_113_1979">
<rect width="26" height="26" fill="white"/>
</clipPath>
</defs>
</svg>
