<svg width="75" height="75" viewBox="0 0 75 75" fill="none" xmlns="http://www.w3.org/2000/svg">
<rect x="1" y="1" width="73" height="73" rx="36.5" fill="#127AD4" stroke="#E3EFFF" stroke-width="2"/>
<g clip-path="url(#clip0_2771_3769)">
<path d="M58.134 34.7762L58.1454 34.7709C58.3175 34.7659 58.481 34.6943 58.6014 34.5713C58.7218 34.4482 58.7899 34.2833 58.7912 34.1111C58.7922 34.0241 58.7759 33.9377 58.7432 33.8571C58.7106 33.7764 58.6623 33.703 58.6011 33.6412C58.5399 33.5793 58.4671 33.5302 58.3868 33.4967C58.3065 33.4632 58.2204 33.4459 58.1334 33.4459C57.9458 33.3861 57.4536 32.5766 57.4536 31.118C57.4536 29.6594 57.9465 28.85 58.134 28.7901L58.1434 28.7855C58.3065 28.7738 58.4597 28.7025 58.5736 28.585C58.6875 28.4676 58.7541 28.3123 58.7607 28.1488C58.7673 27.9853 58.7134 27.8252 58.6093 27.6989C58.5052 27.5727 58.3583 27.4892 58.1966 27.4645L36.7605 24.9437C35.926 24.8446 35.0828 24.8446 34.2483 24.9437L18.7976 26.7994H18.7877C17.5366 26.8859 16.8814 28.6777 16.8814 30.4529C16.8379 31.5084 17.1163 32.5522 17.6796 33.4459C17.1161 34.3396 16.8377 35.3834 16.8814 36.439C16.8457 37.455 17.0994 38.4602 17.6131 39.3376C16.6945 40.2621 16.2163 42.1803 16.2163 44.0878C16.2163 46.7097 17.1149 49.3642 18.8329 49.4088L41.413 52.0653C41.4388 52.0683 41.4648 52.0696 41.4908 52.0693C41.5173 52.0694 41.5437 52.0678 41.5699 52.0646L46.8117 51.4354V54.0646C46.8117 54.2101 46.8594 54.3516 46.9474 54.4674C47.0355 54.5832 47.1591 54.6669 47.2993 54.7058C47.3572 54.7216 47.4169 54.7296 47.4769 54.7297C47.5916 54.7297 47.7044 54.7 47.8043 54.6435C47.9042 54.5869 47.9878 54.5055 48.0469 54.4071L49.5334 51.9296L50.9355 53.7986C51.0192 53.9102 51.136 53.9927 51.2693 54.0344C51.4025 54.076 51.5455 54.0746 51.6779 54.0305C51.8103 53.9863 51.9255 53.9016 52.0071 53.7884C52.0888 53.6751 52.1327 53.5391 52.1327 53.3995V50.7976L58.1979 50.0692C58.3664 50.0492 58.5208 49.9656 58.6296 49.8354C58.7384 49.7053 58.7934 49.5385 58.7833 49.3691C58.7732 49.1998 58.6987 49.0407 58.5752 48.9245C58.4517 48.8082 58.2884 48.7435 58.1188 48.7437C57.6532 48.7437 56.7885 47.2285 56.7885 44.753C56.7885 42.2987 57.6053 40.878 58.1188 40.7622C58.296 40.7628 58.4662 40.6931 58.5922 40.5685C58.7183 40.4438 58.7898 40.2744 58.7912 40.0971C58.7926 39.9345 58.7338 39.7772 58.6261 39.6554C58.5184 39.5335 58.3694 39.4559 58.2079 39.4373C58.1816 39.4342 58.1552 39.4324 58.1287 39.432C57.9378 39.3588 57.4536 38.5514 57.4536 37.1041C57.4536 35.6408 57.9465 34.836 58.134 34.7762ZM37.691 50.2874C37.0631 49.0279 36.7684 47.6286 36.835 46.2229C36.7863 44.8733 37.0487 43.5306 37.6019 42.2987L39.7921 42.5561C39.1134 43.8464 38.7819 45.2911 38.8303 46.7483C38.8078 48.0388 39.057 49.3197 39.562 50.5076L37.691 50.2874ZM35.0066 49.9715C34.3994 48.7186 34.1135 47.3344 34.1745 45.9435C34.1211 44.5825 34.3914 43.2282 34.9633 41.992L36.2071 42.1384C35.7121 43.4419 35.4736 44.8288 35.5047 46.2229C35.4839 47.5438 35.6972 48.8579 36.1346 50.1045L35.0066 49.9715ZM24.2556 48.7077C23.749 47.5098 23.507 46.2166 23.5459 44.9166C23.4682 43.4731 23.7884 42.0361 24.4718 40.7622L33.4928 41.8218C33.5127 41.8218 33.5307 41.8338 33.5506 41.8338C33.5557 41.8341 33.5608 41.8341 33.5659 41.8338C33.0614 43.144 32.8163 44.5398 32.8443 45.9435C32.825 47.2517 33.0334 48.5532 33.4602 49.7899L24.2556 48.7077ZM21.5998 48.3958C21.0882 47.1953 20.8444 45.8977 20.8854 44.5933C20.8067 43.1529 21.1241 41.7184 21.8033 40.4456L23.0418 40.5913C22.4581 41.9561 22.1754 43.4307 22.213 44.9146C22.1975 46.1408 22.3771 47.3617 22.7451 48.5315L21.5998 48.3958ZM18.8914 38.7669C18.7039 38.707 18.2117 37.8976 18.2117 36.439C18.2117 34.993 18.6945 34.1869 18.8715 34.1151L22.0221 34.4822C22.0334 34.4822 22.0421 34.4908 22.0527 34.4922L35.4309 36.0619C35.1332 36.932 34.9894 37.8474 35.0059 38.7669C35.0042 39.4112 35.0731 40.0538 35.2114 40.6831L33.939 40.5341C33.6268 39.7624 33.4804 38.9337 33.5094 38.1018C33.5088 37.7045 33.5534 37.3084 33.6424 36.9212C33.6621 36.8361 33.6648 36.7479 33.6503 36.6618C33.6359 36.5756 33.6047 36.4931 33.5584 36.419C33.5121 36.345 33.4517 36.2807 33.3805 36.23C33.3094 36.1793 33.229 36.143 33.1439 36.1234C33.0588 36.1037 32.9706 36.101 32.8845 36.1154C32.7983 36.1299 32.7158 36.1611 32.6418 36.2074C32.5677 36.2537 32.5034 36.3141 32.4527 36.3852C32.402 36.4564 32.3657 36.5368 32.3461 36.6219C32.2348 37.1073 32.1788 37.6038 32.1791 38.1018C32.172 38.8652 32.2693 39.6261 32.4685 40.3632L24.229 39.3948H24.215L21.5639 39.0822C21.5579 39.0822 21.5526 39.0822 21.5466 39.0822L18.8914 38.7669ZM22.628 28.5693L25.2107 28.8719H25.2174L39.9963 30.6139C39.6507 31.4011 39.4799 32.2538 39.4954 33.1134C39.49 33.8375 39.6081 34.5573 39.8446 35.2418L25.4495 33.5517C25.2725 32.8656 25.1871 32.1591 25.1954 31.4506C25.1945 31.0344 25.22 30.6185 25.2719 30.2055C25.2831 30.1188 25.2771 30.0308 25.2542 29.9465C25.2314 29.8622 25.1922 29.7832 25.1388 29.714C25.0855 29.6448 25.019 29.5868 24.9432 29.5434C24.8675 29.4999 24.7839 29.4717 24.6972 29.4606C24.6106 29.4494 24.5226 29.4554 24.4383 29.4782C24.3539 29.501 24.2749 29.5402 24.2057 29.5936C24.1366 29.647 24.0786 29.7134 24.0351 29.7892C23.9916 29.865 23.9635 29.9486 23.9523 30.0352C23.8932 30.5047 23.8641 30.9774 23.8652 31.4506C23.8632 32.1005 23.924 32.7492 24.0467 33.3874L22.5622 33.2132C22.2987 32.4318 22.1768 31.6097 22.2024 30.7855C22.2016 30.0264 22.3461 29.2741 22.628 28.5693ZM41.4908 30.7855C41.517 30.7856 41.5432 30.784 41.5693 30.7808L56.4679 28.995C56.2335 29.678 56.117 30.3959 56.1234 31.118C56.1075 31.9794 56.2793 32.8339 56.6269 33.6222L41.4981 35.4353C41.3052 35.3588 40.8257 34.5587 40.8257 33.1134C40.8257 31.6548 41.3179 30.8453 41.4908 30.7855ZM36.6354 40.85C36.4288 40.1753 36.3278 39.4726 36.3361 38.7669C36.2892 37.8928 36.4563 37.0204 36.823 36.2255L39.9983 36.5979C39.6513 37.3855 39.4798 38.239 39.4954 39.0995C39.49 39.8236 39.6081 40.5434 39.8446 41.2278L36.6354 40.85ZM41.5001 41.422C41.3059 41.3456 40.8257 40.5454 40.8257 39.0995C40.8257 37.6408 41.3179 36.8314 41.4908 36.7715C41.5173 36.7717 41.5437 36.7701 41.5699 36.7669L56.4686 34.981C56.2339 35.664 56.1172 36.382 56.1234 37.1041C56.1104 37.9661 56.2875 38.8205 56.6422 39.6063L41.5001 41.422ZM34.406 26.2627C35.1361 26.1762 35.874 26.1762 36.6042 26.2627L52.4872 28.1303L41.4908 29.4506L25.373 27.551H25.3663L24.5223 27.4519L34.406 26.2627ZM18.8681 28.125L21.2679 28.4063C21.0063 29.1723 20.8726 29.9761 20.8721 30.7855C20.8659 31.544 20.9492 32.3006 21.1202 33.0396L18.8914 32.7808C18.7039 32.721 18.2117 31.9115 18.2117 30.4529C18.2117 29.0176 18.6879 28.2115 18.8681 28.1283V28.125ZM18.8768 48.0785C18.4112 48.0785 17.5465 46.5634 17.5465 44.0878C17.5465 41.6269 18.3966 40.1197 18.8668 40.1005L20.3793 40.278C19.799 41.641 19.518 43.1125 19.5552 44.5933C19.5402 45.8221 19.7219 47.0455 20.0933 48.2169L18.9546 48.0839C18.9288 48.0804 18.9028 48.0786 18.8768 48.0785ZM50.0043 50.34C49.9396 50.2518 49.8538 50.1813 49.7548 50.1349C49.6558 50.0884 49.5468 50.0674 49.4376 50.0739C49.3294 50.0801 49.2244 50.1127 49.1316 50.1688C49.0389 50.2249 48.9613 50.3029 48.9055 50.3958L48.142 51.6635V45.9581L50.8025 45.6376V51.4041L50.0043 50.34ZM52.1327 49.4573V45.4773L52.5504 45.4267C52.7256 45.4058 52.8854 45.3161 52.9946 45.1774C53.1037 45.0387 53.1533 44.8624 53.1324 44.6871C53.1115 44.5119 53.0218 44.3521 52.8831 44.2429C52.7444 44.1338 52.568 44.0842 52.3927 44.1051L51.3951 44.2262H51.3904L47.3997 44.7051C47.3924 44.7051 47.3864 44.7104 47.3791 44.7111L46.5504 44.8115C46.3821 44.8315 46.2279 44.9149 46.1191 45.0448C46.0103 45.1747 45.9551 45.3411 45.9649 45.5103C45.9746 45.6794 46.0486 45.8384 46.1716 45.9549C46.2946 46.0714 46.4574 46.1365 46.6268 46.1371C46.6531 46.1372 46.6793 46.1356 46.7053 46.1324L46.8117 46.1191V50.0959L41.4908 50.7344L41.4323 50.7277C40.9733 50.6166 40.1606 49.1979 40.1606 46.7483C40.1606 44.2727 41.0252 42.7576 41.4908 42.7576C41.5173 42.7577 41.5437 42.7562 41.5699 42.7529L56.1899 41.0004C55.6857 42.1861 55.4364 43.4646 55.4583 44.753C55.4101 46.2089 55.7399 47.6525 56.4154 48.9432L52.1327 49.4573Z" fill="white"/>
</g>
<defs>
<clipPath id="clip0_2771_3769">
<rect width="42.5676" height="42.5676" fill="white" transform="translate(16.2163 12.1622)"/>
</clipPath>
</defs>
</svg>
