<svg width="75" height="75" viewBox="0 0 75 75" fill="none" xmlns="http://www.w3.org/2000/svg">
<rect x="1" y="1" width="73" height="73" rx="36.5" fill="#127AD4" stroke="#E3EFFF" stroke-width="2"/>
<path fill-rule="evenodd" clip-rule="evenodd" d="M33.5841 18.4402C25.9653 18.4402 19.7891 24.6164 19.7891 32.2352C19.7891 39.854 25.9653 46.0303 33.5841 46.0303C37.0388 46.0303 40.1969 44.7603 42.6171 42.6619L44.2073 44.2521C43.6825 45.3508 43.875 46.7066 44.7851 47.6167L50.933 53.7646C52.0874 54.919 53.959 54.919 55.1134 53.7646C56.2679 52.6101 56.2679 50.7385 55.1134 49.5841L48.9656 43.4362C48.0555 42.5261 46.6996 42.3336 45.6008 42.8584L44.0106 41.2684C46.1092 38.8482 47.3792 35.6901 47.3792 32.2352C47.3792 24.6164 41.2029 18.4402 33.5841 18.4402ZM21.7598 32.2352C21.7598 25.7048 27.0537 20.4109 33.5841 20.4109C40.1145 20.4109 45.4084 25.7048 45.4084 32.2352C45.4084 38.7656 40.1145 44.0596 33.5841 44.0596C27.0537 44.0596 21.7598 38.7656 21.7598 32.2352ZM53.7199 50.9776L47.5721 44.8297C47.1874 44.445 46.5635 44.445 46.1786 44.8297C45.7939 45.2146 45.7939 45.8385 46.1786 46.2232L52.3265 52.3711C52.7113 52.756 53.3351 52.756 53.7199 52.3711C54.1048 51.9864 54.1048 51.3625 53.7199 50.9776Z" fill="white"/>
</svg>
