<svg width="28" height="28" viewBox="0 0 28 28" fill="none" xmlns="http://www.w3.org/2000/svg">
<g clip-path="url(#clip0_1_2025)">
<path d="M15.9769 14.8436C18.1181 14.7584 20.175 14.6242 22.1458 13.8866C25.0375 12.8038 26.8035 10.6503 27.9413 7.88683C28.097 7.51016 27.9274 7.13905 27.5883 7.00023C27.2529 6.86141 26.8721 7.00023 26.6877 7.35191C26.5376 7.63788 26.4069 7.93495 26.2819 8.23388C26.1494 8.55039 26.0206 8.63831 25.7334 8.34679C24.2287 6.81977 22.7091 5.30848 21.1924 3.79349C21.0729 3.6741 20.9561 3.54361 20.8162 3.45384C20.5105 3.25764 20.1889 3.25857 19.9277 3.5214C19.6784 3.77128 19.6775 4.08131 19.8674 4.36913C19.9675 4.52091 20.112 4.64399 20.2427 4.77448C21.8243 6.35518 23.4013 7.94143 24.9958 9.5101C25.2543 9.7646 25.2664 9.94969 25.0208 10.1959C24.7271 10.4902 24.439 10.7909 24.1638 11.1028C23.9479 11.3462 23.7932 11.3194 23.568 11.0908C22.3672 9.8701 21.1507 8.66607 19.9397 7.45556C19.8739 7.38985 19.8109 7.32322 19.7433 7.25936C19.3791 6.91509 19.0076 6.87344 18.7185 7.14275C18.422 7.41947 18.4461 7.91367 18.7852 8.25702C19.305 8.78361 19.8322 9.30279 20.3557 9.82661C21.0099 10.4809 21.6566 11.1417 22.3181 11.7877C22.5859 12.0496 22.6054 12.1884 22.2227 12.3707C20.6865 13.1028 20.693 13.1139 19.5265 11.9348C19.028 11.4304 18.524 10.9307 18.0208 10.4319C17.9337 10.3449 17.8411 10.2616 17.741 10.1903C17.4399 9.97653 17.1202 9.96265 16.8516 10.2172C16.5643 10.4902 16.5597 10.8418 16.808 11.1352C17.1453 11.535 17.5261 11.8978 17.8902 12.2745C18.1042 12.4957 18.3247 12.7113 18.5388 12.9343C18.6101 13.0093 18.7352 13.075 18.6972 13.1962C18.65 13.3434 18.498 13.3138 18.3803 13.3239C17.4733 13.3998 16.5643 13.4406 15.6535 13.4443C15.4349 13.4452 15.1226 13.3637 15.0476 13.6432C14.9531 13.994 14.9373 14.3762 15.067 14.7334C15.105 14.838 15.2459 14.8426 15.3552 14.8436C15.5868 14.8463 15.8185 14.8436 15.9769 14.8436Z" fill="white"/>
<path d="M20.3353 0C20.2177 0.0370187 20.0509 0.0731119 19.8971 0.140671C17.3111 1.26789 15.269 2.95872 14.1896 5.64442C13.5846 7.15016 13.3483 8.72993 13.2343 10.3356C13.1111 12.0764 13.1843 13.82 13.1278 15.5608C13.0694 17.3636 12.9276 19.1572 12.4199 20.9081C11.7417 23.2459 10.3963 25.1098 8.50991 26.6127C8.46173 26.6516 8.40892 26.684 8.36167 26.7238C8.01699 27.0135 7.94102 27.4336 8.17821 27.7427C8.40614 28.0407 8.81104 28.0963 9.17331 27.8297C9.84505 27.3355 10.4677 26.7802 11.0319 26.1639C13.0277 23.9816 13.9728 21.3542 14.3054 18.464C14.5472 16.3604 14.5055 14.2466 14.5584 12.1366C14.6 10.4698 14.6871 8.81507 15.1245 7.18995C15.7647 4.81335 17.2129 3.10494 19.3513 1.94533C19.7989 1.70286 20.2686 1.50111 20.7161 1.25956C21.008 1.10223 21.1164 0.829218 21.0284 0.511783C20.9422 0.197124 20.718 0.0259131 20.3363 0.000925467L20.3353 0Z" fill="white"/>
<path d="M11.6962 13.5183C8.89158 13.6423 6.16755 14.0791 3.70945 15.558C2.3289 16.3891 1.18555 17.4811 0.211763 18.7546C-0.0939952 19.1544 -0.0615662 19.5838 0.25531 19.8272C0.559215 20.0613 1.03268 19.9892 1.30044 19.5884C1.57007 19.184 1.74518 19.2784 2.02963 19.5671C3.58066 21.1377 5.14651 22.6924 6.70958 24.25C7.21639 24.7553 7.61851 24.8405 7.95021 24.5276C8.30322 24.1954 8.22169 23.7984 7.688 23.2644C6.09528 21.6707 4.50627 20.0734 2.90243 18.4908C2.63188 18.2243 2.62817 18.0642 2.93949 17.8476C3.25544 17.6283 3.56027 17.3877 3.84009 17.1239C4.12268 16.8574 4.32652 16.9342 4.56742 17.1785C5.47728 18.1003 6.39733 19.0109 7.31461 19.9253C7.60925 20.2187 7.90018 20.5167 8.20409 20.8017C8.53208 21.1099 8.93049 21.1266 9.19919 20.86C9.47066 20.5907 9.46418 20.14 9.15193 19.8244C8.08827 18.749 7.01811 17.681 5.94611 16.6149C5.50693 16.1781 5.50878 16.1457 6.06563 15.9254C7.1188 15.509 8.03206 15.7064 8.80541 16.5177C9.16768 16.8962 9.54108 17.2646 9.91633 17.6311C10.3351 18.0401 10.7521 18.0994 11.0615 17.8069C11.3589 17.5256 11.3052 17.0739 10.9124 16.6723C10.4917 16.2419 10.0618 15.8218 9.63744 15.3951C9.57444 15.3313 9.47252 15.2721 9.49568 15.1721C9.52718 15.0361 9.66153 15.0573 9.76345 15.049C10.5788 14.9861 11.3932 14.9056 12.2095 14.876C12.5644 14.863 12.6533 14.7381 12.645 14.4058C12.62 13.4137 12.7386 13.509 11.6971 13.5183H11.6962Z" fill="white"/>
</g>
<defs>
<clipPath id="clip0_1_2025">
<rect width="28" height="28" fill="white" transform="matrix(-1 0 0 1 28 0)"/>
</clipPath>
</defs>
</svg>
