<svg width="75" height="76" viewBox="0 0 75 76" fill="none" xmlns="http://www.w3.org/2000/svg">
<rect x="1" y="1.26168" width="73" height="73.7009" rx="36.5" fill="#127AD4" stroke="#E3EFFF" stroke-width="2"/>
<path d="M11.6299 42.6598C16.8023 37.2951 24.1476 33.9389 32.2813 33.9389C40.4149 33.9389 47.7602 37.2951 52.9356 42.6598H54.9483C49.4735 36.4213 41.3427 32.4577 32.2813 32.4577C23.2198 32.4577 15.092 36.4213 9.61719 42.6598H11.6299Z" fill="white"/>
<path d="M17.0127 42.6598C22.1881 37.2951 29.5304 33.9388 37.6641 33.9388C45.7978 33.9388 53.143 37.2951 58.3184 42.6598H60.3311C54.8563 36.4212 46.7255 32.4577 37.6641 32.4577C28.6026 32.4577 20.4748 36.4212 15 42.6598H17.0127Z" fill="white"/>
<path d="M22.2206 42.6598C27.3961 37.2951 34.7413 33.9388 42.875 33.9388C51.0087 33.9388 58.3539 37.2951 63.5294 42.6598H65.542C60.0643 36.4212 51.9365 32.4577 42.875 32.4577C33.8135 32.4577 25.6858 36.4212 20.2109 42.6598H22.2236H22.2206Z" fill="white"/>
</svg>
