<svg width="46" height="9" viewBox="0 0 46 9" fill="none" xmlns="http://www.w3.org/2000/svg">
<path d="M1.65278 8.37787C5.90037 3.97243 11.9322 1.2163 18.6115 1.2163C25.2908 1.2163 31.3226 3.97243 35.5726 8.37787H37.2254C32.7295 3.25482 26.0527 0 18.6115 0C11.1703 0 4.49587 3.25482 0 8.37787H1.65278Z" fill="white"/>
<path d="M6.0732 8.37787C10.3232 3.97243 16.3526 1.2163 23.0319 1.2163C29.7112 1.2163 35.743 3.97243 39.993 8.37787H41.6458C37.1499 3.25482 30.4731 0 23.0319 0C15.5907 0 8.91628 3.25482 4.42041 8.37787H6.0732Z" fill="white"/>
<path d="M10.3501 8.37787C14.6001 3.97243 20.6319 1.2163 27.3112 1.2163C33.9905 1.2163 40.0223 3.97243 44.2723 8.37787H45.9251C41.4268 3.25482 34.7524 0 27.3112 0C19.87 0 13.1956 3.25482 8.69971 8.37787H10.3525H10.3501Z" fill="white"/>
</svg>
