<svg width="75" height="75" viewBox="0 0 75 75" fill="none" xmlns="http://www.w3.org/2000/svg">
<rect x="1" y="1" width="73" height="73" rx="36.5" fill="#127AD4" stroke="#E3EFFF" stroke-width="2"/>
<path d="M23.3242 22.9729L37.8421 37.2324V37.2865L37.8683 37.2594L37.8945 37.2865V37.2324L37.8683 34.6638L25.961 22.9729H23.3242Z" fill="white"/>
<path d="M28.8008 22.9729L37.8516 31.8628V31.8952L37.8673 31.879L37.883 31.8952V31.8628L37.8673 30.2622L30.4488 22.9729H28.8008Z" fill="white"/>
<path d="M23.7422 27.7802L37.8468 41.6341L37.873 39.1412L26.3057 27.7802H23.7422Z" fill="white"/>
<path d="M37.8952 51.3513V49.4749H37.869C30.1157 49.4749 23.8115 42.9535 23.8115 34.9397C23.8115 33.3553 24.0626 31.8358 24.5178 30.4028L23.1 28.9374C22.3885 30.7975 21.9961 32.8199 21.9961 34.9397C21.9961 43.9918 29.1164 51.3513 37.8743 51.3513H37.9004H37.8952Z" fill="white"/>
<path d="M49.7693 22.9729L37.8672 34.6692L37.8933 37.2324L52.4113 22.9729H49.7693Z" fill="white"/>
<path d="M45.2857 22.9729L37.8672 30.2622L37.8829 31.8628L46.9285 22.9729H45.2857Z" fill="white"/>
<path d="M49.4372 27.7802L37.8699 39.1412L37.8438 41.6341V41.6827L37.8699 41.6611L37.8961 41.6827V41.6341L52.0007 27.7802H49.4372Z" fill="white"/>
<path d="M52.6466 28.9374L51.2288 30.4028C51.6839 31.8304 51.935 33.3553 51.935 34.9397C51.935 42.9427 45.6413 49.4587 37.8984 49.4749V51.3513C46.6406 51.3351 53.7504 43.9809 53.7504 34.9397C53.7504 32.8199 53.3581 30.7975 52.6466 28.9374Z" fill="white"/>
</svg>
