<svg width="50" height="50" viewBox="0 0 50 50" fill="none" xmlns="http://www.w3.org/2000/svg">
<rect width="50" height="50" rx="6" fill="#0060B2"/>
<path d="M30.8342 15H19.23C18.2849 15 17.4551 15.7775 17.4551 16.6977V33.8638C17.4551 34.1719 17.5408 34.4286 17.679 34.627C17.8442 34.8641 18.1103 35 18.3956 34.9999C18.6654 34.9999 18.9526 34.8798 19.2178 34.6533L24.4095 30.2453C24.5699 30.1083 24.8002 30.0299 25.0397 30.0299C25.279 30.0299 25.5089 30.1083 25.6697 30.2457L30.8441 34.6526C31.1102 34.8798 31.3776 35 31.6469 35C32.1023 35 32.5461 34.6488 32.5461 33.8639V16.6977C32.5461 15.7775 31.7792 15 30.8342 15Z" fill="white"/>
</svg>
