<svg width="50" height="50" viewBox="0 0 50 50" fill="none" xmlns="http://www.w3.org/2000/svg">
<rect width="50" height="50" rx="6" fill="#127AD4"/>
<path d="M31.3791 14H19.7749C18.8298 14 18 14.7775 18 15.6977V32.8638C18 33.1719 18.0857 33.4286 18.2239 33.627C18.3892 33.8641 18.6552 34 18.9406 33.9999C19.2103 33.9999 19.4975 33.8798 19.7627 33.6533L24.9544 29.2453C25.1148 29.1083 25.3451 29.0299 25.5846 29.0299C25.824 29.0299 26.0538 29.1083 26.2146 29.2457L31.389 33.6526C31.6551 33.8798 31.9225 34 32.1918 34C32.6472 34 33.0911 33.6488 33.0911 32.8639V15.6977C33.0911 14.7775 32.3242 14 31.3791 14Z" fill="white"/>
</svg>
