<svg width="31" height="31" viewBox="0 0 31 31" fill="none" xmlns="http://www.w3.org/2000/svg">
<g clip-path="url(#clip0_1794_6427)">
<path d="M30.1865 23.9152L23.912 19.7308C23.1158 19.2041 22.0484 19.3774 21.4598 20.1291L19.6321 22.4791C19.3972 22.7888 18.9702 22.8786 18.6304 22.6899L18.2827 22.4982C17.1302 21.87 15.6962 21.0879 12.8069 18.1976C9.9176 15.3073 9.13394 13.8722 8.50574 12.7218L8.3151 12.3741C8.12374 12.0343 8.21188 11.6056 8.52172 11.3688L10.8701 9.54163C11.6215 8.9529 11.7951 7.88586 11.2689 7.08937L7.08455 0.814856C6.54534 0.00376887 5.46352 -0.239715 4.62877 0.262084L2.005 1.83819C1.18059 2.32285 0.575757 3.10779 0.31732 4.02851C-0.627495 7.47106 0.0832802 13.4124 8.83536 22.1655C15.7975 29.127 20.9804 30.9992 24.5428 30.9992C25.3627 31.0027 26.1793 30.896 26.9708 30.682C27.8917 30.4239 28.6768 29.819 29.1611 28.9943L30.7388 26.3721C31.2413 25.5372 30.998 24.4547 30.1865 23.9152ZM29.8487 25.8421L28.2746 28.4658C27.9268 29.061 27.3622 29.4987 26.699 29.6871C23.5209 30.5596 17.9687 29.8369 9.5663 21.4345C1.16394 13.0322 0.441302 7.48038 1.31383 4.30184C1.50247 3.63786 1.94064 3.07249 2.53658 2.72416L5.16035 1.15011C5.52255 0.932178 5.99208 1.03782 6.22606 1.38978L8.49908 4.80236L10.4069 7.66375C10.6353 8.00924 10.5603 8.47229 10.2343 8.72795L7.8854 10.5551C7.17057 11.1017 6.96644 12.0907 7.40655 12.8756L7.59307 13.2145C8.25329 14.4254 9.07413 15.9318 12.0709 18.928C15.0676 21.9242 16.5735 22.7451 17.7838 23.4053L18.1232 23.5923C18.9081 24.0323 19.8972 23.8283 20.4437 23.1134L22.2709 20.7645C22.5266 20.4388 22.9895 20.3638 23.3351 20.592L29.6091 24.7764C29.9613 25.0102 30.0669 25.4799 29.8487 25.8421Z" fill="#FC7900"/>
<path d="M17.5659 5.16937C22.4138 5.17476 26.3425 9.10349 26.3479 13.9514C26.3479 14.2367 26.5792 14.468 26.8645 14.468C27.1498 14.468 27.3811 14.2367 27.3811 13.9514C27.3751 8.5331 22.9842 4.14216 17.5659 4.13623C17.2806 4.13623 17.0493 4.36749 17.0493 4.6528C17.0493 4.93812 17.2806 5.16937 17.5659 5.16937Z" fill="#FC7900"/>
<path d="M17.5659 8.26898C20.7027 8.27267 23.2447 10.8147 23.2484 13.9515C23.2484 14.2368 23.4797 14.4681 23.765 14.4681C24.0503 14.4681 24.2815 14.2368 24.2815 13.9515C24.2772 10.2443 21.273 7.24008 17.5659 7.23584C17.2806 7.23584 17.0493 7.46709 17.0493 7.75241C17.0493 8.03773 17.2806 8.26898 17.5659 8.26898Z" fill="#FC7900"/>
<path d="M17.5659 11.3686C18.9917 11.3703 20.1471 12.5257 20.1489 13.9516C20.1489 14.2369 20.3802 14.4681 20.6654 14.4681C20.9507 14.4681 21.182 14.2369 21.182 13.9516C21.1797 11.9554 19.5621 10.3377 17.5659 10.3354C17.2806 10.3354 17.0493 10.5667 17.0493 10.852C17.0493 11.1373 17.2806 11.3686 17.5659 11.3686Z" fill="#FC7900"/>
</g>
<defs>
<clipPath id="clip0_1794_6427">
<rect width="31" height="31" fill="white"/>
</clipPath>
</defs>
</svg>
