<svg width="37" height="30" viewBox="0 0 37 30" fill="none" xmlns="http://www.w3.org/2000/svg">
<path id="Vector" d="M36.9825 16.3643C37.0415 17.7483 36.5388 19.0988 35.5846 20.1194C34.6305 21.1401 33.3027 21.7476 31.8928 21.8087C31.8103 21.8125 31.728 21.8143 31.6459 21.8143C31.2712 21.8141 30.8977 21.7743 30.5318 21.6957C29.4459 23.3412 28.0221 24.7462 26.3513 25.8207C24.6806 26.8953 22.7998 27.6157 20.8291 27.936C20.5961 28.6081 20.1311 29.1791 19.5145 29.5504C18.898 29.9217 18.1686 30.0698 17.4526 29.9693C16.7365 29.8688 16.0788 29.5259 15.593 28.9998C15.1072 28.4738 14.824 27.7977 14.7922 27.0884C14.7604 26.3791 14.9822 25.6812 15.419 25.1154C15.8559 24.5496 16.4805 24.1513 17.1848 23.9895C17.8891 23.8277 18.6288 23.9125 19.2762 24.2292C19.9235 24.5459 20.4378 25.0747 20.7301 25.7242C23.5045 25.2205 26.0108 23.7773 27.8124 21.6461C29.6139 19.5148 30.5963 16.8307 30.5884 14.0614C30.5884 7.51907 25.1656 2.19652 18.5 2.19652C11.8344 2.19652 6.41156 7.51907 6.41156 14.0614C6.41119 16.0844 6.93795 18.0739 7.94176 19.8408C7.97579 19.8991 8.00132 19.9618 8.01763 20.027C8.11459 20.2915 8.10422 20.5825 7.98868 20.8397C7.87314 21.0969 7.66126 21.3007 7.39691 21.4089C6.74959 21.6762 6.05436 21.8139 5.35205 21.8138C5.2694 21.8138 5.18657 21.8119 5.10357 21.8082C3.6942 21.7464 2.36732 21.1385 1.41389 20.1179C0.460454 19.0973 -0.0417214 17.7472 0.017473 16.3637C0.0412694 15.812 0.0279912 15.3198 0.0150113 14.8438C0.00292656 14.3957 -0.0096803 13.9322 0.0110577 13.4486C0.072949 12.0978 0.66497 10.8228 1.66312 9.89084C2.66128 8.95885 3.98813 8.44209 5.36578 8.44878C7.57803 3.48083 12.6322 0 18.5 0C24.3678 0 29.422 3.48083 31.6343 8.44886C33.0121 8.44115 34.3394 8.95746 35.3377 9.88948C36.336 10.8215 36.9278 12.0968 36.9889 13.4478C37.0097 13.9321 36.9972 14.3955 36.9849 14.8437C36.9721 15.3197 36.9587 15.8122 36.9825 16.3643ZM27.8847 14.0614C27.8841 15.4726 27.5534 16.8647 26.9179 18.1306C26.2825 19.3964 25.3593 20.5021 24.2196 21.3624C23.0799 22.2226 21.7542 22.8145 20.3446 23.0923C18.9349 23.3701 17.4792 23.3264 16.0895 22.9647L12.2909 25.1178C12.0993 25.2264 11.8791 25.2768 11.6582 25.2626C11.4374 25.2484 11.2258 25.1703 11.0502 25.038C10.8746 24.9058 10.7429 24.7254 10.6718 24.5197C10.6006 24.314 10.5932 24.0922 10.6505 23.8824L11.6213 20.3278C10.0136 18.6222 9.11908 16.385 9.1157 14.0614C9.1157 8.981 13.3253 4.84817 18.5 4.84817C23.6747 4.84817 27.8847 8.981 27.8847 14.0614ZM15.891 14.0614C15.891 13.7701 15.7731 13.4908 15.5632 13.2848C15.3534 13.0789 15.0688 12.9632 14.772 12.9632H14.7702C14.5489 12.9636 14.3328 13.0283 14.1491 13.1492C13.9653 13.2702 13.8222 13.4418 13.7379 13.6425C13.6535 13.8433 13.6316 14.064 13.675 14.2769C13.7185 14.4898 13.8252 14.6853 13.9818 14.8387C14.1383 14.9921 14.3377 15.0965 14.5547 15.1387C14.7717 15.1809 14.9966 15.1591 15.2009 15.0759C15.4053 14.9927 15.5799 14.8519 15.7028 14.6714C15.8256 14.4908 15.8912 14.2785 15.8912 14.0614H15.891ZM19.6192 14.0614C19.6191 14.0255 19.6171 13.9895 19.6132 13.9538C19.6097 13.9179 19.6042 13.8822 19.5969 13.8469C19.5902 13.8117 19.5812 13.777 19.5699 13.7429C19.5596 13.7085 19.5469 13.6748 19.5335 13.6411C19.52 13.6075 19.5036 13.576 19.4865 13.5445C19.4694 13.5128 19.4508 13.482 19.4305 13.4522C19.4101 13.4221 19.3882 13.3931 19.3648 13.3651C19.3418 13.3371 19.3172 13.3105 19.291 13.2853C19.2657 13.2597 19.2381 13.2355 19.2097 13.2121C19.1813 13.1901 19.1515 13.1682 19.1209 13.1484C19.0905 13.1285 19.0592 13.1102 19.027 13.0935C18.9948 13.0766 18.9613 13.0613 18.9277 13.0474C18.8941 13.0335 18.8597 13.0216 18.8248 13.0115C18.755 12.9895 18.683 12.9752 18.61 12.969C18.5004 12.9587 18.3898 12.9638 18.2817 12.9844C18.2457 12.9916 18.2102 13.0006 18.1751 13.0115C18.1402 13.0215 18.1058 13.0335 18.0722 13.0474C18.0386 13.0613 18.0051 13.0766 17.973 13.0935C17.9409 13.1103 17.9096 13.1286 17.8789 13.1484C17.8482 13.1682 17.8185 13.1901 17.791 13.2121C17.7619 13.2355 17.735 13.2597 17.7089 13.2853C17.6827 13.3105 17.658 13.3371 17.635 13.3651C17.6119 13.3931 17.5902 13.4221 17.5702 13.4522C17.5496 13.482 17.5307 13.5128 17.5135 13.5445C17.4962 13.5759 17.4808 13.6081 17.4671 13.6411C17.453 13.6744 17.4405 13.7084 17.4298 13.7429C17.4195 13.7766 17.4105 13.8117 17.4031 13.8469C17.3957 13.8822 17.3902 13.9179 17.3866 13.9538C17.3829 13.9897 17.3813 14.0255 17.3813 14.0614C17.3813 14.0973 17.3829 14.1339 17.3866 14.1698C17.3902 14.2054 17.3957 14.2408 17.4031 14.2759C17.4105 14.3111 17.4195 14.3462 17.4298 14.3806C17.4405 14.4149 17.453 14.4486 17.4671 14.4817C17.4808 14.5149 17.4962 14.5474 17.5135 14.5791C17.5305 14.6105 17.55 14.6413 17.5702 14.6713C17.5902 14.7012 17.6119 14.73 17.635 14.7577C17.6582 14.7858 17.6829 14.8126 17.7089 14.8383C17.735 14.8631 17.7619 14.888 17.791 14.9107C17.819 14.9336 17.8484 14.9549 17.8789 14.9744C17.9096 14.9942 17.9408 15.0132 17.973 15.0301C18.0378 15.0632 18.1054 15.0907 18.1751 15.1121C18.2101 15.1223 18.2459 15.1311 18.2817 15.1384C18.3536 15.1529 18.4269 15.16 18.5003 15.1597C18.7967 15.1589 19.0809 15.0434 19.291 14.8383C19.3426 14.7869 19.3893 14.731 19.4305 14.6713C19.4507 14.6413 19.4693 14.6105 19.4865 14.5791C19.5036 14.5476 19.5193 14.5146 19.5335 14.4817C19.5476 14.4487 19.5596 14.4143 19.5699 14.3806C19.5811 14.3463 19.5901 14.3114 19.5969 14.2759C19.6042 14.2409 19.6096 14.2054 19.6132 14.1698C19.617 14.1337 19.6189 14.0975 19.619 14.0613L19.6192 14.0614ZM23.349 14.0614C23.349 13.7701 23.2311 13.4908 23.0213 13.2848C22.8115 13.0789 22.5268 12.9632 22.2301 12.9632H22.2279C22.0067 12.9636 21.7906 13.0283 21.6068 13.1493C21.4231 13.2702 21.28 13.4419 21.1957 13.6426C21.1113 13.8433 21.0895 14.0641 21.1329 14.277C21.1763 14.4899 21.283 14.6854 21.4396 14.8387C21.5962 14.9921 21.7956 15.0965 22.0126 15.1387C22.2296 15.1809 22.4544 15.1591 22.6588 15.0759C22.8631 14.9927 23.0377 14.8519 23.1606 14.6714C23.2835 14.4908 23.349 14.2785 23.349 14.0614Z" fill="#FF7F22"/>
</svg>
