<svg width="21" height="19" viewBox="0 0 21 19" fill="none" xmlns="http://www.w3.org/2000/svg">
<path d="M20.9954 16.2825V12.8546C20.9954 12.6273 20.9051 12.4094 20.7444 12.2487C20.5837 12.0879 20.3657 11.9977 20.1384 11.9977C19.9111 11.9977 19.6931 12.0879 19.5324 12.2487C19.3717 12.4094 19.2814 12.6273 19.2814 12.8546V16.2825C19.2814 16.5098 19.1911 16.7278 19.0304 16.8885C18.8697 17.0492 18.6517 17.1395 18.4245 17.1395H2.9989C2.77162 17.1395 2.55364 17.0492 2.39293 16.8885C2.23222 16.7278 2.14193 16.5098 2.14193 16.2825V12.8546C2.14193 12.6273 2.05164 12.4094 1.89093 12.2487C1.73021 12.0879 1.51224 11.9977 1.28495 11.9977C1.05767 11.9977 0.839695 12.0879 0.678981 12.2487C0.518267 12.4094 0.427979 12.6273 0.427979 12.8546V16.2825C0.427979 16.9644 0.698843 17.6183 1.18099 18.1004C1.66313 18.5826 2.31705 18.8535 2.9989 18.8535H18.4245C19.1063 18.8535 19.7602 18.5826 20.2424 18.1004C20.7245 17.6183 20.9954 16.9644 20.9954 16.2825ZM15.5279 11.8091L11.243 15.237C11.0917 15.3566 10.9045 15.4216 10.7117 15.4216C10.5188 15.4216 10.3317 15.3566 10.1804 15.237L5.89548 11.8091C5.73935 11.6617 5.64423 11.4611 5.62893 11.247C5.61363 11.0328 5.67928 10.8207 5.81287 10.6527C5.94646 10.4846 6.13827 10.3728 6.35035 10.3394C6.56243 10.306 6.77933 10.3534 6.95813 10.4722L9.8547 12.7861V0.856975C9.8547 0.629691 9.94499 0.411716 10.1057 0.251002C10.2664 0.0902883 10.4844 0 10.7117 0C10.939 0 11.1569 0.0902883 11.3177 0.251002C11.4784 0.411716 11.5687 0.629691 11.5687 0.856975V12.7861L14.4652 10.4722C14.5515 10.3908 14.6538 10.3281 14.7656 10.2883C14.8773 10.2484 14.9962 10.2322 15.1145 10.2406C15.2329 10.2491 15.3482 10.282 15.4532 10.3374C15.5582 10.3927 15.6505 10.4693 15.7243 10.5622C15.7982 10.6551 15.8519 10.7623 15.8822 10.877C15.9124 10.9918 15.9185 11.1116 15.9 11.2288C15.8815 11.346 15.8389 11.4581 15.7749 11.558C15.7108 11.6579 15.6267 11.7434 15.5279 11.8091Z" fill="#7C7C7C"/>
</svg>
