<svg width="32" height="19" viewBox="0 0 32 19" fill="none" xmlns="http://www.w3.org/2000/svg">
<path d="M29.1556 0H7.11111C5.54667 0 4.26667 1.31538 4.26667 2.92308V4.01923C4.26667 4.42115 4.58667 4.75 4.97778 4.75C5.36889 4.75 5.68889 4.42115 5.68889 4.01923V2.92308C5.68889 2.77692 5.72444 2.63077 5.76 2.48462L13.7244 9.5L5.76 16.5154C5.72444 16.3692 5.68889 16.2231 5.68889 16.0769V14.9808C5.68889 14.5788 5.36889 14.25 4.97778 14.25C4.58667 14.25 4.26667 14.5788 4.26667 14.9808V16.0769C4.26667 17.6846 5.54667 19 7.11111 19H29.1556C30.72 19 32 17.6846 32 16.0769V2.92308C32 1.31538 30.72 0 29.1556 0ZM6.82667 1.49808C6.89778 1.46154 7.00444 1.46154 7.11111 1.46154H29.1556C29.2622 1.46154 29.3689 1.46154 29.44 1.49808L18.5956 11.0346C18.3111 11.2538 17.9556 11.2538 17.6711 11.0346L6.82667 1.49808ZM29.1556 17.5385H7.11111C7.00444 17.5385 6.89778 17.5385 6.82667 17.5019L14.8267 10.45L16.7467 12.1673C17.1378 12.5327 17.6356 12.7154 18.1333 12.7154C18.6311 12.7154 19.1289 12.5327 19.52 12.1673L21.44 10.45L29.44 17.5019C29.3689 17.5385 29.2622 17.5385 29.1556 17.5385ZM30.5778 16.0769C30.5778 16.2231 30.5422 16.3692 30.5067 16.5154L22.5422 9.5L30.5067 2.48462C30.5422 2.63077 30.5778 2.77692 30.5778 2.92308V16.0769ZM2.13333 7.67308C2.13333 7.27115 2.45333 6.94231 2.84444 6.94231H7.11111C7.50222 6.94231 7.82222 7.27115 7.82222 7.67308C7.82222 8.075 7.50222 8.40385 7.11111 8.40385H2.84444C2.45333 8.40385 2.13333 8.075 2.13333 7.67308ZM7.11111 12.0577H0.711111C0.32 12.0577 0 11.7288 0 11.3269C0 10.925 0.32 10.5962 0.711111 10.5962H7.11111C7.50222 10.5962 7.82222 10.925 7.82222 11.3269C7.82222 11.7288 7.50222 12.0577 7.11111 12.0577Z" fill="#7C7C7C"/>
</svg>
