<svg width="35" height="35" viewBox="0 0 35 35" fill="none" xmlns="http://www.w3.org/2000/svg">
<path d="M17.5099 0C6.01237 0.107953 1.46238 14.7441 10.8402 21.3655C10.7064 21.4652 10.6194 21.6241 10.6194 21.8039V27.4531C10.6194 27.7551 10.8642 28 11.1662 28H13.9329C14.2349 28 14.4797 27.7551 14.4797 27.4531V27.138H15.215C15.3856 27.138 15.5497 27.1933 15.6747 27.292C16.0552 27.5958 16.6961 27.9579 17.5876 27.9579H20.0399C21.1421 27.9579 22.0463 27.1336 22.1488 26.038L22.5387 23.1641C22.5398 23.1553 22.5409 23.1465 22.5416 23.1378C22.5649 22.8686 22.538 22.6042 22.4634 22.353C33.7326 16.8994 30.0445 0.195508 17.5099 0ZM11.7131 26.9062V22.3507H13.3859L13.386 26.9062H11.7131ZM21.4529 23.0315L21.0634 25.9029C21.0622 25.9115 21.0612 25.9202 21.0605 25.929C21.0139 26.4621 20.5752 26.8643 20.0399 26.8643H17.5876C17.0126 26.8643 16.601 26.632 16.3548 26.4356C15.7786 25.9706 15.1685 26.0457 14.4797 26.0443V22.2823C14.8934 22.1668 15.1983 21.8595 15.4207 21.5047C15.5457 21.3073 17.468 18.2599 17.468 18.2599L17.8513 18.4573C18.3015 18.6957 18.4649 19.2311 18.2348 19.682L17.7013 20.6345C17.3885 21.2004 17.8084 21.9293 18.4644 21.9293H20.4316C21.0195 21.9293 21.4971 22.4453 21.4529 23.0315ZM26.2887 17.7201C25.1797 19.3406 23.6634 20.6116 21.8866 21.4148C21.4964 21.0453 20.9688 20.8355 20.4314 20.8355H18.8426L18.9121 20.7113C25.6053 19.7821 28.9463 11.5238 24.7408 6.20643C23.5603 4.66195 21.8867 3.51701 20.028 2.9826C19.7375 2.89909 19.4348 3.06671 19.3513 3.35705C19.2679 3.64733 19.4355 3.9503 19.7258 4.03375C21.3605 4.50384 22.8328 5.5113 23.8718 6.87061C27.3984 11.3157 24.8969 18.2558 19.4266 19.4949C19.5257 18.6863 19.0949 17.8766 18.3736 17.4961L17.5242 17.0572C17.2609 16.9211 16.9405 17.0271 16.7932 17.2792L15.423 19.4505C7.64666 17.2333 7.53777 6.40943 15.2704 4.04075C15.5604 3.95637 15.7271 3.65291 15.6427 3.36284C15.5583 3.07284 15.2548 2.90604 14.9648 2.99053C6.33388 5.62308 6.24305 17.6373 14.8158 20.4128L14.435 21.0162C14.2905 21.2045 14.1775 21.2535 13.9284 21.2569H12.8011C2.81152 16.1485 6.27477 1.25978 17.51 1.09375C25.9258 0.983828 31.1287 10.8464 26.2887 17.7201Z" fill="#0197E8"/>
<path d="M17.5099 5.82935C17.3267 5.82935 17.1558 5.921 17.0545 6.07353L15.3671 8.61223L12.4312 9.43249C12.0618 9.53563 11.9108 9.99735 12.1498 10.2988L14.0428 12.688L13.9157 15.7336C13.8997 16.1168 14.2919 16.4033 14.6526 16.269L17.5099 15.207L20.3672 16.269C20.7275 16.4032 21.1201 16.117 21.1041 15.7336L20.977 12.688L22.87 10.2988C23.1089 9.9973 22.958 9.53563 22.5886 9.43249L19.6527 8.61223L17.9654 6.07353C17.8639 5.921 17.693 5.82935 17.5099 5.82935ZM19.1627 9.61088L21.5018 10.2644L19.9935 12.1681C19.912 12.2709 19.8703 12.3995 19.8757 12.5305L19.977 14.9572L17.7005 14.111C17.5775 14.0653 17.4422 14.0653 17.3194 14.111L15.0428 14.9572L15.1441 12.5305C15.1496 12.3995 15.1078 12.2709 15.0264 12.1681L13.5181 10.2644L15.8572 9.61088C15.9836 9.5756 16.0929 9.49609 16.1655 9.38688L17.5099 7.36415L18.8544 9.38688C18.9269 9.49614 19.0363 9.57566 19.1627 9.61088Z" fill="#0197E8"/>
<path d="M17.0053 3.38512C17.1905 3.83028 17.844 3.82383 18.0192 3.3738C18.2015 2.90557 17.678 2.45276 17.2406 2.70044C17.0039 2.83447 16.9003 3.13351 17.0053 3.38512Z" fill="#0197E8"/>
</svg>
