<svg width="24" height="24" viewBox="0 0 24 24" fill="none" xmlns="http://www.w3.org/2000/svg">
<path d="M15.5477 13.7594C15.5246 14.8248 13.9454 15.6852 12 15.6852C10.0546 15.6852 8.47511 14.8248 8.45207 13.7594C5.47607 14.0316 3.14471 16.5331 3.14471 19.5794C3.14495 22.8079 5.76191 22.8 8.98991 22.8H15.0103C18.2381 22.8 20.8553 22.8079 20.8553 19.5794C20.855 16.5331 18.5249 14.0316 15.5477 13.7594Z" fill="#FC7900"/>
<path d="M7.08744 9.71203C7.21536 9.74635 7.34976 9.76579 7.4892 9.76579H7.76472C7.76592 9.76579 7.76688 9.76555 7.76808 9.76555C8.34624 12.3734 10.0222 14.2593 12 14.2593C13.7758 14.2593 15.3046 12.7358 16.0176 10.5376C16.3529 10.3 16.6306 10.0276 16.835 9.72835C16.8511 9.72499 16.8682 9.72307 16.8845 9.71923C17.5142 9.56371 17.9794 9.02707 17.9794 8.38603V7.30315C17.9794 6.66283 17.5142 6.12547 16.8845 5.97043V5.80243C16.8847 3.26443 14.6861 1.19995 11.9854 1.19995C9.28464 1.19995 7.08744 3.26467 7.08744 5.80267V5.97715C6.47232 6.14155 6.02112 6.67243 6.02112 7.30339V8.38603C6.02112 9.01699 6.47232 9.54787 7.08744 9.71203ZM12 13.5753C10.021 13.5753 8.38608 11.4259 8.12928 8.63803C8.30328 8.68171 8.51712 8.76619 8.74992 8.92867C8.74992 8.92819 8.30808 6.30499 9.2412 5.93683C9.2412 5.93683 10.5283 6.56203 11.9998 6.60211C13.4714 6.56203 14.759 5.93683 14.759 5.93683C15.6917 6.30499 15.2494 8.92819 15.2494 8.92867C15.4793 8.76835 15.6893 8.68459 15.8618 8.64043V8.70355C15.8328 8.99443 15.7882 9.27787 15.7296 9.55315C15.1205 10.1042 14.0738 10.5014 12.8722 10.5751C12.761 10.4805 12.6187 10.4217 12.4613 10.4217H11.6117C11.2582 10.4217 10.9718 10.7083 10.9718 11.0616C10.9718 11.4148 11.2579 11.7014 11.6117 11.7014H12.4613C12.6338 11.7014 12.7894 11.6325 12.9048 11.5214C13.7945 11.4717 14.6066 11.272 15.2808 10.9612C14.586 12.5332 13.3771 13.5753 12 13.5753ZM11.9854 2.16067C13.9522 2.16067 15.5765 3.54379 15.8254 5.32843C15.0415 3.96595 13.6241 3.05299 12.0002 3.05299C10.3502 3.05299 8.91096 3.99523 8.13576 5.39491C8.35224 3.57811 9.99528 2.16067 11.9854 2.16067Z" fill="#FC7900"/>
</svg>
