<svg width="2479" height="369" viewBox="0 0 2479 369" fill="none" xmlns="http://www.w3.org/2000/svg">
<g clip-path="url(#clip0_819_7549)">
<path style="mix-blend-mode:screen" opacity="0.2" d="M1486.21 -132.109C1483.73 -150.075 1479.47 -167.9 1473.56 -185.092C1467.71 -202.106 1460.18 -218.649 1451.19 -234.258C1442.2 -249.869 1431.67 -264.68 1419.9 -278.281C1408 -292.023 1394.71 -304.65 1380.42 -315.816C1365.85 -327.192 1350.09 -337.162 1333.56 -345.447C1316.63 -353.938 1298.7 -360.757 1280.27 -365.718C1261.84 -370.679 1242.91 -373.779 1224 -374.935C1205.55 -376.061 1186.91 -375.354 1168.6 -372.823C1150.64 -370.342 1132.81 -366.086 1115.62 -360.172C1098.61 -354.322 1082.07 -346.796 1066.46 -337.806C1050.85 -328.816 1036.04 -318.285 1022.44 -306.508C1008.69 -294.608 996.066 -281.325 984.903 -267.029C973.527 -252.462 963.557 -236.695 955.273 -220.171C946.782 -203.238 939.963 -185.306 935.003 -166.878C930.042 -148.449 926.942 -129.516 925.786 -110.607C924.657 -92.155 925.367 -73.5157 927.898 -55.2049C930.378 -37.2385 934.634 -19.4109 940.545 -2.22143C946.398 14.7918 953.922 31.3351 962.911 46.944C971.901 62.5554 982.431 77.3659 994.208 90.9669C1006.11 104.709 1019.39 117.339 1033.68 128.502C1048.25 139.879 1064.02 149.848 1080.54 158.133C1097.47 166.624 1115.4 173.443 1133.83 178.404C1152.26 183.365 1171.19 186.465 1190.1 187.621C1208.55 188.748 1227.19 188.037 1245.5 185.509C1263.47 183.029 1281.29 178.773 1298.48 172.858C1315.5 167.006 1332.04 159.482 1347.65 150.492C1363.26 141.502 1378.07 130.972 1391.67 119.194C1405.41 107.294 1418.04 94.0107 1429.2 79.7155C1440.58 65.148 1450.55 49.3843 1458.83 32.857C1467.32 15.9239 1474.14 -2.00782 1479.1 -20.4362C1484.06 -38.8645 1487.16 -57.7975 1488.32 -76.7064C1489.44 -95.1588 1488.73 -113.798 1486.21 -132.109H1486.21ZM1389.02 -44.6851C1362.02 55.6562 1258.42 115.317 1158.08 88.313C1057.74 61.3086 998.082 -42.2954 1025.08 -142.637C1052.09 -242.978 1155.69 -302.639 1256.03 -275.635C1356.36 -248.63 1416.02 -145.026 1389.02 -44.6851Z" fill="url(#paint0_linear_819_7549)"/>
<path style="mix-blend-mode:multiply" opacity="0.23" d="M255.23 559.086C374.515 439.797 374.515 246.391 255.23 127.102C135.946 7.81329 -57.4526 7.8133 -176.737 127.102C-296.022 246.391 -296.022 439.797 -176.737 559.086C-57.4526 678.375 135.946 678.375 255.23 559.086Z" fill="url(#paint1_linear_819_7549)"/>
<g style="mix-blend-mode:screen" opacity="0.68">
<path d="M39.0364 651.291H39.0124C15.7282 651.291 -7.56933 648.621 -30.2261 643.358C-53.5396 637.943 -76.3245 629.746 -97.9454 618.994C-135.188 600.472 -167.691 575.209 -194.553 543.908C-207.462 528.863 -218.975 512.464 -228.768 495.165C-238.467 478.032 -246.568 459.865 -252.845 441.172C-259.122 422.48 -263.623 403.106 -266.229 383.588C-268.859 363.884 -269.577 343.859 -268.362 324.071C-265.834 282.9 -255.162 243.141 -236.641 205.897C-210.618 153.562 -170.58 109.951 -120.856 79.7797C-72.4665 50.4177 -17.0234 34.8997 39.4823 34.8997C62.7665 34.8997 86.0613 37.5697 108.723 42.8322C132.037 48.247 154.819 56.4439 176.443 67.1986C213.685 85.7204 246.188 110.981 273.05 142.284C285.959 157.33 297.472 173.729 307.265 191.028C316.965 208.161 325.065 226.328 331.342 245.021C337.619 263.713 342.121 283.087 344.726 302.605C347.356 322.309 348.074 342.334 346.86 362.122C344.331 403.293 333.66 443.052 315.139 480.296C289.115 532.633 249.077 576.245 199.353 606.416C150.972 635.775 95.5314 651.293 39.0391 651.293L39.0364 651.291ZM39.4823 40.2397C-76.3486 40.2397 -180.32 104.627 -231.859 208.276C-306.197 357.769 -245.057 539.874 -95.5665 614.215C-53.2246 635.273 -7.94311 645.951 39.0151 645.953H39.0391C154.857 645.953 258.814 581.569 310.357 477.917C384.695 328.423 323.554 146.319 174.064 71.9779C131.714 50.917 86.4351 40.2397 39.4823 40.2397Z" fill="url(#paint2_linear_819_7549)"/>
</g>
<path style="mix-blend-mode:multiply" opacity="0.2" d="M1495.08 36.7067C1634.38 -102.598 1634.38 -328.456 1495.08 -467.76C1355.78 -607.065 1129.94 -607.065 990.636 -467.76C851.337 -328.456 851.337 -102.598 990.636 36.7066C1129.94 176.011 1355.78 176.011 1495.08 36.7067Z" fill="url(#paint3_linear_819_7549)"/>
<g style="mix-blend-mode:screen" opacity="0.85">
<path d="M893.003 -292.053C900.657 -327.024 913.529 -360.613 931.254 -391.884C948.814 -422.864 970.809 -450.993 996.627 -475.49C1022.78 -500.31 1052.38 -520.939 1084.61 -536.804C1117.92 -553.203 1153.61 -564.286 1190.69 -569.749C1238.51 -576.792 1286.27 -574.261 1332.66 -562.222C1354.96 -556.436 1376.82 -548.429 1397.64 -538.427C1418.26 -528.519 1438.05 -516.562 1456.44 -502.895C1474.83 -489.227 1491.98 -473.733 1507.41 -456.843C1522.99 -439.789 1536.96 -421.163 1548.93 -401.483C1573.83 -360.533 1590.03 -315.522 1597.08 -267.702C1603.44 -224.539 1601.97 -181.237 1592.73 -138.998C1585.07 -104.026 1572.2 -70.4375 1554.48 -39.1664C1536.92 -8.18642 1514.92 19.942 1489.1 44.4393C1462.95 69.2596 1433.34 89.888 1401.12 105.753C1367.81 122.152 1332.12 133.235 1295.04 138.698C1247.22 145.742 1199.46 143.208 1153.06 131.172C1130.77 125.386 1108.91 117.378 1088.08 107.374C1067.46 97.4655 1047.68 85.5119 1029.29 71.8441C1010.9 58.1764 993.754 42.6824 978.319 25.792C962.738 8.73869 948.766 -9.88719 936.797 -29.5678C911.892 -70.5175 895.694 -115.528 888.651 -163.348C882.294 -206.511 883.757 -249.816 893.003 -292.05V-292.053ZM1590.11 -139.572C1599.29 -181.493 1600.74 -224.472 1594.43 -267.315C1580.6 -361.227 1531.02 -444.131 1454.84 -500.753C1378.66 -557.376 1284.98 -580.941 1191.08 -567.108C1045.75 -545.703 927.014 -434.935 895.611 -291.481C886.435 -249.56 884.982 -206.581 891.291 -163.738C905.124 -69.826 954.699 13.0775 1030.88 69.7002C1107.06 126.323 1200.74 149.888 1294.65 136.058C1439.97 114.65 1558.71 3.88468 1590.11 -139.569V-139.572Z" fill="url(#paint4_linear_819_7549)"/>
</g>
<path d="M2564.44 0H0V801H2564.44V0Z" fill="url(#paint5_linear_819_7549)"/>
<g opacity="0.45">
<path opacity="0.23" d="M572.693 67.9008C576.425 67.9008 579.451 64.8752 579.451 61.143C579.451 57.4108 576.425 54.3853 572.693 54.3853C568.961 54.3853 565.936 57.4108 565.936 61.143C565.936 64.8752 568.961 67.9008 572.693 67.9008Z" fill="white"/>
<path opacity="0.23" d="M522.848 67.9008C526.58 67.9008 529.606 64.8752 529.606 61.143C529.606 57.4108 526.58 54.3853 522.848 54.3853C519.116 54.3853 516.091 57.4108 516.091 61.143C516.091 64.8752 519.116 67.9008 522.848 67.9008Z" fill="white"/>
<path opacity="0.23" d="M1113.58 142.049C1128.05 138.88 1137.22 124.577 1134.05 110.1C1130.88 95.6233 1116.58 86.4572 1102.1 89.6265C1087.62 92.7958 1078.46 107.099 1081.63 121.576C1084.79 136.052 1099.1 145.219 1113.57 142.049H1113.58Z" stroke="white" stroke-width="4.73"/>
</g>
<path style="mix-blend-mode:screen" opacity="0.22" d="M-469.537 343.613C-462.09 374.467 -451.528 404.705 -438.147 433.493C-424.434 462.991 -407.598 491.307 -388.105 517.652C-368.612 543.996 -346.46 568.379 -322.262 590.118C-298.65 611.334 -272.821 630.278 -245.495 646.423C-218.681 662.267 -190.164 675.571 -160.728 685.971C-131.597 696.264 -101.318 703.801 -70.7233 708.375C-40.1316 712.949 -8.96853 714.596 21.8982 713.272C53.0852 711.934 84.2483 707.55 114.525 700.242C145.378 692.793 175.618 682.233 204.402 668.851C233.899 655.138 262.213 638.301 288.557 618.807C314.901 599.313 339.282 577.161 361.021 552.962C382.236 529.349 401.178 503.519 417.323 476.192C433.164 449.377 446.471 420.856 456.87 391.422C467.162 362.29 474.699 332.009 479.273 301.414C483.847 270.821 485.494 239.657 484.17 208.789C482.832 177.6 478.448 146.433 471.14 116.158C463.691 85.3038 453.132 55.0634 439.75 26.2781C426.038 -3.22003 409.202 -31.5354 389.709 -57.8803C370.216 -84.2251 348.064 -108.608 323.866 -130.347C300.254 -151.563 274.425 -170.506 247.099 -186.652C220.285 -202.493 191.765 -215.8 162.332 -226.2C133.203 -236.493 102.922 -244.03 72.3272 -248.604C41.7355 -253.177 10.5724 -254.825 -20.2942 -253.5C-51.4813 -252.163 -82.6444 -247.779 -112.921 -240.471C-143.774 -233.022 -174.014 -222.462 -202.798 -209.08C-232.295 -195.367 -260.609 -178.53 -286.953 -159.036C-313.297 -139.542 -337.678 -117.389 -359.417 -93.191C-380.632 -69.5775 -399.575 -43.7479 -415.719 -16.4205C-431.56 10.3943 -444.867 38.9153 -455.266 68.3493C-465.558 97.4817 -473.096 127.762 -477.669 158.358C-482.243 188.951 -483.89 220.115 -482.566 250.983C-481.228 282.171 -476.844 313.338 -469.537 343.613ZM-191.67 -30.2511C-48.2347 -136.384 154.8 -106.031 260.929 37.4094C367.057 180.85 336.708 383.893 193.271 490.025C49.836 596.158 -153.199 565.808 -259.328 422.367C-365.456 278.927 -335.105 75.8841 -191.67 -30.2484V-30.2511Z" fill="url(#paint6_linear_819_7549)"/>
</g>
<defs>
<linearGradient id="paint0_linear_819_7549" x1="933.313" y1="-26.8682" x2="1480.8" y2="-160.441" gradientUnits="userSpaceOnUse">
<stop stop-color="#003DA1"/>
<stop offset="0.14" stop-color="#002E8A"/>
<stop offset="0.37" stop-color="#001A6B"/>
<stop offset="0.6" stop-color="#000B54"/>
<stop offset="0.81" stop-color="#000346"/>
<stop offset="1" stop-color="#000042"/>
</linearGradient>
<linearGradient id="paint1_linear_819_7549" x1="-252.899" y1="253.771" x2="331.396" y2="432.403" gradientUnits="userSpaceOnUse">
<stop stop-color="white"/>
<stop offset="0.3" stop-color="#FCFCFC"/>
<stop offset="0.45" stop-color="#F5F5F5"/>
<stop offset="0.55" stop-color="#E8E8E8"/>
<stop offset="0.65" stop-color="#D6D6D6"/>
<stop offset="0.73" stop-color="#BFBEBE"/>
<stop offset="0.8" stop-color="#A2A1A1"/>
<stop offset="0.87" stop-color="#807E7E"/>
<stop offset="0.93" stop-color="#585556"/>
<stop offset="0.99" stop-color="#2C292A"/>
<stop offset="1" stop-color="#231F20"/>
</linearGradient>
<linearGradient id="paint2_linear_819_7549" x1="294.73" y1="170.765" x2="-216.247" y2="515.409" gradientUnits="userSpaceOnUse">
<stop stop-color="#003DA1"/>
<stop offset="0.06" stop-color="#003594"/>
<stop offset="0.21" stop-color="#002176"/>
<stop offset="0.38" stop-color="#00125F"/>
<stop offset="0.55" stop-color="#00084E"/>
<stop offset="0.75" stop-color="#000145"/>
<stop offset="1" stop-color="#000042"/>
</linearGradient>
<linearGradient id="paint3_linear_819_7549" x1="1224.25" y1="-571.87" x2="1261.61" y2="140.795" gradientUnits="userSpaceOnUse">
<stop stop-color="white"/>
<stop offset="0.13" stop-color="#FAFAFA"/>
<stop offset="0.26" stop-color="#EEEEEE"/>
<stop offset="0.4" stop-color="#D9D9D9"/>
<stop offset="0.54" stop-color="#BCBBBC"/>
<stop offset="0.68" stop-color="#979596"/>
<stop offset="0.82" stop-color="#6A6768"/>
<stop offset="0.96" stop-color="#353132"/>
<stop offset="1" stop-color="#231F20"/>
</linearGradient>
<linearGradient id="paint4_linear_819_7549" x1="1496.05" y1="37.7316" x2="989.867" y2="-468.813" gradientUnits="userSpaceOnUse">
<stop stop-color="#003DA1"/>
<stop offset="0.18" stop-color="#002881"/>
<stop offset="0.38" stop-color="#001665"/>
<stop offset="0.59" stop-color="#000A51"/>
<stop offset="0.79" stop-color="#000245"/>
<stop offset="1" stop-color="#000042"/>
</linearGradient>
<linearGradient id="paint5_linear_819_7549" x1="2436.57" y1="-104.998" x2="-97.883" y2="1004.77" gradientUnits="userSpaceOnUse">
<stop offset="0.171875" stop-color="#1D8FE3"/>
<stop offset="1" stop-color="#004D8C"/>
</linearGradient>
<linearGradient id="paint6_linear_819_7549" x1="476.197" y1="139.773" x2="-474.645" y2="319.945" gradientUnits="userSpaceOnUse">
<stop stop-color="#003DA1"/>
<stop offset="0.06" stop-color="#003594"/>
<stop offset="0.21" stop-color="#002176"/>
<stop offset="0.38" stop-color="#00125F"/>
<stop offset="0.55" stop-color="#00084E"/>
<stop offset="0.75" stop-color="#000145"/>
<stop offset="1" stop-color="#000042"/>
</linearGradient>
<clipPath id="clip0_819_7549">
<rect width="2479" height="369" fill="white"/>
</clipPath>
</defs>
</svg>
