<?xml version="1.0" encoding="UTF-8"?>
<svg id="Layer_2" data-name="Layer 2" xmlns="http://www.w3.org/2000/svg" viewBox="0 0 182.28 161.91">
  <defs>
    <style>
      .cls-1 {
        fill: #3493d0;
      }

      .cls-2 {
        fill: none;
        stroke: #3593d0;
        stroke-miterlimit: 10;
        stroke-width: 5px;
      }
    </style>
  </defs>
  <g id="Layer_1-2" data-name="Layer 1">
    <g>
      <path class="cls-1" d="M13.18,33.78c7.72-7.33,15.28-14.5,23.06-21.89,2.98,2.39,6.39,5.01,9.67,7.78,1.33,1.13,2.38,.96,3.82,.29,3.36-1.55,6.77-3.01,10.24-4.27,2.33-.84,3.88-1.78,3.58-4.71-.3-2.88,0-5.82-.11-8.72C63.37,.65,63.88,0,65.52,0c9.07,.04,18.13,.04,27.2,.01,1.48,0,2.05,.53,2,2.08-.13,3.66-.28,7.33-.07,10.97,.17,3.02-1.58,2.8-3.6,2.85-2.41,.07-2.75-1.2-2.55-3.16,.15-1.4,.14-2.82,.17-4.24,.03-1.65-.48-2.59-2.46-2.54-4.82,.1-9.65,.05-14.47-.07-1.79-.04-2.36,.75-2.33,2.38,.05,2.91,0,5.82,.06,8.73,.04,1.83-.82,2.67-2.58,3.03-6.3,1.27-12.2,3.63-17.64,7.04-1.57,.99-2.79,.98-4.22-.3-2.22-1.99-4.63-3.75-6.9-5.68-1.3-1.11-2.28-1.27-3.59,.12-3.47,3.68-7.01,7.31-10.68,10.79-1.84,1.74-1.78,3.01-.05,4.71,1.95,1.92,3.66,4.07,5.56,6.05,1.17,1.22,1.18,2.26,.33,3.75-3.3,5.75-6.3,11.64-7.77,18.17-.31,1.38-1.05,1.85-2.45,1.81-3.74-.1-7.49,0-11.23-.11-1.74-.05-2.34,.58-2.33,2.31,.05,6.07,.05,12.14-.06,18.21-.03,1.81,1.05,1.84,2.25,1.84,3.57,.01,7.15,.02,10.72-.05,1.79-.04,2.57,.62,2.96,2.49,1.54,7.42,4.1,14.49,8.02,21.02,.82,1.36,.72,2.34-.32,3.56-2.31,2.71-4.41,5.6-6.73,8.31-.93,1.08-.88,1.75,.06,2.71,3.88,3.97,7.71,7.99,11.57,11.98,1.22,1.26,2.41,1.2,3.66-.04,2.36-2.32,4.81-4.55,7.16-6.88,1.12-1.11,1.99-1.24,3.43-.32,5.69,3.63,11.82,6.33,18.44,7.77,1.65,.36,2.4,1.2,2.37,2.92-.06,3.66,.03,7.32-.04,10.98-.04,1.83,.69,2.53,2.51,2.49,4.98-.11,9.97-.17,14.96-.14,1.62,0,1.7-.88,1.69-2.08-.03-3.66,.05-7.32-.05-10.98-.06-2.05,.54-3.04,2.81-3.02,2.18,.02,3.4,.39,3.33,3-.14,5.48-.05,10.98,.04,16.46,.04,2.19-.62,3.03-3.03,2.98-8.31-.17-16.63-.07-24.94-.07-3.08,0-3.22-.2-3.17-3.23,.06-3.82,.06-7.64-.02-11.46-.04-1.82-.91-2.88-2.85-3.52-3.5-1.16-6.89-2.68-10.22-4.27-1.96-.94-3.45-1.1-5.11,.63-2.41,2.51-5.12,4.73-7.59,7.19-1.37,1.37-2.35,1.32-3.69-.07-6.34-6.58-12.75-13.08-19.14-19.61-1.18-1.21-.93-2.2,.11-3.45,2.53-3.06,4.96-6.22,7.31-9.42,.45-.61,.7-1.75,.45-2.43-1.78-4.96-3.72-9.87-5.59-14.81-.56-1.49-1.48-2.26-3.18-2.2-3.82,.12-7.65,.03-11.47,.18-1.85,.07-2.53-.57-2.52-2.41,.03-10.15,0-20.29-.03-30.44,0-1.63,.41-2.29,2.32-2.16,4.06,.27,8.15,.28,12.21,.09,1.05-.05,2.52-1.02,2.98-1.97,1.7-3.47,2.84-7.23,4.64-10.64,1.09-2.06,.69-3.28-.72-4.78-2.7-2.88-5.27-5.89-8.26-9.26Z"/>
      <g>
        <path class="cls-1" d="M100.37,58.72c4.99,0,9.97-.06,14.96,.03,1.81,.03,2.95-.68,3.89-2.13,4.05-6.17,8.14-12.3,12.22-18.45,.84-1.26,1.85-1.91,3.51-1.78,2.31,.18,4.67-.14,6.98,.07,2.39,.22,3.78-.66,4.97-2.72,2.85-4.97,7.44-6.96,13-6.55,5.83,.42,9.77,3.47,11.99,8.96,3.07,7.58-1.26,16.49-9.18,18.56-7.26,1.9-14.69-1.09-17.14-9.18-.68-2.24-1.79-2.96-4.19-3.25-4.23-.51-6.48,1.32-8.5,4.68-3.42,5.67-7.12,11.18-10.9,16.62-.59,.85-2.24,1.35-3.4,1.36-11.14,.09-22.28,.14-33.42-.02-7.05-.1-12.31,2.86-15.44,8.97-4.62,9.04,.6,19.29,9.63,21.98,2.72,.81,5.73,.93,8.6,.91,2.55-.02,2.56,1.31,2.55,3.15-.01,1.81,.03,3.08-2.55,3.09-6.11,.02-11.99-.59-16.98-4.48-10.84-8.47-12.63-22.18-3.18-32.66,5.09-5.65,11.72-7.18,18.89-7.32,4.57-.09,9.14-.02,13.71-.02,0,.05,0,.1,0,.15Zm50.67-17.67c0,4.58,3.54,8.18,7.94,8.11,3.65-.06,7.58-3.95,7.65-7.58,.09-4.8-3.38-8.26-8.3-8.28-4.1-.02-7.3,3.38-7.29,7.75Z"/>
        <path class="cls-1" d="M118.24,96.93c2.65-.83,4.38,1.12,6.12,3.63,3.2,4.63,6.72,9.05,10.05,13.59,.97,1.32,2.09,2.07,3.77,1.81,.32-.05,.67-.04,1,0,3.65,.42,6.15-.25,8.53-3.94,3.78-5.87,10.48-6.85,16.86-4.36,5.69,2.23,9.42,9.1,8.1,15.34-1.52,7.14-5.9,10.92-13.31,11.71-6.28,.67-12.7-4.3-14.03-10.37-.43-1.97-1.41-2.68-3.27-2.51-.08,0-.17,0-.25,0-6.81,1.46-11.4-1.32-14.76-7.22-1.87-3.28-4.55-6.1-6.73-9.22-1.21-1.73-2.65-2.72-4.79-2.44-2.54,.33-2.75-1.05-2.77-3.14-.02-2.31,.7-3.27,3.02-2.9,.57,.09,1.16,.01,2.47,.01Zm32.79,23.68c-.01,4.34,3.17,7.64,7.39,7.67,4.36,.04,8.15-3.37,8.19-7.35,.05-4.47-3.35-8.14-7.58-8.2-4.64-.06-7.99,3.24-8.01,7.88Z"/>
        <path class="cls-1" d="M137.05,83.99c-5.15,0-10.31-.12-15.46,.04-3.25,.1-2.2-2.19-2.37-3.77-.2-1.76,.35-2.73,2.5-2.68,10.13,.23,20.27,.28,30.41,.46,1.68,.03,2.08-1,2.42-2.28,1.1-4.17,3.64-7.22,7.47-9.13,6.82-3.41,14.52-.78,18.24,5.21,3.74,6.03,2.56,16.01-5.64,19.96-5.97,2.88-15.18,1.58-18.98-6.24-.4-.83-1.87-1.57-2.86-1.6-5.23-.16-10.47-.07-15.71-.07,0,.04,0,.08,0,.11Zm38.96-4.72c0-4.47-3.43-8.02-7.75-8.01-4.25,0-8.28,3.97-8,8.22,.25,3.88,3.52,7.69,8.06,7.62,4.24-.06,7.69-3.5,7.69-7.82Z"/>
        <path class="cls-1" d="M102,96.93c.16-.01,.33-.03,.49-.04,3.84-.1,4.89,1.21,3.8,4.94-.14,.49-.99,1.03-1.57,1.09-1.47,.15-2.97,.05-4.45,.05-3.61,.01-3.66-.16-3.62-3.78,.02-1.82,.83-2.33,2.38-2.35,.99,0,1.98,0,2.97,0v.08Z"/>
        <path class="cls-1" d="M93.2,84.02c-2.08,.45-2.84-.61-2.75-2.89,.08-1.96-.04-3.68,2.78-3.55,3.18,.14,3.5,.29,3.52,3.04,.03,3.34,0,3.37-3.54,3.4Z"/>
        <path class="cls-1" d="M109.17,83.99c-1.82,.36-2.94-.16-2.81-2.68,.18-3.55,.11-3.6,3.28-3.7,1.88-.06,3.21,.16,3.15,2.59-.09,3.74,0,3.75-3.63,3.78Z"/>
      </g>
      <path class="cls-2" d="M82.16,120.95c-22.09,0-40-17.91-40-40s17.91-40,40-40"/>
    </g>
  </g>
</svg>