<?xml version="1.0" encoding="UTF-8"?>
<svg id="Layer_1" data-name="Layer 1" xmlns="http://www.w3.org/2000/svg" viewBox="0 0 57 57">
  <defs>
    <style>
      .cls-1 {
        fill: #f5f5f5;
      }

      .cls-2 {
        fill: #3492cf;
      }

      .cls-3 {
        fill: none;
        stroke: #3492cf;
        stroke-miterlimit: 10;
      }
    </style>
  </defs>
  <circle class="cls-1" cx="28.5" cy="28.5" r="28.5"/>
  <g>
    <path class="cls-2" d="M13.1,19.18c1.53-1.45,3.02-2.86,4.56-4.32,.59,.47,1.26,.99,1.91,1.54,.26,.22,.47,.19,.76,.06,.66-.31,1.34-.6,2.02-.84,.46-.17,.77-.35,.71-.93-.06-.57,0-1.15-.02-1.72-.01-.32,.09-.45,.41-.45,1.79,0,3.58,0,5.37,0,.29,0,.41,.1,.4,.41-.03,.72-.05,1.45-.01,2.17,.03,.6-.31,.55-.71,.56-.48,.01-.54-.24-.5-.62,.03-.28,.03-.56,.03-.84,0-.33-.09-.51-.49-.5-.95,.02-1.91,0-2.86-.01-.35,0-.47,.15-.46,.47,0,.57,0,1.15,.01,1.72,0,.36-.16,.53-.51,.6-1.24,.25-2.41,.72-3.48,1.39-.31,.19-.55,.19-.83-.06-.44-.39-.92-.74-1.36-1.12-.26-.22-.45-.25-.71,.02-.69,.73-1.38,1.44-2.11,2.13-.36,.34-.35,.59-.01,.93,.39,.38,.72,.8,1.1,1.2,.23,.24,.23,.45,.07,.74-.65,1.13-1.24,2.3-1.53,3.59-.06,.27-.21,.36-.48,.36-.74-.02-1.48,0-2.22-.02-.34-.01-.46,.11-.46,.46,.01,1.2,.01,2.4-.01,3.6,0,.36,.21,.36,.44,.36,.71,0,1.41,0,2.12-.01,.35,0,.51,.12,.58,.49,.3,1.47,.81,2.86,1.58,4.15,.16,.27,.14,.46-.06,.7-.46,.54-.87,1.11-1.33,1.64-.18,.21-.17,.34,.01,.53,.77,.78,1.52,1.58,2.28,2.37,.24,.25,.48,.24,.72,0,.47-.46,.95-.9,1.41-1.36,.22-.22,.39-.25,.68-.06,1.12,.72,2.33,1.25,3.64,1.53,.33,.07,.47,.24,.47,.58-.01,.72,0,1.45,0,2.17,0,.36,.14,.5,.5,.49,.98-.02,1.97-.03,2.95-.03,.32,0,.34-.17,.33-.41,0-.72,0-1.45-.01-2.17-.01-.4,.11-.6,.55-.6,.43,0,.67,.08,.66,.59-.03,1.08-.01,2.17,0,3.25,0,.43-.12,.6-.6,.59-1.64-.03-3.28-.01-4.93-.01-.61,0-.64-.04-.63-.64,.01-.75,.01-1.51,0-2.26,0-.36-.18-.57-.56-.7-.69-.23-1.36-.53-2.02-.84-.39-.18-.68-.22-1.01,.12-.48,.5-1.01,.93-1.5,1.42-.27,.27-.46,.26-.73-.01-1.25-1.3-2.52-2.58-3.78-3.87-.23-.24-.18-.43,.02-.68,.5-.6,.98-1.23,1.44-1.86,.09-.12,.14-.35,.09-.48-.35-.98-.74-1.95-1.1-2.92-.11-.29-.29-.45-.63-.44-.75,.02-1.51,0-2.27,.03-.36,.01-.5-.11-.5-.48,0-2,0-4.01,0-6.01,0-.32,.08-.45,.46-.43,.8,.05,1.61,.06,2.41,.02,.21,0,.5-.2,.59-.39,.34-.69,.56-1.43,.92-2.1,.21-.41,.14-.65-.14-.94-.53-.57-1.04-1.16-1.63-1.83Z"/>
    <g>
      <path class="cls-2" d="M30.32,24.11c.98,0,1.97-.01,2.95,0,.36,0,.58-.14,.77-.42,.8-1.22,1.61-2.43,2.41-3.64,.17-.25,.37-.38,.69-.35,.46,.03,.92-.03,1.38,.01,.47,.04,.75-.13,.98-.54,.56-.98,1.47-1.37,2.57-1.29,1.15,.08,1.93,.68,2.37,1.77,.61,1.5-.25,3.26-1.81,3.67-1.43,.37-2.9-.21-3.38-1.81-.13-.44-.35-.58-.83-.64-.84-.1-1.28,.26-1.68,.92-.68,1.12-1.41,2.21-2.15,3.28-.12,.17-.44,.27-.67,.27-2.2,.02-4.4,.03-6.6,0-1.39-.02-2.43,.56-3.05,1.77-.91,1.78,.12,3.81,1.9,4.34,.54,.16,1.13,.18,1.7,.18,.5,0,.51,.26,.5,.62,0,.36,0,.61-.5,.61-1.21,0-2.37-.12-3.35-.89-2.14-1.67-2.49-4.38-.63-6.45,1.01-1.12,2.31-1.42,3.73-1.45,.9-.02,1.81,0,2.71,0,0,0,0,.02,0,.03Zm10.01-3.49c0,.9,.7,1.62,1.57,1.6,.72-.01,1.5-.78,1.51-1.5,.02-.95-.67-1.63-1.64-1.64-.81,0-1.44,.67-1.44,1.53Z"/>
      <path class="cls-2" d="M33.85,31.66c.52-.16,.87,.22,1.21,.72,.63,.91,1.33,1.79,1.98,2.68,.19,.26,.41,.41,.74,.36,.06,0,.13,0,.2,0,.72,.08,1.21-.05,1.68-.78,.75-1.16,2.07-1.35,3.33-.86,1.12,.44,1.86,1.8,1.6,3.03-.3,1.41-1.17,2.16-2.63,2.31-1.24,.13-2.51-.85-2.77-2.05-.09-.39-.28-.53-.65-.5-.02,0-.03,0-.05,0-1.35,.29-2.25-.26-2.91-1.43-.37-.65-.9-1.2-1.33-1.82-.24-.34-.52-.54-.95-.48-.5,.07-.54-.21-.55-.62,0-.46,.14-.65,.6-.57,.11,.02,.23,0,.49,0Zm6.48,4.68c0,.86,.63,1.51,1.46,1.51,.86,0,1.61-.66,1.62-1.45,0-.88-.66-1.61-1.5-1.62-.92-.01-1.58,.64-1.58,1.56Z"/>
      <path class="cls-2" d="M37.57,29.1c-1.02,0-2.04-.02-3.05,0-.64,.02-.43-.43-.47-.74-.04-.35,.07-.54,.49-.53,2,.05,4,.06,6.01,.09,.33,0,.41-.2,.48-.45,.22-.82,.72-1.43,1.47-1.8,1.35-.67,2.87-.15,3.6,1.03,.74,1.19,.51,3.16-1.11,3.94-1.18,.57-3,.31-3.75-1.23-.08-.16-.37-.31-.57-.32-1.03-.03-2.07-.01-3.1-.01,0,0,0,.02,0,.02Zm7.69-.93c0-.88-.68-1.58-1.53-1.58-.84,0-1.63,.78-1.58,1.62,.05,.77,.69,1.52,1.59,1.5,.84-.01,1.52-.69,1.52-1.55Z"/>
      <path class="cls-2" d="M30.65,31.65s.07,0,.1,0c.76-.02,.97,.24,.75,.98-.03,.1-.2,.2-.31,.22-.29,.03-.59,0-.88,.01-.71,0-.72-.03-.72-.75,0-.36,.16-.46,.47-.46,.2,0,.39,0,.59,0v.02Z"/>
      <path class="cls-2" d="M28.91,29.1c-.41,.09-.56-.12-.54-.57,.02-.39,0-.73,.55-.7,.63,.03,.69,.06,.7,.6,0,.66,0,.67-.7,.67Z"/>
      <path class="cls-2" d="M32.06,29.1c-.36,.07-.58-.03-.55-.53,.04-.7,.02-.71,.65-.73,.37-.01,.63,.03,.62,.51-.02,.74,0,.74-.72,.75Z"/>
    </g>
    <path class="cls-3" d="M26.73,36.4c-4.36,0-7.9-3.54-7.9-7.9s3.54-7.9,7.9-7.9"/>
  </g>
</svg>