<?xml version="1.0" encoding="UTF-8"?>
<svg xmlns="http://www.w3.org/2000/svg" xmlns:xlink="http://www.w3.org/1999/xlink" width="57px" height="57px" viewBox="0 0 57 57" version="1.1">
<g id="surface1">
<path style=" stroke:none;fill-rule:nonzero;fill:rgb(96.078431%,96.078431%,96.078431%);fill-opacity:1;" d="M 57 28.5 C 57 44.238281 44.238281 57 28.5 57 C 12.761719 57 0 44.238281 0 28.5 C 0 12.761719 12.761719 0 28.5 0 C 44.238281 0 57 12.761719 57 28.5 Z M 57 28.5 "/>
<path style=" stroke:none;fill-rule:nonzero;fill:rgb(20.392157%,57.254902%,81.176471%);fill-opacity:1;" d="M 13.101562 19.179688 C 14.628906 17.730469 16.121094 16.320312 17.660156 14.859375 C 18.25 15.328125 18.921875 15.851562 19.570312 16.398438 C 19.828125 16.621094 20.039062 16.589844 20.328125 16.460938 C 20.988281 16.148438 21.671875 15.859375 22.351562 15.621094 C 22.808594 15.449219 23.121094 15.269531 23.058594 14.691406 C 23 14.121094 23.058594 13.539062 23.039062 12.96875 C 23.03125 12.648438 23.128906 12.519531 23.449219 12.519531 C 25.238281 12.519531 27.03125 12.519531 28.820312 12.519531 C 29.109375 12.519531 29.230469 12.621094 29.21875 12.929688 C 29.191406 13.648438 29.171875 14.378906 29.210938 15.101562 C 29.238281 15.699219 28.898438 15.648438 28.5 15.660156 C 28.019531 15.671875 27.960938 15.421875 28 15.039062 C 28.03125 14.761719 28.03125 14.480469 28.03125 14.199219 C 28.03125 13.871094 27.941406 13.691406 27.539062 13.699219 C 26.589844 13.71875 25.628906 13.699219 24.679688 13.691406 C 24.328125 13.691406 24.210938 13.839844 24.21875 14.160156 C 24.21875 14.730469 24.21875 15.308594 24.230469 15.878906 C 24.230469 16.238281 24.070312 16.410156 23.71875 16.480469 C 22.480469 16.730469 21.308594 17.199219 20.238281 17.871094 C 19.929688 18.058594 19.691406 18.058594 19.410156 17.808594 C 18.96875 17.421875 18.488281 17.070312 18.050781 16.691406 C 17.789062 16.46875 17.601562 16.441406 17.339844 16.710938 C 16.648438 17.441406 15.960938 18.148438 15.230469 18.839844 C 14.871094 19.179688 14.878906 19.429688 15.21875 19.769531 C 15.609375 20.148438 15.941406 20.570312 16.320312 20.96875 C 16.550781 21.210938 16.550781 21.421875 16.390625 21.710938 C 15.738281 22.839844 15.148438 24.011719 14.859375 25.300781 C 14.800781 25.570312 14.648438 25.660156 14.378906 25.660156 C 13.640625 25.640625 12.898438 25.660156 12.160156 25.640625 C 11.820312 25.628906 11.699219 25.75 11.699219 26.101562 C 11.710938 27.300781 11.710938 28.5 11.691406 29.699219 C 11.691406 30.058594 11.898438 30.058594 12.128906 30.058594 C 12.839844 30.058594 13.539062 30.058594 14.25 30.050781 C 14.601562 30.050781 14.761719 30.171875 14.828125 30.539062 C 15.128906 32.011719 15.640625 33.398438 16.410156 34.691406 C 16.570312 34.960938 16.550781 35.148438 16.351562 35.390625 C 15.890625 35.929688 15.480469 36.5 15.019531 37.03125 C 14.839844 37.238281 14.851562 37.371094 15.03125 37.558594 C 15.800781 38.339844 16.550781 39.140625 17.308594 39.929688 C 17.550781 40.179688 17.789062 40.171875 18.03125 39.929688 C 18.5 39.46875 18.980469 39.03125 19.441406 38.570312 C 19.660156 38.351562 19.828125 38.320312 20.121094 38.511719 C 21.238281 39.230469 22.449219 39.761719 23.761719 40.039062 C 24.089844 40.109375 24.230469 40.28125 24.230469 40.621094 C 24.21875 41.339844 24.230469 42.070312 24.230469 42.789062 C 24.230469 43.148438 24.371094 43.289062 24.730469 43.28125 C 25.710938 43.261719 26.699219 43.25 27.679688 43.25 C 28 43.25 28.019531 43.078125 28.011719 42.839844 C 28.011719 42.121094 28.011719 41.390625 28 40.671875 C 27.988281 40.269531 28.109375 40.070312 28.550781 40.070312 C 28.980469 40.070312 29.21875 40.148438 29.210938 40.660156 C 29.179688 41.738281 29.199219 42.828125 29.210938 43.910156 C 29.210938 44.339844 29.089844 44.511719 28.609375 44.5 C 26.96875 44.46875 25.328125 44.488281 23.679688 44.488281 C 23.070312 44.488281 23.039062 44.449219 23.050781 43.851562 C 23.058594 43.101562 23.058594 42.339844 23.050781 41.589844 C 23.050781 41.230469 22.871094 41.019531 22.488281 40.890625 C 21.800781 40.660156 21.128906 40.359375 20.46875 40.050781 C 20.078125 39.871094 19.789062 39.828125 19.460938 40.171875 C 18.980469 40.671875 18.449219 41.101562 17.960938 41.589844 C 17.691406 41.859375 17.5 41.851562 17.230469 41.578125 C 15.980469 40.28125 14.710938 39 13.449219 37.710938 C 13.21875 37.46875 13.269531 37.28125 13.46875 37.03125 C 13.96875 36.429688 14.449219 35.800781 14.910156 35.171875 C 15 35.050781 15.050781 34.820312 15 34.691406 C 14.648438 33.710938 14.261719 32.738281 13.898438 31.769531 C 13.789062 31.480469 13.609375 31.320312 13.269531 31.328125 C 12.519531 31.351562 11.761719 31.328125 11 31.359375 C 10.640625 31.371094 10.5 31.25 10.5 30.878906 C 10.5 28.878906 10.5 26.871094 10.5 24.871094 C 10.5 24.550781 10.578125 24.421875 10.960938 24.441406 C 11.761719 24.488281 12.570312 24.5 13.371094 24.460938 C 13.578125 24.460938 13.871094 24.261719 13.960938 24.070312 C 14.300781 23.378906 14.519531 22.640625 14.878906 21.96875 C 15.089844 21.558594 15.019531 21.320312 14.738281 21.03125 C 14.210938 20.460938 13.699219 19.871094 13.109375 19.199219 Z M 13.101562 19.179688 "/>
<path style=" stroke:none;fill-rule:nonzero;fill:rgb(20.392157%,57.254902%,81.176471%);fill-opacity:1;" d="M 30.320312 24.109375 C 31.300781 24.109375 32.289062 24.101562 33.269531 24.109375 C 33.628906 24.109375 33.851562 23.96875 34.039062 23.691406 C 34.839844 22.46875 35.648438 21.261719 36.449219 20.050781 C 36.621094 19.800781 36.820312 19.671875 37.140625 19.699219 C 37.601562 19.730469 38.058594 19.671875 38.519531 19.710938 C 38.988281 19.75 39.269531 19.578125 39.5 19.171875 C 40.058594 18.191406 40.96875 17.800781 42.070312 17.878906 C 43.21875 17.960938 44 18.558594 44.441406 19.648438 C 45.050781 21.148438 44.191406 22.910156 42.628906 23.320312 C 41.199219 23.691406 39.730469 23.109375 39.25 21.511719 C 39.121094 21.070312 38.898438 20.929688 38.421875 20.871094 C 37.578125 20.769531 37.140625 21.128906 36.738281 21.789062 C 36.058594 22.910156 35.328125 24 34.589844 25.070312 C 34.46875 25.238281 34.148438 25.339844 33.921875 25.339844 C 31.71875 25.359375 29.519531 25.371094 27.320312 25.339844 C 25.929688 25.320312 24.890625 25.898438 24.269531 27.109375 C 23.359375 28.890625 24.390625 30.921875 26.171875 31.449219 C 26.710938 31.609375 27.300781 31.628906 27.871094 31.628906 C 28.371094 31.628906 28.378906 31.890625 28.371094 32.25 C 28.371094 32.609375 28.371094 32.859375 27.871094 32.859375 C 26.660156 32.859375 25.5 32.738281 24.519531 31.96875 C 22.378906 30.300781 22.03125 27.589844 23.890625 25.519531 C 24.898438 24.398438 26.199219 24.101562 27.621094 24.070312 C 28.519531 24.050781 29.429688 24.070312 30.328125 24.070312 C 30.328125 24.070312 30.328125 24.089844 30.328125 24.101562 Z M 40.328125 20.621094 C 40.328125 21.519531 41.03125 22.238281 41.898438 22.21875 C 42.621094 22.210938 43.398438 21.441406 43.410156 20.71875 C 43.429688 19.769531 42.738281 19.089844 41.769531 19.078125 C 40.960938 19.078125 40.328125 19.75 40.328125 20.609375 Z M 40.328125 20.621094 "/>
<path style=" stroke:none;fill-rule:nonzero;fill:rgb(20.392157%,57.254902%,81.176471%);fill-opacity:1;" d="M 33.851562 31.660156 C 34.371094 31.5 34.71875 31.878906 35.058594 32.378906 C 35.691406 33.289062 36.390625 34.171875 37.039062 35.058594 C 37.230469 35.320312 37.449219 35.46875 37.78125 35.421875 C 37.839844 35.421875 37.910156 35.421875 37.980469 35.421875 C 38.699219 35.5 39.191406 35.371094 39.660156 34.640625 C 40.410156 33.480469 41.730469 33.289062 42.988281 33.78125 C 44.109375 34.21875 44.851562 35.578125 44.589844 36.808594 C 44.289062 38.21875 43.421875 38.96875 41.960938 39.121094 C 40.71875 39.25 39.449219 38.269531 39.191406 37.070312 C 39.101562 36.679688 38.910156 36.539062 38.539062 36.570312 C 38.519531 36.570312 38.511719 36.570312 38.488281 36.570312 C 37.140625 36.859375 36.238281 36.308594 35.578125 35.140625 C 35.210938 34.488281 34.679688 33.941406 34.25 33.320312 C 34.011719 32.980469 33.730469 32.78125 33.300781 32.839844 C 32.800781 32.910156 32.761719 32.628906 32.75 32.21875 C 32.75 31.761719 32.890625 31.570312 33.351562 31.648438 C 33.460938 31.671875 33.578125 31.648438 33.839844 31.648438 Z M 40.328125 36.339844 C 40.328125 37.199219 40.960938 37.851562 41.789062 37.851562 C 42.648438 37.851562 43.398438 37.191406 43.410156 36.398438 C 43.410156 35.519531 42.75 34.789062 41.910156 34.78125 C 40.988281 34.769531 40.328125 35.421875 40.328125 36.339844 Z M 40.328125 36.339844 "/>
<path style=" stroke:none;fill-rule:nonzero;fill:rgb(20.392157%,57.254902%,81.176471%);fill-opacity:1;" d="M 37.570312 29.101562 C 36.550781 29.101562 35.53125 29.078125 34.519531 29.101562 C 33.878906 29.121094 34.089844 28.671875 34.050781 28.359375 C 34.011719 28.011719 34.121094 27.820312 34.539062 27.828125 C 36.539062 27.878906 38.539062 27.890625 40.550781 27.921875 C 40.878906 27.921875 40.960938 27.71875 41.03125 27.46875 C 41.25 26.648438 41.75 26.039062 42.5 25.671875 C 43.851562 25 45.371094 25.519531 46.101562 26.699219 C 46.839844 27.890625 46.609375 29.859375 44.988281 30.640625 C 43.808594 31.210938 41.988281 30.949219 41.238281 29.410156 C 41.160156 29.25 40.871094 29.101562 40.671875 29.089844 C 39.640625 29.058594 38.601562 29.078125 37.570312 29.078125 C 37.570312 29.078125 37.570312 29.101562 37.570312 29.101562 Z M 45.261719 28.171875 C 45.261719 27.289062 44.578125 26.589844 43.730469 26.589844 C 42.890625 26.589844 42.101562 27.371094 42.148438 28.210938 C 42.199219 28.980469 42.839844 29.730469 43.738281 29.710938 C 44.578125 29.699219 45.261719 29.019531 45.261719 28.160156 Z M 45.261719 28.171875 "/>
<path style=" stroke:none;fill-rule:nonzero;fill:rgb(20.392157%,57.254902%,81.176471%);fill-opacity:1;" d="M 30.648438 31.648438 C 30.648438 31.648438 30.71875 31.648438 30.75 31.648438 C 31.511719 31.628906 31.71875 31.890625 31.5 32.628906 C 31.46875 32.730469 31.300781 32.828125 31.191406 32.851562 C 30.898438 32.878906 30.601562 32.851562 30.308594 32.859375 C 29.601562 32.859375 29.589844 32.828125 29.589844 32.109375 C 29.589844 31.75 29.75 31.648438 30.058594 31.648438 C 30.261719 31.648438 30.449219 31.648438 30.648438 31.648438 L 30.648438 31.671875 Z M 30.648438 31.648438 "/>
<path style=" stroke:none;fill-rule:nonzero;fill:rgb(20.392157%,57.254902%,81.176471%);fill-opacity:1;" d="M 28.910156 29.101562 C 28.5 29.191406 28.351562 28.980469 28.371094 28.53125 C 28.390625 28.140625 28.371094 27.800781 28.921875 27.828125 C 29.550781 27.859375 29.609375 27.890625 29.621094 28.429688 C 29.621094 29.089844 29.621094 29.101562 28.921875 29.101562 Z M 28.910156 29.101562 "/>
<path style=" stroke:none;fill-rule:nonzero;fill:rgb(20.392157%,57.254902%,81.176471%);fill-opacity:1;" d="M 32.058594 29.101562 C 31.699219 29.171875 31.480469 29.070312 31.511719 28.570312 C 31.550781 27.871094 31.53125 27.859375 32.160156 27.839844 C 32.53125 27.828125 32.789062 27.871094 32.78125 28.351562 C 32.761719 29.089844 32.78125 29.089844 32.058594 29.101562 Z M 32.058594 29.101562 "/>
<path style="fill:none;stroke-width:1;stroke-linecap:butt;stroke-linejoin:miter;stroke:rgb(20.392157%,57.254902%,81.176471%);stroke-opacity:1;stroke-miterlimit:10;" d="M 26.730469 36.398438 C 22.371094 36.398438 18.828125 32.859375 18.828125 28.5 C 18.828125 24.140625 22.371094 20.601562 26.730469 20.601562 "/>
</g>
</svg>
