<svg width="36" height="36" viewBox="0 0 36 36" fill="none" xmlns="http://www.w3.org/2000/svg">
<path id="Vector" d="M17.796 26.6941C18.6147 26.6941 19.279 27.3584 19.279 28.1771C19.279 28.9957 18.6147 29.6601 17.796 29.6601C16.9774 29.6601 16.313 28.9957 16.313 28.1771C16.313 27.3584 16.9774 26.6941 17.796 26.6941ZM35.5921 28.9186V6.67351C35.5921 2.99418 32.5979 0 28.9186 0H6.67351C2.99418 0 0 2.99418 0 6.67351V28.9186C0 32.5979 2.99418 35.5921 6.67351 35.5921H28.9186C32.5979 35.5921 35.5921 32.5979 35.5921 28.9186ZM28.9186 1.483C31.7808 1.483 34.1091 3.81132 34.1091 6.67351V28.9186C34.1091 31.7808 31.7808 34.1091 28.9186 34.1091H6.67351C3.81132 34.1091 1.483 31.7808 1.483 28.9186V6.67351C1.483 3.81132 3.81132 1.483 6.67351 1.483H28.9186ZM18.5375 22.9865V22.0285C18.5375 20.7087 19.4481 19.2123 20.6553 18.5464C22.8798 17.32 24.0766 14.8019 23.6346 12.2793C23.2149 9.89015 21.2544 7.92813 18.8653 7.50993C17.231 7.22519 15.5967 7.59742 14.2665 8.56138C12.9689 9.50308 12.0954 10.9401 11.8714 12.5017C11.8136 12.9066 12.0954 13.2833 12.5002 13.3411C12.9095 13.4004 13.2818 13.1172 13.3396 12.7123C13.5057 11.5452 14.1612 10.47 15.137 9.76261C16.138 9.03445 17.3719 8.75417 18.6087 8.97217C20.3943 9.28508 21.8609 10.7518 22.1739 12.5373C22.5135 14.4652 21.6355 16.3145 19.9405 17.2488C18.2409 18.1861 17.0545 20.1525 17.0545 22.03V22.988C17.0545 23.3973 17.3867 23.7295 17.796 23.7295C18.2053 23.7295 18.5375 23.3973 18.5375 22.988V22.9865Z" fill="#FC7900"/>
</svg>
