<svg width="50" height="50" viewBox="0 0 50 50" fill="none" xmlns="http://www.w3.org/2000/svg">
<rect width="50" height="50" rx="6" fill="#127AD4"/>
<path d="M15.1254 37.5C15.2558 37.5007 15.386 37.4913 15.5149 37.4718L23.186 36.2913C23.7906 36.2008 24.3424 35.8956 24.7405 35.4315C25.1385 34.9674 25.3561 34.3755 25.3535 33.7642V32.6697C25.3535 32.4437 25.2637 32.2269 25.1038 32.0671C24.944 31.9072 24.7272 31.8174 24.5011 31.8174C24.2751 31.8174 24.0583 31.9072 23.8984 32.0671C23.7386 32.2269 23.6488 32.4437 23.6488 32.6697V33.7642C23.6487 33.9677 23.5758 34.1645 23.4432 34.319C23.3106 34.4734 23.1272 34.5753 22.926 34.6063L15.2549 35.7868C15.1338 35.8037 15.0104 35.7947 14.893 35.7603C14.7756 35.7259 14.6668 35.6669 14.574 35.5872C14.4811 35.5076 14.4063 35.4091 14.3544 35.2983C14.3025 35.1875 14.2748 35.067 14.273 34.9446V15.0527C14.2742 14.9302 14.3016 14.8094 14.3533 14.6983C14.405 14.5873 14.4798 14.4886 14.5728 14.4088C14.6658 14.329 14.7748 14.2701 14.8924 14.2359C15.0101 14.2017 15.1337 14.1931 15.2549 14.2106L22.926 15.3911C23.1277 15.4209 23.3119 15.5225 23.4447 15.6772C23.5775 15.8319 23.6499 16.0293 23.6488 16.2332V17.3276C23.6488 17.5537 23.7386 17.7705 23.8984 17.9303C24.0583 18.0902 24.2751 18.18 24.5011 18.18C24.7272 18.18 24.944 18.0902 25.1038 17.9303C25.2637 17.7705 25.3535 17.5537 25.3535 17.3276V16.2332C25.3562 15.6217 25.1386 15.0296 24.7404 14.5654C24.3421 14.1013 23.79 13.7962 23.1851 13.706L15.514 12.5255C15.1504 12.474 14.7799 12.5006 14.4273 12.6036C14.0748 12.7066 13.7482 12.8835 13.4694 13.1227C13.1907 13.3619 12.9661 13.6577 12.8107 13.9905C12.6554 14.3233 12.5727 14.6855 12.5684 15.0527V34.9446C12.5823 35.6183 12.8562 36.2604 13.3328 36.7367C13.8094 37.213 14.4517 37.4865 15.1254 37.5Z" fill="white"/>
<path d="M29.0711 32.6515C29.3809 32.779 29.7202 32.817 30.0504 32.7613C30.3807 32.7055 30.6887 32.5582 30.9395 32.3361L36.9058 26.3697C37.078 26.1985 37.2136 25.9941 37.3043 25.7689C37.395 25.5437 37.4389 25.3024 37.4334 25.0597C37.4275 24.8359 37.3763 24.6157 37.283 24.4122C37.1897 24.2087 37.0562 24.0263 36.8905 23.8758L30.9028 17.8898C30.6572 17.6714 30.3537 17.5286 30.0288 17.4787C29.7039 17.4288 29.3715 17.4739 29.0717 17.6086C28.7718 17.7433 28.5173 17.9617 28.3388 18.2377C28.1602 18.5136 28.0653 18.8353 28.0654 19.164V20.8687H20.0844C19.4062 20.8687 18.7558 21.1381 18.2763 21.6176C17.7967 22.0972 17.5273 22.7476 17.5273 23.4257V26.8351C17.5273 27.5132 17.7967 28.1636 18.2763 28.6432C18.7558 29.1227 19.4062 29.3921 20.0844 29.3921H28.0654V31.0968C28.0629 31.4258 28.1568 31.7484 28.3356 32.0246C28.5143 32.3009 28.77 32.5188 29.0711 32.6515Z" fill="white"/>
</svg>
