<svg width="50" height="50" viewBox="0 0 50 50" fill="none" xmlns="http://www.w3.org/2000/svg">
<rect width="50" height="50" rx="6" fill="#0060B2"/>
<path d="M15.557 38C15.6874 38.0007 15.8176 37.9913 15.9465 37.9718L23.6176 36.7913C24.2222 36.7008 24.7741 36.3956 25.1721 35.9315C25.5701 35.4674 25.7877 34.8755 25.7851 34.2642V33.1697C25.7851 32.9437 25.6953 32.7269 25.5355 32.5671C25.3756 32.4072 25.1588 32.3174 24.9328 32.3174C24.7067 32.3174 24.4899 32.4072 24.3301 32.5671C24.1702 32.7269 24.0804 32.9437 24.0804 33.1697V34.2642C24.0803 34.4677 24.0074 34.6645 23.8749 34.819C23.7423 34.9734 23.5588 35.0753 23.3576 35.1063L15.6866 36.2868C15.5654 36.3037 15.442 36.2947 15.3246 36.2603C15.2072 36.2259 15.0985 36.1669 15.0056 36.0872C14.9128 36.0076 14.8379 35.9091 14.786 35.7983C14.7341 35.6875 14.7064 35.567 14.7047 35.4446V15.5527C14.7059 15.4302 14.7332 15.3094 14.7849 15.1983C14.8366 15.0873 14.9115 14.9886 15.0045 14.9088C15.0975 14.829 15.2064 14.7701 15.3241 14.7359C15.4417 14.7017 15.5653 14.6931 15.6866 14.7106L23.3576 15.8911C23.5593 15.9209 23.7435 16.0225 23.8763 16.1772C24.0091 16.3319 24.0816 16.5293 24.0804 16.7332V17.8276C24.0804 18.0537 24.1702 18.2705 24.3301 18.4303C24.4899 18.5902 24.7067 18.68 24.9328 18.68C25.1588 18.68 25.3756 18.5902 25.5355 18.4303C25.6953 18.2705 25.7851 18.0537 25.7851 17.8276V16.7332C25.7879 16.1217 25.5702 15.5296 25.172 15.0654C24.7738 14.6013 24.2216 14.2962 23.6167 14.206L15.9457 13.0255C15.582 12.974 15.2115 13.0006 14.859 13.1036C14.5064 13.2066 14.1799 13.3835 13.9011 13.6227C13.6223 13.8619 13.3978 14.1577 13.2424 14.4905C13.087 14.8233 13.0044 15.1855 13 15.5527V35.4446C13.0139 36.1183 13.2879 36.7604 13.7645 37.2367C14.2411 37.713 14.8834 37.9865 15.557 38Z" fill="white"/>
<path d="M29.5028 33.1515C29.8125 33.279 30.1518 33.317 30.4821 33.2613C30.8124 33.2055 31.1204 33.0582 31.3711 32.8361L37.3375 26.8697C37.5097 26.6985 37.6452 26.4941 37.7359 26.2689C37.8266 26.0437 37.8706 25.8024 37.8651 25.5597C37.8591 25.3359 37.808 25.1157 37.7147 24.9122C37.6214 24.7087 37.4878 24.5263 37.3221 24.3758L31.3344 18.3898C31.0888 18.1714 30.7853 18.0286 30.4604 17.9787C30.1355 17.9288 29.8032 17.9739 29.5033 18.1086C29.2035 18.2433 28.949 18.4617 28.7704 18.7377C28.5919 19.0136 28.4969 19.3353 28.497 19.664V21.3687H20.516C19.8378 21.3687 19.1875 21.6381 18.7079 22.1176C18.2284 22.5972 17.959 23.2476 17.959 23.9257V27.3351C17.959 28.0132 18.2284 28.6636 18.7079 29.1432C19.1875 29.6227 19.8378 29.8921 20.516 29.8921H28.497V31.5968C28.4946 31.9258 28.5885 32.2484 28.7672 32.5246C28.9459 32.8009 29.2016 33.0188 29.5028 33.1515Z" fill="white"/>
</svg>
