<svg width="25" height="25" viewBox="0 0 25 25" fill="none" xmlns="http://www.w3.org/2000/svg">
<g clip-path="url(#clip0_2464_2931)">
<path d="M22.339 4.20737L18.275 0.143262C18.1832 0.0515625 18.0587 0 17.929 0H3.98525C3.17598 0 2.51758 0.658398 2.51758 1.46772V23.5323C2.51758 24.3416 3.17598 25 3.9853 25H21.0147C21.8239 25 22.4824 24.3417 22.4824 23.5323V4.55332C22.4823 4.42353 22.4308 4.29912 22.339 4.20737ZM21.1713 4.42344H18.548C18.2783 4.42344 18.0588 4.20396 18.0588 3.93418V1.31089L21.1713 4.42344ZM21.0147 24.0215H3.98525C3.71548 24.0215 3.496 23.8021 3.496 23.5323V1.46772C3.496 1.19795 3.71548 0.978467 3.98525 0.978467H17.0803V3.93418C17.0803 4.74346 17.7387 5.4019 18.548 5.4019H21.5039V23.5323C21.5039 23.8021 21.2844 24.0215 21.0147 24.0215Z" fill="#0197E8"/>
<path d="M9.1127 8.86162H10.9624V10.7113C10.9624 11.1516 11.3206 11.5098 11.7608 11.5098H13.2392C13.6795 11.5098 14.0377 11.1516 14.0377 10.7113V8.86162H15.8874C16.3276 8.86162 16.6858 8.50342 16.6858 8.06314V6.58477C16.6858 6.14448 16.3276 5.78628 15.8874 5.78628H14.0377V3.93667C14.0377 3.49639 13.6795 3.13818 13.2392 3.13818H11.7608C11.3206 3.13818 10.9624 3.49639 10.9624 3.93667V5.78633H9.1127C8.67241 5.78633 8.31421 6.14453 8.31421 6.58481V8.06318C8.31421 8.50347 8.67241 8.86162 9.1127 8.86162ZM9.29268 6.7648H11.4516C11.7218 6.7648 11.9408 6.54575 11.9408 6.27554V4.11665H13.0592V6.27554C13.0592 6.54575 13.2783 6.7648 13.5485 6.7648H15.7074V7.8832H13.5485C13.2783 7.8832 13.0592 8.10225 13.0592 8.37246V10.5313H11.9408V8.37246C11.9408 8.10225 11.7218 7.8832 11.4516 7.8832H9.29268V6.7648Z" fill="#0197E8"/>
<path d="M6.30859 14.3435H18.6916C18.9618 14.3435 19.1808 14.1245 19.1808 13.8542C19.1808 13.584 18.9618 13.365 18.6916 13.365H6.30859C6.03838 13.365 5.81934 13.584 5.81934 13.8542C5.81934 14.1245 6.03838 14.3435 6.30859 14.3435Z" fill="#0197E8"/>
<path d="M6.30859 16.8496H18.6916C18.9618 16.8496 19.1808 16.6306 19.1808 16.3604C19.1808 16.0901 18.9618 15.8711 18.6916 15.8711H6.30859C6.03838 15.8711 5.81934 16.0901 5.81934 16.3604C5.81934 16.6306 6.03838 16.8496 6.30859 16.8496Z" fill="#0197E8"/>
<path d="M6.30859 19.3557H18.6916C18.9618 19.3557 19.1808 19.1367 19.1808 18.8665C19.1808 18.5962 18.9618 18.3772 18.6916 18.3772H6.30859C6.03838 18.3772 5.81934 18.5962 5.81934 18.8665C5.81934 19.1367 6.03838 19.3557 6.30859 19.3557Z" fill="#0197E8"/>
<path d="M16.4709 20.8833H6.30859C6.03838 20.8833 5.81934 21.1023 5.81934 21.3726C5.81934 21.6428 6.03838 21.8618 6.30859 21.8618H16.4709C16.7411 21.8618 16.9602 21.6428 16.9602 21.3726C16.9601 21.1023 16.7411 20.8833 16.4709 20.8833Z" fill="#0197E8"/>
<path d="M18.6914 21.8621C18.9616 21.8621 19.1807 21.643 19.1807 21.3728C19.1807 21.1026 18.9616 20.8835 18.6914 20.8835C18.4212 20.8835 18.2021 21.1026 18.2021 21.3728C18.2021 21.643 18.4212 21.8621 18.6914 21.8621Z" fill="#0197E8"/>
</g>
<defs>
<clipPath id="clip0_2464_2931">
<rect width="25" height="25" fill="white"/>
</clipPath>
</defs>
</svg>
