<svg width="37" height="36" viewBox="0 0 37 36" fill="none" xmlns="http://www.w3.org/2000/svg">
<path id="Vector" d="M14.6794 35.5921C14.7091 35.5921 14.6497 35.595 14.6794 35.5921ZM28.7694 16.313C31.2223 16.313 33.2184 18.3092 33.2184 20.762C33.2184 23.2149 31.2223 25.2111 28.7694 25.2111C26.3165 25.2111 24.3204 23.2149 24.3204 20.762C24.3204 18.3092 26.3165 16.313 28.7694 16.313ZM25.8034 20.762C25.8034 22.3978 27.1337 23.728 28.7694 23.728C30.4052 23.728 31.7354 22.3978 31.7354 20.762C31.7354 19.1263 30.4052 17.796 28.7694 17.796C27.1337 17.796 25.8034 19.1263 25.8034 20.762ZM3.55836 20.762C3.55836 18.3092 5.55448 16.313 8.00737 16.313C10.4603 16.313 12.4564 18.3092 12.4564 20.762C12.4564 23.2149 10.4603 25.2111 8.00737 25.2111C5.55448 25.2111 3.55836 23.2149 3.55836 20.762ZM5.04136 20.762C5.04136 22.3978 6.37161 23.728 8.00737 23.728C9.64312 23.728 10.9734 22.3978 10.9734 20.762C10.9734 19.1263 9.64312 17.796 8.00737 17.796C6.37161 17.796 5.04136 19.1263 5.04136 20.762ZM8.00737 28.1771C4.20791 28.1771 1.02391 31.0096 0.596802 34.7675C0.550829 35.1739 0.84298 35.5417 1.24932 35.5876C1.64528 35.6351 2.02345 35.3429 2.07091 34.9351C2.41051 31.9291 4.96425 29.6615 8.00737 29.6615C11.0505 29.6615 13.6027 31.9291 13.9438 34.9351C13.9868 35.3133 14.3072 35.5921 14.6794 35.5921C15.0857 35.5461 15.4639 35.1753 15.4179 34.769C14.9908 31.0111 11.8053 28.1771 8.00737 28.1771ZM35.4429 35.5921C35.4726 35.5921 35.4133 35.595 35.4429 35.5921ZM36.18 34.7675C35.7529 31.0096 32.5674 28.1771 28.7694 28.1771C24.9714 28.1771 21.7859 31.0096 21.3588 34.7675C21.3129 35.1739 21.605 35.5417 22.0114 35.5876C22.4147 35.6351 22.784 35.3429 22.8329 34.9351C23.1726 31.9291 25.7263 29.6615 28.7694 29.6615C31.8125 29.6615 34.3648 31.9291 34.7059 34.9351C34.7489 35.3133 35.0707 35.5921 35.4429 35.5921C35.8493 35.5461 36.2259 35.1739 36.18 34.7675ZM22.3836 13.347L19.3879 15.9364C19.1062 16.187 18.7473 16.313 18.3899 16.313C18.0295 16.313 17.6676 16.1855 17.3785 15.9289L14.4466 13.347H13.9364C11.4835 13.347 9.4874 11.3509 9.4874 8.89802V4.44901C9.4874 1.99612 11.4835 0 13.9364 0H22.8344C25.2873 0 27.2834 1.99612 27.2834 4.44901V8.89802C27.2834 11.3509 25.2873 13.347 22.8344 13.347H22.3806H22.3836ZM22.1063 11.864H22.8359C24.4717 11.864 25.8019 10.5338 25.8019 8.89802V4.44901C25.8019 2.81326 24.4717 1.483 22.8359 1.483H13.9379C12.3021 1.483 10.9719 2.81326 10.9719 4.44901V8.89802C10.9719 10.5338 12.3021 11.864 13.9379 11.864H14.7269C14.9078 11.864 15.0813 11.9293 15.2162 12.0494L18.3602 14.8196L21.6198 12.045C21.7548 11.9293 21.9268 11.864 22.1048 11.864H22.1063Z" fill="#FC7900"/>
</svg>
