<svg width="36" height="36" viewBox="0 0 36 36" fill="none" xmlns="http://www.w3.org/2000/svg">
<g id="meeting 1" clip-path="url(#clip0_460_2729)">
<path id="Vector" d="M14.2488 36C14.2188 36.003 14.2788 36 14.2488 36V36ZM28.5003 16.5C30.9813 16.5 33.0003 18.519 33.0003 21C33.0003 23.481 30.9813 25.5 28.5003 25.5C26.0193 25.5 24.0003 23.481 24.0003 21C24.0003 18.519 26.0193 16.5 28.5003 16.5ZM25.5003 21C25.5003 22.6545 26.8458 24 28.5003 24C30.1548 24 31.5003 22.6545 31.5003 21C31.5003 19.3455 30.1548 18 28.5003 18C26.8458 18 25.5003 19.3455 25.5003 21ZM3.00032 21C3.00032 18.519 5.01931 16.5 7.50031 16.5C9.98131 16.5 12.0003 18.519 12.0003 21C12.0003 23.481 9.98131 25.5 7.50031 25.5C5.01931 25.5 3.00032 23.481 3.00032 21ZM4.50032 21C4.50032 22.6545 5.84581 24 7.50031 24C9.15481 24 10.5003 22.6545 10.5003 21C10.5003 19.3455 9.15481 18 7.50031 18C5.84581 18 4.50032 19.3455 4.50032 21ZM7.50031 28.5C3.65732 28.5 0.436815 31.365 0.00481546 35.166C-0.0416845 35.577 0.253815 35.949 0.664815 35.9955C1.06532 36.0435 1.44782 35.748 1.49582 35.3355C1.83932 32.295 4.42232 30.0015 7.50031 30.0015C10.5783 30.0015 13.1598 32.295 13.5048 35.3355C13.5483 35.718 13.8723 36 14.2488 36C14.6598 35.9535 15.0423 35.5785 14.9958 35.1675C14.5638 31.3665 11.3418 28.5 7.50031 28.5ZM35.2503 36C35.2203 36.003 35.2803 36 35.2503 36V36ZM35.9958 35.166C35.5638 31.365 32.3418 28.5 28.5003 28.5C24.6588 28.5 21.4368 31.365 21.0048 35.166C20.9583 35.577 21.2538 35.949 21.6648 35.9955C22.0728 36.0435 22.4463 35.748 22.4958 35.3355C22.8393 32.295 25.4223 30.0015 28.5003 30.0015C31.5783 30.0015 34.1598 32.295 34.5048 35.3355C34.5483 35.718 34.8738 36 35.2503 36C35.6613 35.9535 36.0423 35.577 35.9958 35.166ZM22.0413 13.5L19.0113 16.119C18.7263 16.3725 18.3633 16.5 18.0018 16.5C17.6373 16.5 17.2713 16.371 16.9788 16.1115L14.0133 13.5H13.4973C11.0163 13.5 8.99732 11.481 8.99732 9V4.5C8.99732 2.019 11.0163 0 13.4973 0H22.4973C24.9783 0 26.9973 2.019 26.9973 4.5V9C26.9973 11.481 24.9783 13.5 22.4973 13.5H22.0383H22.0413ZM21.7608 12H22.4988C24.1533 12 25.4988 10.6545 25.4988 9V4.5C25.4988 2.8455 24.1533 1.5 22.4988 1.5H13.4988C11.8443 1.5 10.4988 2.8455 10.4988 4.5V9C10.4988 10.6545 11.8443 12 13.4988 12H14.2968C14.4798 12 14.6553 12.066 14.7918 12.1875L17.9718 14.9895L21.2688 12.183C21.4053 12.066 21.5793 12 21.7593 12H21.7608Z" fill="#0070BA"/>
</g>
<defs>
<clipPath id="clip0_460_2729">
<rect width="36" height="36" fill="white"/>
</clipPath>
</defs>
</svg>
