<svg width="26" height="26" viewBox="0 0 26 26" fill="none" xmlns="http://www.w3.org/2000/svg">
<g clip-path="url(#clip0_2464_2866)">
<path d="M10.1562 0.8125H16.6562C17.105 0.8125 17.4688 1.17627 17.4688 1.625C17.4688 2.07373 17.105 2.4375 16.6562 2.4375H10.1562C9.70751 2.4375 9.34375 2.07373 9.34375 1.625C9.34375 1.17627 9.70751 0.8125 10.1562 0.8125Z" fill="#0197E8"/>
<path d="M24.375 2.4375H20.7188C20.27 2.4375 19.9062 2.07373 19.9062 1.625C19.9062 1.17627 20.27 0.8125 20.7188 0.8125H24.375C24.8237 0.8125 25.1875 1.17627 25.1875 1.625C25.1875 2.07373 24.8237 2.4375 24.375 2.4375Z" fill="#0197E8"/>
<path d="M6.09375 1.625C6.09375 1.17627 6.45751 0.8125 6.90625 0.8125C7.35499 0.8125 7.71875 1.17627 7.71875 1.625V22.4135L11.613 18.5192C11.9303 18.2019 12.4447 18.2019 12.762 18.5192C13.0793 18.8365 13.0793 19.351 12.762 19.6683L7.48077 24.9495C7.16349 25.2668 6.64901 25.2668 6.33173 24.9495L1.05048 19.6683C0.733175 19.351 0.733175 18.8365 1.05048 18.5192C1.36777 18.2019 1.88222 18.2019 2.19952 18.5192L6.09375 22.4135V1.625Z" fill="#0197E8"/>
<path d="M16.6562 14.625C17.105 14.625 17.4688 14.2612 17.4688 13.8125C17.4688 13.3638 17.105 13 16.6562 13H10.1562C9.70751 13 9.34375 13.3638 9.34375 13.8125C9.34375 14.2612 9.70751 14.625 10.1562 14.625H16.6562Z" fill="#0197E8"/>
<path d="M19.0938 10.5625C19.5425 10.5625 19.9062 10.1987 19.9062 9.75C19.9062 9.30126 19.5425 8.9375 19.0938 8.9375H16.25C15.8013 8.9375 15.4375 9.30126 15.4375 9.75C15.4375 10.1987 15.8013 10.5625 16.25 10.5625H19.0938Z" fill="#0197E8"/>
<path d="M12.1875 10.5625C12.6362 10.5625 13 10.1987 13 9.75C13 9.30126 12.6362 8.9375 12.1875 8.9375H10.1562C9.70751 8.9375 9.34375 9.30126 9.34375 9.75C9.34375 10.1987 9.70751 10.5625 10.1562 10.5625H12.1875Z" fill="#0197E8"/>
<path d="M21.5312 6.5C21.98 6.5 22.3438 6.13624 22.3438 5.6875C22.3438 5.23876 21.98 4.875 21.5312 4.875H10.1562C9.70751 4.875 9.34375 5.23876 9.34375 5.6875C9.34375 6.13624 9.70751 6.5 10.1562 6.5H21.5312Z" fill="#0197E8"/>
</g>
<defs>
<clipPath id="clip0_2464_2866">
<rect width="26" height="26" fill="white"/>
</clipPath>
</defs>
</svg>
