<svg width="31" height="31" viewBox="0 0 31 31" fill="none" xmlns="http://www.w3.org/2000/svg">
<g clip-path="url(#clip0_1733_3262)">
<path d="M30.3542 14.2083C29.9977 14.2083 29.7083 13.919 29.7083 13.5625C29.7083 6.79675 24.2032 1.29167 17.4375 1.29167C17.081 1.29167 16.7917 1.00233 16.7917 0.645833C16.7917 0.289333 17.081 0 17.4375 0C24.9162 0 31 6.08375 31 13.5625C31 13.919 30.7107 14.2083 30.3542 14.2083ZM25.8333 13.5625C25.8333 8.93317 22.0668 5.16667 17.4375 5.16667C17.081 5.16667 16.7917 5.456 16.7917 5.8125C16.7917 6.169 17.081 6.45833 17.4375 6.45833C21.3551 6.45833 24.5417 9.64487 24.5417 13.5625C24.5417 13.919 24.831 14.2083 25.1875 14.2083C25.544 14.2083 25.8333 13.919 25.8333 13.5625ZM28.7189 28.7667L29.9822 27.3136C30.6383 26.6574 31 25.7842 31 24.8568C31 23.9294 30.6383 23.055 29.9189 22.3445L26.7595 19.9252C25.4058 18.5716 23.2035 18.5703 21.8472 19.9214L19.8684 21.8511C15.1151 19.9149 11.2427 16.0386 9.15533 11.1264L11.0773 9.15662C12.4323 7.80167 12.4323 5.59679 11.1329 4.30512L8.6025 1.02042C7.28887 -0.293208 4.96904 -0.262208 3.72 0.990708L2.20358 2.31337C0.781458 3.72775 0 5.64846 0 7.719C0 17.7281 13.2719 31 23.281 31C25.3515 31 27.271 30.2185 28.7189 28.7667ZM7.63246 1.86775L10.1628 5.15246C11.014 6.00367 11.014 7.38963 10.1577 8.24729L7.93342 10.5284C7.75517 10.7118 7.70092 10.983 7.7965 11.2207C10.0298 16.7813 14.4008 21.151 19.7909 23.2074C20.026 23.2978 20.2921 23.2422 20.4716 23.0679L22.7527 20.8436C22.7527 20.8436 22.7566 20.8397 22.7579 20.8372C23.5832 20.0105 24.9589 19.9575 25.9095 20.8927L29.069 23.312C29.9202 24.1632 29.9202 25.5479 29.0392 26.4327L27.7747 27.8858C26.6019 29.0612 25.0054 29.7083 23.281 29.7083C14.0327 29.7083 1.29167 16.9673 1.29167 7.719C1.29167 5.99462 1.93879 4.39812 3.08321 3.255L4.60092 1.93104C5.03492 1.49704 5.60712 1.28521 6.17029 1.28521C6.7115 1.28521 7.24367 1.48154 7.63375 1.86904L7.63246 1.86775Z" fill="#0070BA"/>
</g>
<defs>
<clipPath id="clip0_1733_3262">
<rect width="31" height="31" fill="white"/>
</clipPath>
</defs>
</svg>
