<svg width="26" height="26" viewBox="0 0 26 26" fill="none" xmlns="http://www.w3.org/2000/svg">
<g clip-path="url(#clip0_2464_2880)">
<path d="M13 0C5.81491 0 0 5.81425 0 13C0 20.185 5.81425 26 13 26C20.1851 26 26 20.1857 26 13C26 5.81491 20.1857 0 13 0ZM13 24.186C6.83201 24.186 1.81396 19.168 1.81396 13C1.81396 6.83196 6.83201 1.81396 13 1.81396C19.168 1.81396 24.186 6.83196 24.186 13C24.186 19.168 19.168 24.186 13 24.186Z" fill="#0197E8"/>
<path d="M12.6154 16.4492C11.8967 16.4492 11.3149 17.0481 11.3149 17.7668C11.3149 18.4684 11.8796 19.0845 12.6154 19.0845C13.3513 19.0845 13.933 18.4684 13.933 17.7668C13.933 17.0481 13.3341 16.4492 12.6154 16.4492Z" fill="#0197E8"/>
<path d="M12.8379 6.47314C10.5277 6.47314 9.4668 7.84216 9.4668 8.76617C9.4668 9.43354 10.0315 9.74158 10.4935 9.74158C11.4176 9.74158 11.0411 8.42391 12.7865 8.42391C13.6421 8.42391 14.3266 8.8004 14.3266 9.58756C14.3266 10.5116 13.3683 11.042 12.8036 11.5212C12.3073 11.9489 11.6571 12.6505 11.6571 14.1222C11.6571 15.012 11.8967 15.2687 12.5983 15.2687C13.4367 15.2687 13.6079 14.8922 13.6079 14.567C13.6079 13.6772 13.625 13.1639 14.5661 12.4281C15.0282 12.0687 16.4826 10.9051 16.4826 9.29658C16.4826 7.68809 15.0282 6.47314 12.8379 6.47314Z" fill="#0197E8"/>
</g>
<defs>
<clipPath id="clip0_2464_2880">
<rect width="26" height="26" fill="white"/>
</clipPath>
</defs>
</svg>
