<svg width="32" height="32" viewBox="0 0 32 32" fill="none" xmlns="http://www.w3.org/2000/svg">
<g clip-path="url(#clip0_460_2731)">
<path d="M16 24C16.736 24 17.3333 24.5973 17.3333 25.3333C17.3333 26.0693 16.736 26.6667 16 26.6667C15.264 26.6667 14.6667 26.0693 14.6667 25.3333C14.6667 24.5973 15.264 24 16 24ZM32 26V6C32 2.692 29.308 0 26 0H6C2.692 0 0 2.692 0 6V26C0 29.308 2.692 32 6 32H26C29.308 32 32 29.308 32 26ZM26 1.33333C28.5733 1.33333 30.6667 3.42667 30.6667 6V26C30.6667 28.5733 28.5733 30.6667 26 30.6667H6C3.42667 30.6667 1.33333 28.5733 1.33333 26V6C1.33333 3.42667 3.42667 1.33333 6 1.33333H26ZM16.6667 20.6667V19.8053C16.6667 18.6187 17.4853 17.2733 18.5707 16.6747C20.5707 15.572 21.6467 13.308 21.2493 11.04C20.872 8.892 19.1093 7.128 16.9613 6.752C15.492 6.496 14.0227 6.83067 12.8267 7.69733C11.66 8.544 10.8747 9.836 10.6733 11.24C10.6213 11.604 10.8747 11.9427 11.2387 11.9947C11.6067 12.048 11.9413 11.7933 11.9933 11.4293C12.1427 10.38 12.732 9.41333 13.6093 8.77733C14.5093 8.12267 15.6187 7.87067 16.7307 8.06667C18.336 8.348 19.6547 9.66667 19.936 11.272C20.2413 13.0053 19.452 14.668 17.928 15.508C16.4 16.3507 15.3333 18.1187 15.3333 19.8067V20.668C15.3333 21.036 15.632 21.3347 16 21.3347C16.368 21.3347 16.6667 21.036 16.6667 20.668V20.6667Z" fill="#0070BA"/>
</g>
<defs>
<clipPath id="clip0_460_2731">
<rect width="32" height="32" fill="white"/>
</clipPath>
</defs>
</svg>
