<svg width="26" height="26" viewBox="0 0 26 26" fill="none" xmlns="http://www.w3.org/2000/svg">
<g clip-path="url(#clip0_2464_2910)">
<path d="M10.7788 19.8171L7.7151 22.8808C6.44496 24.151 4.38805 24.151 3.11897 22.8811C1.84963 21.6118 1.84963 19.5546 3.11871 18.2856L9.24718 12.1571C10.5163 10.888 12.5734 10.888 13.8425 12.1571C14.2655 12.5802 14.9515 12.5802 15.3745 12.1571C15.7976 11.734 15.7976 11.0481 15.3745 10.625C13.2593 8.50976 9.83036 8.50976 7.7151 10.625L1.58668 16.7534C-0.528569 18.8687 -0.528569 22.2976 1.58668 24.4129C3.70169 26.5292 7.13086 26.5292 9.24723 24.4129L12.3109 21.3492C12.734 20.9261 12.734 20.2401 12.3109 19.8171C11.8879 19.394 11.2019 19.3941 10.7788 19.8171Z" fill="#0197E8"/>
<path d="M24.4133 1.58644C22.2981 -0.528814 18.868 -0.528814 16.7528 1.58644L13.077 5.26221C12.6539 5.68527 12.6539 6.37123 13.077 6.79429C13.5001 7.21735 14.186 7.21735 14.6091 6.79429L18.2848 3.11852C19.5539 1.84939 21.6121 1.84939 22.8812 3.11852C24.1503 4.3876 24.1503 6.44471 22.8812 7.71379L16.1407 14.4544C14.8716 15.7235 12.8145 15.7235 11.5454 14.4544C11.1224 14.0313 10.4364 14.0313 10.0133 14.4544C9.59028 14.8774 9.59028 15.5634 10.0133 15.9865C12.1286 18.1017 15.5575 18.1017 17.6728 15.9865L24.4133 9.24592C26.5286 7.13067 26.5286 3.7017 24.4133 1.58644Z" fill="#0197E8"/>
</g>
<defs>
<clipPath id="clip0_2464_2910">
<rect width="26" height="26" fill="white"/>
</clipPath>
</defs>
</svg>
