<svg width="22" height="22" viewBox="0 0 22 22" fill="none" xmlns="http://www.w3.org/2000/svg">
<path d="M20.2607 9.68155L2.52478 1.02983C2.37225 0.955422 2.20476 0.916748 2.03504 0.916748C1.4181 0.916748 0.917969 1.41688 0.917969 2.03382V2.06606C0.917969 2.21595 0.936348 2.36528 0.972703 2.5107L2.67401 9.31589C2.72047 9.50179 2.87764 9.63911 3.06805 9.66028L10.5458 10.4911C10.8051 10.5199 11.0013 10.7391 11.0013 11.0001C11.0013 11.2611 10.8051 11.4802 10.5458 11.509L3.06805 12.3399C2.87764 12.3611 2.72047 12.4984 2.67401 12.6843L0.972703 19.4894C0.936348 19.6349 0.917969 19.7842 0.917969 19.9341V19.9664C0.917969 20.5833 1.4181 21.0834 2.03504 21.0834C2.20476 21.0834 2.37225 21.0447 2.52478 20.9703L20.2607 12.3186C20.7648 12.0728 21.0846 11.561 21.0846 11.0001C21.0846 10.4392 20.7648 9.9274 20.2607 9.68155Z" fill="#C2C2C2"/>
</svg>
