<svg width="26" height="26" viewBox="0 0 26 26" fill="none" xmlns="http://www.w3.org/2000/svg">
<g clip-path="url(#clip0_2464_2875)">
<path d="M17.9971 17.4893H16.4387L15.6291 17.129V16.146C16.7626 15.5215 17.6518 14.5065 18.1145 13.2836H18.809C20.4628 13.2836 21.8083 11.9381 21.8083 10.2843C21.8083 9.21639 21.2469 8.27765 20.4041 7.74612V7.40411C20.4042 3.32145 17.0827 0 13 0C8.91734 0 5.59584 3.32145 5.59584 7.40416V7.74592C4.75287 8.27745 4.19128 9.21624 4.19128 10.2843C4.19128 11.9381 5.53678 13.2836 7.19057 13.2836H7.88541C8.34813 14.5065 9.23736 15.5215 10.3709 16.146V17.1249L9.55221 17.4892H8.00287C3.59008 17.4893 0 21.0794 0 25.4922C0 25.7726 0.227348 26 0.507812 26H10.7148C10.9953 26 11.2227 25.7726 11.2227 25.4922C11.2227 25.2118 10.9953 24.9844 10.7148 24.9844H1.03386C1.28705 21.475 4.14365 18.6757 7.67686 18.5126C7.67554 18.5169 7.67371 18.5209 7.67249 18.5252C7.6313 18.6699 7.65644 18.8254 7.74104 18.9498L10.1433 22.4814C10.2284 22.6065 10.3648 22.6871 10.5154 22.7014C10.5314 22.7028 10.5473 22.7036 10.5632 22.7036C10.6972 22.7036 10.8266 22.6505 10.9222 22.5548L12.9955 20.4816L15.0687 22.5548C15.1643 22.6505 15.2937 22.7036 15.4277 22.7036C15.4435 22.7036 15.4595 22.7028 15.4754 22.7014C15.6261 22.6871 15.7626 22.6065 15.8477 22.4814L18.2499 18.9498C18.3345 18.8255 18.3596 18.6699 18.3185 18.5252C18.3172 18.5208 18.3154 18.5167 18.314 18.5123C21.8514 18.671 24.7127 21.472 24.9661 24.9844H15.2852C15.0047 24.9844 14.7773 25.2118 14.7773 25.4922C14.7773 25.7727 15.0047 26 15.2852 26H25.4922C25.7726 26 26 25.7727 26 25.4922C26 21.0794 22.4099 17.4893 17.9971 17.4893ZM17.4402 7.90243C16.3969 7.75917 15.4178 7.34348 14.5859 6.68535C14.4036 6.54103 14.1464 6.5391 13.9618 6.68073C12.8709 7.51771 11.5659 7.96011 10.188 7.96011C9.63503 7.96011 9.08974 7.88643 8.56157 7.74328V7.48511C8.56157 5.03786 10.5525 3.04688 12.9998 3.04688C15.447 3.04688 17.4381 5.03786 17.4381 7.48511C17.4381 7.48511 17.4391 7.88882 17.4402 7.90243ZM18.8091 12.268H18.4659V8.3006H18.8091C19.9029 8.3006 20.7927 9.19044 20.7927 10.2843C20.7927 11.3781 19.9029 12.268 18.8091 12.268ZM13 1.01562C16.5017 1.01562 19.354 3.84764 19.3877 7.34155C19.2004 7.30478 19.007 7.28498 18.809 7.28498H18.4496C18.3439 4.37008 15.9401 2.03125 12.9998 2.03125C10.0595 2.03125 7.65568 4.37008 7.54995 7.28498H7.19063C6.99278 7.28498 6.79956 7.30473 6.61228 7.3415C6.6461 3.84764 9.49833 1.01562 13 1.01562ZM7.5337 12.268H7.19063C6.0968 12.268 5.20696 11.3781 5.20696 10.2843C5.20696 9.19044 6.0968 8.30055 7.19063 8.30055H7.53375L7.5337 12.268ZM8.54933 11.3549V8.78846C9.08436 8.91277 9.63305 8.97574 10.188 8.97574C11.6616 8.97574 13.0637 8.5408 14.2667 7.71408C15.2123 8.38053 16.3001 8.7943 17.4503 8.92704V11.3823C17.4474 11.8583 17.3694 12.3168 17.2275 12.7466H14.8025C14.5927 12.1532 14.0264 11.7269 13.3622 11.7269H12.6824C11.8401 11.7269 11.1549 12.4121 11.1549 13.2544C11.1549 14.0966 11.8401 14.7819 12.6824 14.7819H13.3622C14.0264 14.7819 14.5928 14.3555 14.8025 13.7622H16.7418C15.9488 14.9906 14.5678 15.8056 13 15.8056C10.5459 15.8056 8.54933 13.809 8.54933 11.3549ZM13.8741 13.2544C13.8741 13.5367 13.6445 13.7662 13.3622 13.7662H12.6824C12.4002 13.7662 12.1706 13.5367 12.1706 13.2544C12.1706 12.9721 12.4002 12.7425 12.6824 12.7425H13.3622C13.6445 12.7425 13.8741 12.9721 13.8741 13.2544ZM13 16.8212C13.5614 16.8212 14.1033 16.736 14.6135 16.578V17.4272L12.9955 19.0452L11.3865 17.4362V16.578C11.8967 16.736 12.4386 16.8212 13 16.8212ZM10.6379 21.4028L8.92262 18.8811L10.6335 18.1197L12.2773 19.7635L10.6379 21.4028ZM15.353 21.4028L13.7136 19.7635L15.3574 18.1197L17.0683 18.8811L15.353 21.4028Z" fill="#0197E8"/>
<path d="M13 24.9844C12.8664 24.9844 12.7354 25.0387 12.641 25.1332C12.5465 25.2276 12.4922 25.3586 12.4922 25.4922C12.4922 25.6257 12.5465 25.7568 12.641 25.8512C12.7354 25.9456 12.8664 26 13 26C13.1336 26 13.2646 25.9457 13.359 25.8512C13.4535 25.7568 13.5078 25.6257 13.5078 25.4922C13.5078 25.3586 13.4535 25.2276 13.359 25.1332C13.2646 25.0387 13.1336 24.9844 13 24.9844Z" fill="#0197E8"/>
</g>
<defs>
<clipPath id="clip0_2464_2875">
<rect width="26" height="26" fill="white"/>
</clipPath>
</defs>
</svg>
