<svg width="26" height="26" viewBox="0 0 26 26" fill="none" xmlns="http://www.w3.org/2000/svg">
<g clip-path="url(#clip0_2464_2940)">
<path d="M25.762 6.73811L19.262 0.238113C18.9445 -0.0793711 18.4304 -0.0793711 18.1131 0.238113C17.7958 0.555598 17.7956 1.06971 18.1131 1.38699L19.1637 2.43755L16.2501 5.35118L13.5745 2.67561C13.257 2.35813 12.7429 2.35813 12.4256 2.67561C12.1083 2.9931 12.1081 3.50721 12.4256 3.82449L13.4762 4.87505L4.87505 13.4762C4.2411 14.1097 4.2411 15.1404 4.87505 15.7741L5.35118 16.2501L3.82469 17.7763C3.36441 18.237 3.1105 18.849 3.1105 19.5001C3.1105 20.1037 3.33699 20.6688 3.73593 21.1155L0.238113 24.6131C-0.0793711 24.9306 -0.0793711 25.4447 0.238113 25.762C0.396754 25.9206 0.604754 26 0.812551 26C1.02035 26 1.22835 25.9206 1.38699 25.762L4.8848 22.2642C5.34529 22.6739 5.91972 22.8882 6.50005 22.8882C7.12364 22.8882 7.74825 22.6505 8.22336 22.1756L9.75005 20.6489L10.2262 21.1251C10.5428 21.4421 10.9593 21.6004 11.3751 21.6004C11.7908 21.6004 12.2075 21.4421 12.5239 21.1251L21.1251 12.5239L22.1756 13.5745C22.3343 13.7331 22.5423 13.8126 22.7501 13.8126C22.9578 13.8126 23.1658 13.7331 23.3245 13.5745C23.642 13.257 23.642 12.7429 23.3245 12.4256L20.6489 9.75005L23.5626 6.83643L24.6131 7.88699C24.7718 8.04563 24.9798 8.12505 25.1876 8.12505C25.3953 8.12505 25.6033 8.04563 25.762 7.88699C26.0795 7.56971 26.0795 7.0554 25.762 6.73811ZM7.07449 21.0263C6.757 21.3438 6.24289 21.3434 5.92561 21.0267L4.97336 20.0743C4.81939 19.9211 4.7353 19.7172 4.7353 19.5003C4.7353 19.2833 4.81939 19.0794 4.97336 18.9258L6.50005 17.3989L8.60118 19.5001L7.07449 21.0263ZM17.8751 13.4762L15.1995 10.8006C14.882 10.4831 14.3679 10.4831 14.0506 10.8006C13.7333 11.1181 13.7331 11.6322 14.0506 11.9495L16.7262 14.6251L14.6251 16.7262L11.9495 14.0506C11.632 13.7331 11.1179 13.7331 10.8006 14.0506C10.4833 14.3681 10.4831 14.8822 10.8006 15.1995L13.4762 17.8751L11.3751 19.9762L6.02393 14.6251L14.6251 6.02393L19.9762 11.3751L17.8751 13.4762ZM19.5001 8.60118L17.3989 6.50005L20.3126 3.58643L22.4137 5.68755L19.5001 8.60118Z" fill="#0197E8"/>
</g>
<defs>
<clipPath id="clip0_2464_2940">
<rect width="26" height="26" fill="white"/>
</clipPath>
</defs>
</svg>
