<svg width="221" height="85" viewBox="0 0 221 85" fill="none" xmlns="http://www.w3.org/2000/svg">
<g id="Component 22/Layer_1" clip-path="url(#clip0_4_630)">
<path id="Vector" d="M25.715 0H0V43.2642H25.715V0ZM23.0749 40.6071H2.64009V2.65162H23.0749V40.6071Z" fill="#0081C6"/>
<path id="Vector_2" d="M132.228 40.6072H28.3169V43.2643H132.228V40.6072Z" fill="#0081C6"/>
<path id="Vector_3" d="M20.8268 35.2325C20.8268 37.2595 19.8252 38.2731 17.8274 38.2731H7.87129C5.88441 38.2731 4.88826 37.2595 4.88826 35.2325V27.2995H9.83094V34.082H15.8732V27.5515L5.96062 18.1065C5.24208 17.4107 4.88281 16.5232 4.88281 15.4494V8.04787C4.88281 6.00436 5.87353 4.98535 7.86584 4.98535H17.8165C19.8197 4.98535 20.8159 5.99341 20.8159 8.00404V15.4494H15.8732V9.17645H9.83094V15.1974L19.7435 24.5986C20.4621 25.2779 20.8213 26.1764 20.8213 27.2995V35.2325H20.8268Z" fill="black"/>
<path id="Vector_4" d="M38.654 38.2732H33.2867C31.5013 38.2732 30.6031 37.3911 30.6031 35.6161V20.9445H28.3223V16.7972H30.6031V10.968H35.4206V16.7972H38.5234V20.9445H35.4206V34.1314H38.654V38.2786V38.2732Z" fill="black"/>
<path id="Vector_5" d="M50.2487 20.3694H45.7034V25.5192H50.2487V20.3694ZM54.8756 35.6162C54.8756 37.3858 53.9666 38.2733 52.1485 38.2733H43.7982C41.98 38.2733 41.0764 37.3858 41.0764 35.6162V19.4545C41.0764 17.6849 41.9855 16.7974 43.7982 16.7974H52.1485C53.9666 16.7974 54.8756 17.6849 54.8756 19.4545V27.3436L53.542 28.6858H45.7034V34.7068H50.2432V31.1348H54.8702V35.6217L54.8756 35.6162Z" fill="black"/>
<path id="Vector_6" d="M81.5814 38.2732H76.7857V20.8568L72.2404 20.9445V38.2787H67.4229V20.8623L62.8776 20.95V38.2841H58.0383V16.7918H62.8776V17.5807C64.0044 17.3944 65.1257 17.2136 66.2362 17.0273C67.6025 16.8137 68.7348 16.7041 69.6384 16.7041C70.7489 16.7041 71.4728 17.0273 71.794 17.6629C72.9807 17.4766 74.1619 17.2903 75.3432 17.0876C76.9109 16.8356 78.1085 16.7041 78.9359 16.7041C80.6996 16.7041 81.576 17.5752 81.576 19.3229V38.2732H81.5814Z" fill="black"/>
<path id="Vector_7" d="M89.5781 4.99097H84.8259V38.2787H89.5781V4.99097Z" fill="black"/>
<path id="Vector_8" d="M97.7103 38.2732H92.9582V16.7918H97.7103V38.2732ZM97.7484 13.7073H92.9092V8.68896H97.7484V13.7073Z" fill="black"/>
<path id="Vector_9" d="M115.195 38.2731H110.334V20.8567L105.788 20.9444V38.2786H100.949V16.7917H105.788V17.5806C106.915 17.3943 108.037 17.219 109.147 17.0491C110.53 16.819 111.662 16.7095 112.549 16.7095C114.313 16.7095 115.189 17.5806 115.189 19.3282V38.2786L115.195 38.2731Z" fill="black"/>
<path id="Vector_10" d="M127.486 20.3694H122.941V25.5192H127.486V20.3694ZM132.113 35.6162C132.113 37.3858 131.204 38.2733 129.386 38.2733H121.036C119.218 38.2733 118.314 37.3858 118.314 35.6162V19.4545C118.314 17.6849 119.223 16.7974 121.036 16.7974H129.386C131.204 16.7974 132.113 17.6849 132.113 19.4545V27.3436L130.78 28.6858H122.941V34.7068H127.481V31.1348H132.108V35.6217L132.113 35.6162Z" fill="black"/>
<path id="Vector_11" d="M137.513 18.8023C137.388 18.753 137.208 18.7311 136.98 18.7311H136.757V19.7556H137.116C137.328 19.7556 137.497 19.7117 137.622 19.6241C137.742 19.5364 137.807 19.394 137.807 19.2022C137.807 19.0105 137.715 18.8735 137.524 18.7968M135.831 21.6512V18.1065C136.049 18.1065 136.376 18.1065 136.811 18.1065C137.246 18.1065 137.491 18.1065 137.54 18.1065C137.818 18.1284 138.047 18.1887 138.232 18.2928C138.547 18.4681 138.7 18.7475 138.7 19.1365C138.7 19.4323 138.613 19.646 138.45 19.783C138.286 19.9199 138.079 19.9966 137.84 20.024C138.063 20.0678 138.226 20.1391 138.341 20.2267C138.547 20.3966 138.651 20.6595 138.651 21.0211V21.3389C138.651 21.3772 138.651 21.4101 138.656 21.443C138.656 21.4758 138.667 21.5087 138.684 21.5471L138.716 21.6457H137.84C137.813 21.5361 137.791 21.3663 137.785 21.1581C137.775 20.9444 137.753 20.7965 137.726 20.7253C137.677 20.5993 137.595 20.5171 137.464 20.4623C137.399 20.4349 137.29 20.413 137.149 20.4075L136.947 20.3911H136.757V21.6457H135.831V21.6512ZM135.352 18.0189C134.846 18.5393 134.596 19.1584 134.596 19.8706C134.596 20.5828 134.851 21.2403 135.368 21.7607C135.88 22.2757 136.501 22.5387 137.219 22.5387C137.938 22.5387 138.558 22.2757 139.07 21.7552C139.582 21.2293 139.838 20.6047 139.838 19.8706C139.838 19.1365 139.582 18.5448 139.076 18.0189C138.564 17.482 137.943 17.219 137.219 17.219C136.495 17.219 135.869 17.482 135.352 18.0189ZM139.446 22.1661C138.825 22.7688 138.085 23.0701 137.219 23.0701C136.354 23.0701 135.575 22.7633 134.96 22.1442C134.351 21.5306 134.04 20.7746 134.04 19.8706C134.04 18.9667 134.372 18.1613 135.031 17.5422C135.652 16.9615 136.381 16.6711 137.214 16.6711C138.09 16.6711 138.841 16.9834 139.462 17.608C140.083 18.2325 140.393 18.9831 140.393 19.8651C140.393 20.7472 140.072 21.5361 139.44 22.1607" fill="black"/>
<path id="Vector_12" d="M212.797 83.6137H213.276C215.758 83.6137 217.021 82.8741 217.451 80.9895L220.995 65.2167H219.122L216.667 77.7517L214.136 65.2167H212.29L215.301 78.1845C215.529 79.1268 215.78 80.091 215.78 80.6279C215.78 81.5483 215.35 82.1564 212.791 82.1564V83.6082L212.797 83.6137ZM203.358 79.9431H205.203V67.8136C205.96 67.0246 206.874 66.4384 207.734 66.4384C208.671 66.4384 209.128 66.9972 209.128 68.5258V79.9431H210.973V68.1204C210.973 66.1316 210.162 64.9866 208.72 64.9866C207.353 64.9866 206.139 65.7262 205.203 66.7452V65.2167H203.358V79.9431ZM196.923 78.5954C196.036 78.5954 195.252 77.9818 195.252 76.4258C195.252 74.4152 196.417 73.7797 199.302 72.2457V76.8313C198.872 77.6476 198.012 78.5899 196.923 78.5899M196.341 80.1732C197.887 80.1732 198.948 79.1049 199.357 77.9051C199.406 78.3653 199.558 79.3021 199.634 79.9431H201.278C201.202 79.4062 201.153 77.7791 201.153 77.0121V69.8516C201.153 66.5425 200.19 64.9866 197.588 64.9866C194.773 64.9866 193.636 66.411 193.614 69.3969L195.437 69.4242V68.9147C195.437 66.9753 196.346 66.3946 197.49 66.3946C198.883 66.3946 199.313 67.2821 199.313 69.9611V71.0076C195.007 72.947 193.412 73.9386 193.412 76.8915C193.412 78.7268 194.577 80.1787 196.346 80.1787M187.942 78.6994C186.951 78.6994 186.167 78.2119 185.612 77.6311V67.5944C186.118 67.0849 186.951 66.4439 187.893 66.4439C189.613 66.4439 189.891 67.9779 189.891 70.8542V74.0098C189.891 77.0668 189.586 78.6994 187.942 78.6994ZM183.767 84.7861H185.612V78.7707C186.194 79.4336 187.054 80.1732 188.219 80.1732C190.952 80.1732 191.736 77.7243 191.736 73.955V70.8487C191.736 67.8903 191.257 64.9866 188.421 64.9866C187.103 64.9866 186.194 65.6988 185.606 66.4384V65.2167H183.761V84.7861H183.767ZM167.964 79.9431H169.684V67.7369C170.523 66.8438 171.53 66.2357 172.417 66.2357C173.304 66.2357 173.887 66.6466 173.887 68.3724V79.9376H175.634V68.3176C175.634 68.1149 175.607 67.9396 175.585 67.7588C176.418 66.8384 177.43 66.2302 178.345 66.2302C179.178 66.2302 179.815 66.6411 179.815 68.3669V79.9321H181.535V68.3121C181.535 65.7427 180.348 64.9483 179.053 64.9483C177.757 64.9483 176.445 65.6112 175.454 66.8603C175.079 65.4085 174.137 64.9483 173.125 64.9483C171.862 64.9483 170.642 65.5619 169.679 66.7069V65.2058H167.959V79.9321L167.964 79.9431ZM161.993 78.7707C160.093 78.7707 159.968 77.1161 159.968 74.722V70.4433C159.968 68.0491 160.093 66.3946 161.993 66.3946C163.892 66.3946 164.045 68.0491 164.045 70.4433V74.722C164.045 77.1161 163.92 78.7707 161.993 78.7707ZM161.993 80.1732C165.057 80.1732 165.917 78.1845 165.917 74.6179V70.5419C165.917 66.9699 165.057 64.9866 161.993 64.9866C158.928 64.9866 158.095 66.9972 158.095 70.5419V74.6179C158.095 78.1899 158.955 80.1732 161.993 80.1732ZM151.383 80.2006C155.205 80.2006 156.239 77.653 156.239 74.0372V72.8155H154.415V74.1632C154.415 76.8641 153.958 78.6501 151.405 78.6501C148.852 78.6501 148.139 77.1216 148.139 74.0591V65.2715C148.139 62.5158 148.623 60.6586 151.405 60.6586C153.964 60.6586 154.415 62.3405 154.415 65.0195V66.2193H156.239V64.9702C156.239 61.3817 155.052 59.1136 151.383 59.1136C147.306 59.1136 146.19 61.7597 146.19 65.5619V73.7687C146.19 77.3572 147.23 80.2115 151.383 80.2115M135.712 78.6994C134.726 78.6994 133.942 78.2119 133.382 77.6311V67.5944C133.888 67.0849 134.721 66.4439 135.663 66.4439C137.383 66.4439 137.66 67.9779 137.66 70.8542V74.0098C137.66 77.0668 137.355 78.6994 135.712 78.6994ZM131.536 84.7861H133.382V78.7707C133.964 79.4336 134.824 80.1732 135.989 80.1732C138.722 80.1732 139.506 77.7243 139.506 73.955V70.8487C139.506 67.8903 139.027 64.9866 136.185 64.9866C134.868 64.9866 133.959 65.6988 133.376 66.4384V65.2167H131.531V84.7861H131.536ZM123.763 80.1732C125.157 80.1732 126.398 79.4062 127.334 78.3105V79.9431H129.179V65.2167H127.334V77.2422C126.577 78.0804 125.636 78.694 124.748 78.694C123.812 78.694 123.36 78.1571 123.36 76.6286V65.2112H121.488V77.034C121.488 79.0227 122.272 80.1677 123.763 80.1677M115.641 78.7707C113.742 78.7707 113.616 77.1161 113.616 74.722V70.4433C113.616 68.0491 113.742 66.3946 115.641 66.3946C117.541 66.3946 117.688 68.0491 117.688 70.4433V74.722C117.688 77.1161 117.563 78.7707 115.641 78.7707ZM115.641 80.1732C118.706 80.1732 119.561 78.1845 119.561 74.6179V70.5419C119.561 66.9699 118.701 64.9866 115.641 64.9866C112.582 64.9866 111.744 66.9972 111.744 70.5419V74.6179C111.744 78.1899 112.604 80.1732 115.641 80.1732ZM105.206 79.9431H107.079V68.6299C107.786 67.4574 108.701 66.9205 109.866 66.9205C110.171 66.9205 110.552 66.9972 110.78 67.0739V65.0852C110.628 65.0633 110.552 65.0633 110.448 65.0633C109.338 65.0633 108.021 65.6714 107.079 67.2273V65.2167H105.206V79.9431ZM97.4656 80.2225C99.5668 80.2225 100.628 79.1816 101.162 77.5983L101.39 79.9431H102.631V69.9557H97.8194V71.4075H100.857V73.829C100.857 76.886 100.171 78.6447 97.6398 78.6447C94.9834 78.6447 94.3519 76.886 94.3519 73.8783V65.392C94.3519 62.6418 94.7819 60.6531 97.618 60.6531C100.127 60.6531 100.732 62.1323 100.732 65.0359V65.7481H102.555V65.0359C102.555 61.2393 101.265 59.0972 97.5908 59.0972C93.4918 59.0972 92.4031 61.6447 92.4031 65.5947V73.6427C92.4031 77.5928 93.568 80.217 97.471 80.217M83.3343 79.9431H85.1796V65.2167H83.3343V79.9431ZM83.3343 63.1787H85.1796V60.6586H83.3343V63.1787ZM73.2856 79.9431H75.131V67.8136C75.8931 67.0246 76.8021 66.4384 77.6622 66.4384C78.5985 66.4384 79.0503 66.9972 79.0503 68.5258V79.9431H80.8956V68.1204C80.8956 66.1316 80.0845 64.9866 78.642 64.9866C77.2757 64.9866 76.0564 65.7262 75.1255 66.7452V65.2167H73.2802V79.9431H73.2856ZM68.8329 79.9431H70.6782V65.2167H68.8329V79.9431ZM68.8329 63.1787H70.6782V60.6586H68.8329V63.1787ZM61.74 79.9431H63.618V68.6299C64.3257 67.4574 65.2347 66.9205 66.3996 66.9205C66.7045 66.9205 67.0801 66.9972 67.3141 67.0739V65.0852C67.1617 65.0633 67.0855 65.0633 66.9821 65.0633C65.8716 65.0633 64.5543 65.6714 63.618 67.2273V65.2167H61.74V79.9431ZM55.186 78.5954C54.3042 78.5954 53.5203 77.9818 53.5203 76.4258C53.5203 74.4152 54.6798 73.7797 57.5703 72.2457V76.8313C57.1403 77.6476 56.2802 78.5899 55.1915 78.5899M54.6036 80.1732C56.1441 80.1732 57.211 79.1049 57.6138 77.9051C57.6628 78.3653 57.8152 79.3021 57.8915 79.9431H59.5354C59.4592 79.4062 59.4102 77.7791 59.4102 77.0121V69.8516C59.4102 66.5425 58.4467 64.9866 55.8447 64.9866C53.0304 64.9866 51.8927 66.411 51.871 69.3969L53.6945 69.4242V68.9147C53.6945 66.9753 54.609 66.3946 55.7467 66.3946C57.1403 66.3946 57.5703 67.2821 57.5703 69.9611V71.0076C53.2645 72.947 51.675 73.9386 51.675 76.8915C51.675 78.7268 52.8345 80.1787 54.609 80.1787M42.2251 79.9431H44.0704V67.8136C44.8325 67.0246 45.7416 66.4384 46.6017 66.4384C47.5379 66.4384 47.9952 66.9972 47.9952 68.5258V79.9431H49.8405V68.1204C49.8405 66.1316 49.0295 64.9866 47.5869 64.9866C46.2206 64.9866 45.0067 65.7262 44.0704 66.7452V65.2167H42.2251V79.9431ZM34.2994 71.3363V70.3446C34.2994 67.2109 34.8818 66.3946 36.4006 66.3946C38.1969 66.3946 38.3983 67.7916 38.3983 70.1145V71.3363H34.2939H34.2994ZM36.406 80.1732C39.2421 80.1732 40.2056 78.4146 40.2056 75.741V74.9247H38.4038V75.9437C38.4038 78.2666 37.5437 78.7761 36.406 78.7761C34.9145 78.7761 34.3048 77.8558 34.3048 74.9795V72.4101H40.2273V71.0843C40.2273 66.9315 39.4925 64.9976 36.4332 64.9976C33.7224 64.9976 32.4595 66.3453 32.4595 70.7062V74.4262C32.4595 78.7049 33.6516 80.1841 36.4115 80.1841M17.1633 79.9431H18.7582L19.1611 63.5348L23.0368 79.9431H24.2779L28.2027 63.5074L28.6055 79.9431H30.2005L29.6942 59.3054H27.7672L23.6411 77.2202L19.5911 59.3054H17.6641L17.1579 79.9431H17.1633ZM3.18988 73.0127L5.36728 61.8803L7.54467 73.0127H3.18988ZM0 79.9431H1.87256L2.91226 74.4152H7.80051L8.813 79.9431H10.7128L6.35799 59.3054H4.32757L0 79.9431Z" fill="black"/>
</g>
<defs>
<clipPath id="clip0_4_630">
<rect width="221" height="84.7862" fill="white"/>
</clipPath>
</defs>
</svg>
