<svg width="26" height="26" viewBox="0 0 26 26" fill="none" xmlns="http://www.w3.org/2000/svg">
<g clip-path="url(#clip0_2464_2859)">
<path d="M10.0861 23.982C10.0268 23.982 10.1466 23.9929 10.0861 23.982V23.982ZM12.0426 2.03627C16.945 2.03627 21.1105 5.53097 21.9473 10.3459C22.0434 10.8992 22.5702 11.2699 23.1233 11.1736C23.6767 11.0775 24.0472 10.5509 23.9511 9.9976C23.0562 4.3563 17.7647 -0.0893827 12.0425 0.00249747C-2.76551 0.503694 -4.49537 21.025 10.0861 23.982C11.3154 23.9532 11.4789 22.2129 10.2637 21.9638C-1.68557 19.532 -0.148778 2.33408 12.0426 2.03627ZM24.9831 20.198C24.4547 20.0076 23.872 20.2815 23.6815 20.8098C21.7906 25.8456 14.3763 24.5605 14.3052 19.1715C14.2435 15.7336 18.0382 13.2617 21.1514 14.8075C21.6616 15.0421 22.2656 14.8187 22.5002 14.3085C22.7349 13.7982 22.5115 13.1943 22.0013 12.9597C21.0601 12.5268 20.096 12.3073 19.1357 12.3073C15.3507 12.3073 12.2714 15.3867 12.2714 19.1716C12.3734 26.8293 22.9078 28.6562 25.595 21.4993C25.7853 20.9712 25.5114 20.3884 24.9831 20.198ZM25.7055 16.4806L21.7369 20.4866C21.2486 20.9823 20.5955 21.2564 19.9001 21.2564C19.2046 21.2564 18.5516 20.9823 18.0612 20.4845L16.6285 19.0178C15.723 18.0198 17.1058 16.6674 18.0835 17.5967L19.5131 19.0603C19.7174 19.2756 20.0851 19.2752 20.29 19.0572L24.2605 15.0492C24.6558 14.6502 25.2997 14.6472 25.6987 15.0424C26.0978 15.4377 26.1008 16.0816 25.7055 16.4806ZM13.0341 10.9164V5.5447C13.0341 4.98304 12.5788 4.52776 12.0171 4.52776C11.4555 4.52776 11.0002 4.98304 11.0002 5.5447V10.9164C10.6585 11.218 10.4534 11.6942 10.4973 12.1787L7.59173 15.0404C6.94237 15.6703 7.41219 16.7916 8.30542 16.7818C8.56306 16.7818 8.82085 16.6845 9.01895 16.4895L11.9756 13.5775C13.3945 13.6188 14.0817 11.8448 13.0341 10.9164Z" fill="#0197E8"/>
</g>
<defs>
<clipPath id="clip0_2464_2859">
<rect width="26" height="26" fill="white"/>
</clipPath>
</defs>
</svg>
