<svg width="26" height="26" viewBox="0 0 26 26" fill="none" xmlns="http://www.w3.org/2000/svg">
<path d="M5.29796 17.283C7.8624 20.3485 10.9494 22.7621 14.4728 24.47C15.8143 25.1057 17.6084 25.8599 19.6071 25.9892C19.731 25.9946 19.8496 26 19.9735 26C21.3149 26 22.3924 25.5367 23.2706 24.5831C23.276 24.5777 23.2868 24.5669 23.2922 24.5562C23.6046 24.179 23.9602 23.8396 24.3319 23.4787C24.5852 23.2362 24.8438 22.983 25.0916 22.7244C26.2391 21.5284 26.2391 20.0091 25.0808 18.8508L21.8429 15.6129C21.2934 15.0419 20.6361 14.7402 19.9465 14.7402C19.2569 14.7402 18.5943 15.0419 18.0286 15.6075L16.0999 17.5363C15.9221 17.4339 15.7389 17.3423 15.5665 17.2561C15.351 17.1484 15.1517 17.046 14.9739 16.9329C13.2176 15.8177 11.6229 14.363 10.0982 12.4936C9.3278 11.5184 8.8106 10.6995 8.44964 9.86448C8.95606 9.40655 9.43016 8.92706 9.88809 8.45835C10.0497 8.29134 10.2167 8.12433 10.3837 7.95731C10.9656 7.37547 11.2781 6.70203 11.2781 6.01782C11.2781 5.33361 10.971 4.66017 10.3837 4.07833L8.77827 2.47286C8.58971 2.28429 8.41192 2.10112 8.22875 1.91256C7.87318 1.54621 7.50144 1.16908 7.13509 0.829673C6.58018 0.285537 5.92829 0 5.2387 0C4.55449 0 3.89721 0.285537 3.32075 0.83506L1.30583 2.84998C0.573134 3.58268 0.158298 4.47161 0.0720979 5.50062C-0.0302643 6.78823 0.206785 8.15665 0.820958 9.81061C1.76377 12.3697 3.18606 14.7455 5.29796 17.283ZM1.38664 5.61376C1.45129 4.89722 1.72606 4.29921 2.24325 3.78201L4.2474 1.77787C4.55987 1.47617 4.90467 1.31993 5.2387 1.31993C5.56733 1.31993 5.90136 1.47617 6.20844 1.78864C6.5694 2.12267 6.90882 2.47286 7.27517 2.84459C7.45834 3.03315 7.6469 3.22172 7.83546 3.41567L9.44093 5.02114C9.77496 5.35516 9.94736 5.69457 9.94736 6.02859C9.94736 6.36262 9.77496 6.70203 9.44093 7.03605C9.27392 7.20307 9.10691 7.37547 8.9399 7.54248C8.43886 8.0489 7.97015 8.52839 7.45295 8.98632C7.44218 8.9971 7.43679 9.00249 7.42601 9.01326C6.97885 9.46042 7.04889 9.88603 7.15664 10.2093C7.16203 10.2254 7.16742 10.2362 7.1728 10.2524C7.58764 11.2491 8.1641 12.1973 9.06381 13.3286C10.6801 15.322 12.3825 16.8682 14.2573 18.0588C14.489 18.2097 14.7368 18.3282 14.9685 18.4467C15.184 18.5545 15.3833 18.6569 15.5611 18.77C15.5827 18.7808 15.5988 18.7915 15.6204 18.8023C15.7982 18.8939 15.9706 18.937 16.143 18.937C16.574 18.937 16.8541 18.6622 16.9457 18.5707L18.9606 16.5557C19.2731 16.2433 19.6125 16.0763 19.9465 16.0763C20.356 16.0763 20.69 16.3295 20.9001 16.5557L24.1488 19.799C24.7953 20.4455 24.7899 21.1459 24.1326 21.8301C23.9063 22.0725 23.6693 22.3042 23.4161 22.5466C23.0389 22.913 22.6457 23.2901 22.2901 23.7157C21.6705 24.3838 20.9324 24.6962 19.9789 24.6962C19.8873 24.6962 19.7903 24.6908 19.6987 24.6855C17.9316 24.5723 16.2884 23.8827 15.0547 23.2955C11.7037 21.6738 8.76211 19.3734 6.32158 16.4534C4.31205 14.0344 2.95979 11.7824 2.06547 9.36883C1.51056 7.88728 1.30044 6.69664 1.38664 5.61376Z" fill="#0197E8"/>
</svg>
