<svg width="27" height="153" viewBox="0 0 27 153" fill="none" xmlns="http://www.w3.org/2000/svg">
<g id="Group 24029">
<circle id="Ellipse 8" cx="22.5" cy="4.5" r="4.5" transform="rotate(90 22.5 4.5)" fill="#B1CBEF"/>
<circle id="Ellipse 15" cx="4.5" cy="4.5" r="4.5" transform="rotate(90 4.5 4.5)" fill="#B1CBEF"/>
<circle id="Ellipse 9" cx="22.5" cy="28.5" r="4.5" transform="rotate(90 22.5 28.5)" fill="#B1CBEF"/>
<circle id="Ellipse 16" cx="4.5" cy="28.5" r="4.5" transform="rotate(90 4.5 28.5)" fill="#B1CBEF"/>
<circle id="Ellipse 10" cx="22.5" cy="52.5" r="4.5" transform="rotate(90 22.5 52.5)" fill="#B1CBEF"/>
<circle id="Ellipse 17" cx="4.5" cy="52.5" r="4.5" transform="rotate(90 4.5 52.5)" fill="#B1CBEF"/>
<circle id="Ellipse 11" cx="22.5" cy="76.5" r="4.5" transform="rotate(90 22.5 76.5)" fill="#B1CBEF"/>
<circle id="Ellipse 18" cx="4.5" cy="76.5" r="4.5" transform="rotate(90 4.5 76.5)" fill="#B1CBEF"/>
<circle id="Ellipse 12" cx="22.5" cy="100.5" r="4.5" transform="rotate(90 22.5 100.5)" fill="#B1CBEF"/>
<circle id="Ellipse 19" cx="4.5" cy="100.5" r="4.5" transform="rotate(90 4.5 100.5)" fill="#B1CBEF"/>
<circle id="Ellipse 13" cx="22.5" cy="124.5" r="4.5" transform="rotate(90 22.5 124.5)" fill="#B1CBEF"/>
<circle id="Ellipse 20" cx="4.5" cy="124.5" r="4.5" transform="rotate(90 4.5 124.5)" fill="#B1CBEF"/>
<circle id="Ellipse 14" cx="22.5" cy="148.5" r="4.5" transform="rotate(90 22.5 148.5)" fill="#B1CBEF"/>
<circle id="Ellipse 21" cx="4.5" cy="148.5" r="4.5" transform="rotate(90 4.5 148.5)" fill="#B1CBEF"/>
</g>
</svg>
