<svg width="677" height="492" viewBox="0 0 677 492" fill="none" xmlns="http://www.w3.org/2000/svg">
<g opacity="0.75" clip-path="url(#clip0_300_792)">
<path d="M45.3983 330.019C166.802 316.152 334.835 443.076 503.801 429.47C846.73 401.849 600.528 -11.7793 427.795 1.2299C233.445 15.8792 224.809 410.348 130.487 483.538C69.9812 530.506 -70.5592 343.27 45.3983 330.019Z" stroke="url(#paint0_linear_300_792)" stroke-width="0.748903" stroke-miterlimit="10"/>
<path d="M51.5895 327.316C169.058 313.897 331.663 436.72 495.164 423.543C827.014 396.817 588.777 -3.44805 421.62 9.15108C233.555 23.3158 225.199 405.036 133.937 475.86C75.389 521.298 -60.6004 340.121 51.6082 327.316H51.5895Z" stroke="url(#paint1_linear_300_792)" stroke-width="0.748903" stroke-miterlimit="10"/>
<path d="M57.8017 324.595C171.353 311.623 328.531 430.346 486.548 417.616C807.301 391.784 577.027 4.90144 415.448 17.0719C233.668 30.7707 225.574 399.724 137.37 468.181C80.7806 512.11 -50.6765 336.989 57.783 324.595H57.8017Z" stroke="url(#paint2_linear_300_792)" stroke-width="0.748903" stroke-miterlimit="10"/>
<path d="M63.993 321.874C173.609 309.35 325.359 423.972 477.93 411.671C787.604 386.734 565.276 13.2141 409.292 24.9745C233.798 38.2074 225.983 394.413 140.838 460.502C86.2072 502.903 -40.6989 333.84 64.0117 321.874H63.993Z" stroke="url(#paint3_linear_300_792)" stroke-width="0.748903" stroke-miterlimit="10"/>
<path d="M70.1857 319.153C175.885 307.076 322.189 417.579 469.294 405.744C767.871 381.702 553.507 21.5638 403.118 32.8956C233.892 45.6439 226.375 389.101 144.27 452.823C91.5792 493.715 -30.7758 330.69 70.1857 319.172V319.153Z" stroke="url(#paint4_linear_300_792)" stroke-width="0.748903" stroke-miterlimit="10"/>
<path d="M76.3978 316.432C178.161 304.802 319.037 411.205 460.678 399.799C748.175 376.651 541.776 29.8763 396.964 40.798C234.023 53.0803 226.786 383.77 147.722 445.126C96.9892 484.489 -20.8148 327.54 76.3978 316.432Z" stroke="url(#paint5_linear_300_792)" stroke-width="0.748903" stroke-miterlimit="10"/>
<path d="M82.5892 313.73C180.436 302.565 315.884 404.85 452.06 393.891C728.46 371.637 530.024 38.2446 390.79 48.7376C234.134 60.5353 227.177 378.477 151.171 437.466C102.397 475.319 -10.8743 324.409 82.5892 313.73Z" stroke="url(#paint6_linear_300_792)" stroke-width="0.748903" stroke-miterlimit="10"/>
<path d="M88.7825 311.008C182.712 300.292 312.715 398.475 443.426 387.945C708.746 366.568 518.256 46.557 384.617 56.64C234.247 67.9718 227.57 373.165 154.604 429.787C107.789 466.112 -0.932076 321.259 88.7825 311.027V311.008Z" stroke="url(#paint7_linear_300_792)" stroke-width="0.748903" stroke-miterlimit="10"/>
<path d="M94.9928 308.287C184.987 298.018 309.562 392.101 434.808 382.018C689.03 361.535 506.523 54.9067 378.461 64.5424C234.377 75.4082 227.979 367.835 158.073 422.089C113.215 456.905 9.02719 318.109 94.9928 308.287Z" stroke="url(#paint8_linear_300_792)" stroke-width="0.748903" stroke-miterlimit="10"/>
<path d="M101.186 305.566C187.263 295.744 306.392 385.727 426.191 376.073C669.335 356.485 494.774 63.2194 372.307 72.4451C234.508 82.8263 228.39 362.505 161.524 414.392C118.625 447.679 18.988 314.941 101.205 305.548L101.186 305.566Z" stroke="url(#paint9_linear_300_792)" stroke-width="0.748903" stroke-miterlimit="10"/>
<path d="M107.377 302.864C189.519 293.489 303.238 379.372 417.554 370.165C649.6 351.471 483.003 71.5874 366.113 80.3844C234.6 90.2997 228.762 357.211 164.936 406.75C123.995 438.528 28.9092 311.828 107.358 302.882L107.377 302.864Z" stroke="url(#paint10_linear_300_792)" stroke-width="0.748903" stroke-miterlimit="10"/>
<path d="M113.569 300.143C191.794 291.215 300.067 372.998 408.937 364.219C629.903 346.42 471.271 79.9001 359.958 88.2871C234.73 97.7178 229.172 351.9 168.405 399.053C129.423 429.302 38.869 308.679 113.588 300.143H113.569Z" stroke="url(#paint11_linear_300_792)" stroke-width="0.748903" stroke-miterlimit="10"/>
<path d="M119.78 297.422C194.07 288.941 296.915 366.605 400.32 358.292C610.189 341.388 459.521 88.2498 353.803 96.2081C234.861 105.173 229.564 346.588 171.856 391.375C134.832 420.114 48.8293 305.529 119.78 297.422Z" stroke="url(#paint12_linear_300_792)" stroke-width="0.748903" stroke-miterlimit="10"/>
<path d="M125.974 294.7C196.346 286.667 293.746 360.231 391.686 352.347C590.475 336.337 447.753 96.5622 347.63 104.111C234.974 112.609 229.957 341.258 175.289 383.677C140.205 410.888 58.753 302.36 125.974 294.7Z" stroke="url(#paint13_linear_300_792)" stroke-width="0.748903" stroke-miterlimit="10"/>
<path d="M132.166 291.998C198.604 284.412 290.575 353.875 383.069 346.42C570.761 331.305 436.021 104.912 341.457 112.031C235.086 120.046 230.349 335.946 178.74 376.017C145.614 401.718 68.7133 299.248 132.166 291.998Z" stroke="url(#paint14_linear_300_792)" stroke-width="0.748903" stroke-miterlimit="10"/>
<path d="M138.377 289.277C200.897 282.138 287.441 347.501 374.451 340.493C551.064 326.273 424.27 113.243 335.301 119.953C235.216 127.501 230.759 330.653 182.19 368.338C151.023 392.53 78.6543 296.098 138.377 289.277Z" stroke="url(#paint15_linear_300_792)" stroke-width="0.748903" stroke-miterlimit="10"/>
<path d="M144.57 286.555C203.173 279.865 284.271 341.127 365.816 334.548C531.331 321.222 412.501 121.574 329.128 127.855C235.329 134.919 231.151 325.322 185.641 360.641C156.432 383.304 88.6148 292.93 144.57 286.555Z" stroke="url(#paint16_linear_300_792)" stroke-width="0.748903" stroke-miterlimit="10"/>
<path d="M150.762 283.834C205.43 277.591 281.1 334.753 357.199 328.621C511.635 316.19 400.75 129.905 322.973 135.776C235.44 142.374 231.561 320.01 189.091 352.962C161.841 374.116 98.5558 289.799 150.78 283.834H150.762Z" stroke="url(#paint17_linear_300_792)" stroke-width="0.748903" stroke-miterlimit="10"/>
<path d="M156.953 281.132C207.704 275.336 277.928 328.397 348.562 322.694C491.9 311.157 388.998 138.255 316.798 143.697C235.551 149.81 231.951 314.699 192.522 345.302C167.23 364.927 108.496 286.667 156.953 281.132Z" stroke="url(#paint18_linear_300_792)" stroke-width="0.748903" stroke-miterlimit="10"/>
<path d="M163.165 278.411C209.981 273.062 274.796 322.005 339.946 316.767C472.205 306.107 377.249 146.586 310.625 151.618C235.664 157.265 232.344 309.405 195.974 337.623C172.64 355.739 118.438 283.518 163.165 278.411Z" stroke="url(#paint19_linear_300_792)" stroke-width="0.748903" stroke-miterlimit="10"/>
<path d="M169.358 275.69C212.257 270.788 271.625 315.631 331.329 310.822C452.491 301.056 365.499 154.917 304.471 159.521C235.795 164.702 232.755 304.075 199.425 329.926C178.05 346.513 128.399 280.368 169.358 275.69Z" stroke="url(#paint20_linear_300_792)" stroke-width="0.748903" stroke-miterlimit="10"/>
<path d="M175.55 272.969C214.513 268.514 268.454 309.257 322.693 304.895C432.775 296.024 353.748 163.248 298.297 167.442C235.907 172.138 233.146 298.763 202.875 322.266C183.458 337.344 138.34 277.237 175.569 272.987L175.55 272.969Z" stroke="url(#paint21_linear_300_792)" stroke-width="0.748903" stroke-miterlimit="10"/>
</g>
<defs>
<linearGradient id="paint0_linear_300_792" x1="338.499" y1="0.929443" x2="338.499" y2="491.08" gradientUnits="userSpaceOnUse">
<stop stop-color="#B30505"/>
<stop offset="0.45" stop-color="#FF4E02"/>
<stop offset="0.98" stop-color="#900000"/>
</linearGradient>
<linearGradient id="paint1_linear_300_792" x1="335.222" y1="8.85986" x2="335.222" y2="483.154" gradientUnits="userSpaceOnUse">
<stop stop-color="#B30505"/>
<stop offset="0.45" stop-color="#FF4E02"/>
<stop offset="0.98" stop-color="#900000"/>
</linearGradient>
<linearGradient id="paint2_linear_300_792" x1="331.933" y1="16.7908" x2="331.933" y2="475.234" gradientUnits="userSpaceOnUse">
<stop stop-color="#B30505"/>
<stop offset="0.45" stop-color="#FF4E02"/>
<stop offset="0.98" stop-color="#900000"/>
</linearGradient>
<linearGradient id="paint3_linear_300_792" x1="328.673" y1="24.7026" x2="328.673" y2="467.309" gradientUnits="userSpaceOnUse">
<stop stop-color="#B30505"/>
<stop offset="0.45" stop-color="#FF4E02"/>
<stop offset="0.98" stop-color="#900000"/>
</linearGradient>
<linearGradient id="paint4_linear_300_792" x1="325.373" y1="32.6338" x2="325.373" y2="459.389" gradientUnits="userSpaceOnUse">
<stop stop-color="#B30505"/>
<stop offset="0.45" stop-color="#FF4E02"/>
<stop offset="0.98" stop-color="#900000"/>
</linearGradient>
<linearGradient id="paint5_linear_300_792" x1="322.108" y1="40.5454" x2="322.108" y2="451.445" gradientUnits="userSpaceOnUse">
<stop stop-color="#B30505"/>
<stop offset="0.45" stop-color="#FF4E02"/>
<stop offset="0.98" stop-color="#900000"/>
</linearGradient>
<linearGradient id="paint6_linear_300_792" x1="318.826" y1="48.4951" x2="318.826" y2="443.544" gradientUnits="userSpaceOnUse">
<stop stop-color="#B30505"/>
<stop offset="0.45" stop-color="#FF4E02"/>
<stop offset="0.98" stop-color="#900000"/>
</linearGradient>
<linearGradient id="paint7_linear_300_792" x1="315.54" y1="56.4067" x2="315.54" y2="435.618" gradientUnits="userSpaceOnUse">
<stop stop-color="#B30505"/>
<stop offset="0.45" stop-color="#FF4E02"/>
<stop offset="0.98" stop-color="#900000"/>
</linearGradient>
<linearGradient id="paint8_linear_300_792" x1="312.271" y1="64.3201" x2="312.271" y2="427.68" gradientUnits="userSpaceOnUse">
<stop stop-color="#B30505"/>
<stop offset="0.45" stop-color="#FF4E02"/>
<stop offset="0.98" stop-color="#900000"/>
</linearGradient>
<linearGradient id="paint9_linear_300_792" x1="309.003" y1="72.2319" x2="309.003" y2="419.736" gradientUnits="userSpaceOnUse">
<stop stop-color="#B30505"/>
<stop offset="0.45" stop-color="#FF4E02"/>
<stop offset="0.98" stop-color="#900000"/>
</linearGradient>
<linearGradient id="paint10_linear_300_792" x1="305.697" y1="80.1814" x2="305.697" y2="411.852" gradientUnits="userSpaceOnUse">
<stop stop-color="#B30505"/>
<stop offset="0.45" stop-color="#FF4E02"/>
<stop offset="0.98" stop-color="#900000"/>
</linearGradient>
<linearGradient id="paint11_linear_300_792" x1="302.436" y1="88.0933" x2="302.436" y2="403.909" gradientUnits="userSpaceOnUse">
<stop stop-color="#B30505"/>
<stop offset="0.45" stop-color="#FF4E02"/>
<stop offset="0.98" stop-color="#900000"/>
</linearGradient>
<linearGradient id="paint12_linear_300_792" x1="299.16" y1="96.0244" x2="299.16" y2="395.989" gradientUnits="userSpaceOnUse">
<stop stop-color="#B30505"/>
<stop offset="0.45" stop-color="#FF4E02"/>
<stop offset="0.98" stop-color="#900000"/>
</linearGradient>
<linearGradient id="paint13_linear_300_792" x1="295.868" y1="103.936" x2="295.868" y2="388.045" gradientUnits="userSpaceOnUse">
<stop stop-color="#B30505"/>
<stop offset="0.45" stop-color="#FF4E02"/>
<stop offset="0.98" stop-color="#900000"/>
</linearGradient>
<linearGradient id="paint14_linear_300_792" x1="292.594" y1="111.867" x2="292.594" y2="380.143" gradientUnits="userSpaceOnUse">
<stop stop-color="#B30505"/>
<stop offset="0.45" stop-color="#FF4E02"/>
<stop offset="0.98" stop-color="#900000"/>
</linearGradient>
<linearGradient id="paint15_linear_300_792" x1="289.321" y1="119.797" x2="289.321" y2="372.223" gradientUnits="userSpaceOnUse">
<stop stop-color="#B30505"/>
<stop offset="0.45" stop-color="#FF4E02"/>
<stop offset="0.98" stop-color="#900000"/>
</linearGradient>
<linearGradient id="paint16_linear_300_792" x1="286.036" y1="127.71" x2="286.036" y2="364.279" gradientUnits="userSpaceOnUse">
<stop stop-color="#B30505"/>
<stop offset="0.45" stop-color="#FF4E02"/>
<stop offset="0.98" stop-color="#900000"/>
</linearGradient>
<linearGradient id="paint17_linear_300_792" x1="282.763" y1="135.64" x2="282.763" y2="356.359" gradientUnits="userSpaceOnUse">
<stop stop-color="#B30505"/>
<stop offset="0.45" stop-color="#FF4E02"/>
<stop offset="0.98" stop-color="#900000"/>
</linearGradient>
<linearGradient id="paint18_linear_300_792" x1="279.469" y1="143.571" x2="279.469" y2="348.452" gradientUnits="userSpaceOnUse">
<stop stop-color="#B30505"/>
<stop offset="0.45" stop-color="#FF4E02"/>
<stop offset="0.98" stop-color="#900000"/>
</linearGradient>
<linearGradient id="paint19_linear_300_792" x1="276.198" y1="151.501" x2="276.198" y2="340.532" gradientUnits="userSpaceOnUse">
<stop stop-color="#B30505"/>
<stop offset="0.45" stop-color="#FF4E02"/>
<stop offset="0.98" stop-color="#900000"/>
</linearGradient>
<linearGradient id="paint20_linear_300_792" x1="272.922" y1="159.414" x2="272.922" y2="332.589" gradientUnits="userSpaceOnUse">
<stop stop-color="#B30505"/>
<stop offset="0.45" stop-color="#FF4E02"/>
<stop offset="0.98" stop-color="#900000"/>
</linearGradient>
<linearGradient id="paint21_linear_300_792" x1="269.642" y1="167.344" x2="269.642" y2="324.687" gradientUnits="userSpaceOnUse">
<stop stop-color="#B30505"/>
<stop offset="0.45" stop-color="#FF4E02"/>
<stop offset="0.98" stop-color="#900000"/>
</linearGradient>
<clipPath id="clip0_300_792">
<rect width="677" height="492" fill="white"/>
</clipPath>
</defs>
</svg>
