<svg width="24" height="26" viewBox="0 0 24 26" fill="none" xmlns="http://www.w3.org/2000/svg">
<g id="Group 17">
<path id="Path 59" d="M4.07881 13.9081H0L10.6355 25.3617V20.9253L4.07881 13.9081Z" fill="#BE1E2D"/>
<path id="Path 60" d="M19.6895 11.4536H23.7253L13.0956 0L13.0898 4.41933L19.6895 11.4536Z" fill="#BE1E2D"/>
<path id="Path 61" d="M10.2256 13.6973C9.97641 13.8146 9.70922 13.8859 9.43615 13.908H7.14815e-05V11.6993C-0.00119021 11.6267 0.0142664 11.5549 0.045171 11.4898C0.0760756 11.4246 0.121546 11.3679 0.177845 11.3244C0.278519 11.2291 0.403758 11.1659 0.538482 11.1424H10.0713V0.588797C10.1218 0.423592 10.2152 0.275793 10.3415 0.161425C10.452 0.0644241 10.5904 0.00768607 10.7354 0L13.0879 0V10.2832C13.0966 10.4885 13.0758 10.6939 13.0261 10.893C12.9546 11.0683 12.8509 11.2277 12.7206 11.3623L10.8532 13.2046C10.6696 13.4002 10.4584 13.5662 10.2267 13.6969" fill="#EC1C24"/>
<path id="Path 62" d="M13.661 11.5642C13.8993 11.4841 14.1492 11.447 14.3998 11.4546H23.7184L23.7246 13.6379C23.7194 13.7107 23.6992 13.7815 23.6655 13.8457C23.6318 13.9099 23.5853 13.9661 23.5291 14.0104C23.425 14.1063 23.3016 14.1771 23.1677 14.2176H13.6481L13.6544 24.7142C13.6341 24.8939 13.5528 25.0604 13.4248 25.1842C13.3142 25.2829 13.1771 25.3448 13.0317 25.3616H10.635V15.0416C10.6321 14.8329 10.6564 14.6248 10.7074 14.4228C10.7795 14.2484 10.8835 14.09 11.0136 13.956L13.1584 11.9109C13.3033 11.7718 13.4687 11.6572 13.6485 11.5715L13.661 11.5642Z" fill="#EC1C24"/>
</g>
</svg>
