<svg width="128" height="44" viewBox="0 0 128 44" fill="none" xmlns="http://www.w3.org/2000/svg">
<g clip-path="url(#clip0_300_751)">
<path d="M50.862 16.2313C50.862 15.0441 50.8385 14.0694 50.7676 13.118H52.6011L52.6975 14.9733H52.7684C53.1146 14.3193 53.637 13.7747 54.2766 13.401C54.9162 13.0273 55.6476 12.8393 56.3886 12.8581C57.1054 12.8498 57.8066 13.0674 58.3925 13.4797C58.9784 13.8921 59.4191 14.4783 59.6519 15.155H59.6994C60.0198 14.5739 60.4585 14.0662 60.9873 13.6645C61.7152 13.1079 62.6148 12.8223 63.5311 12.8568C65.0553 12.8568 67.3186 13.8556 67.3186 17.8494V24.6225H65.2702V18.1073C65.2702 15.8959 64.4609 14.5664 62.7693 14.5664C62.2105 14.5899 61.6727 14.7851 61.2293 15.1254C60.786 15.4656 60.4588 15.9342 60.2925 16.4672C60.1842 16.8052 60.1284 17.1578 60.1272 17.5127V24.6225H58.0754V17.7232C58.0754 15.8933 57.2641 14.5624 55.6656 14.5624C55.0682 14.5965 54.4966 14.8166 54.0309 15.1917C53.5653 15.5667 53.2291 16.078 53.0697 16.6535C52.953 16.9815 52.8963 17.3277 52.9023 17.6757V24.6172H50.8579L50.862 16.2313Z" fill="white"/>
<path d="M71.8997 19.2509C71.9473 22.0796 73.7566 23.2448 75.8492 23.2448C76.9449 23.2794 78.0351 23.0767 79.0449 22.6508L79.4084 24.1467C78.1974 24.6615 76.89 24.9121 75.5741 24.8816C72.0262 24.8816 69.9062 22.5212 69.9062 19.0572C69.9062 15.5932 71.9546 12.854 75.3123 12.854C79.0757 12.854 80.0765 16.1584 80.0765 18.2735C80.0729 18.5996 80.0492 18.9251 80.0055 19.2483L71.8997 19.2509ZM78.0442 17.7531C78.0676 16.4223 77.4986 14.3545 75.1336 14.3545C73.0123 14.3545 72.0852 16.3047 71.9205 17.7531H78.0442Z" fill="white"/>
<path d="M92.6132 7.74561V21.6525C92.6132 22.6747 92.6366 23.8312 92.7075 24.6228H90.8265L90.7321 22.6259H90.6833C90.3075 23.3332 89.7394 23.9202 89.0443 24.3197C88.3493 24.7191 87.5554 24.9147 86.7539 24.8841C83.9672 24.8841 81.8244 22.5237 81.8244 19.0363C81.801 15.2095 84.1894 12.8638 86.9922 12.8638C87.6767 12.8214 88.3603 12.962 88.9722 13.2712C89.5841 13.5805 90.1022 14.0471 90.4731 14.6229H90.5206V7.74561H92.6132ZM90.5179 17.8017C90.5219 17.5053 90.4895 17.2096 90.4215 16.9211C90.2723 16.2321 89.8903 15.6153 89.3395 15.174C88.7888 14.7327 88.1028 14.4938 87.3965 14.4973C85.2303 14.4973 83.9404 16.398 83.9404 18.9414C83.9404 21.2704 85.0831 23.1971 87.3456 23.1971C88.0666 23.1949 88.765 22.9458 89.3242 22.4915C89.8834 22.0373 90.2696 21.4053 90.4182 20.7012C90.4891 20.4039 90.5215 20.0987 90.5146 19.7932L90.5179 17.8017Z" fill="white"/>
<path d="M98.6153 10.3599V13.1177H101.617V14.7091H98.6153V20.9143C98.6153 22.3393 99.021 23.1471 100.189 23.1471C100.599 23.1633 101.008 23.1155 101.403 23.0054L101.499 24.5741C100.904 24.7926 100.274 24.8973 99.6402 24.8828C99.2198 24.9041 98.7999 24.834 98.4094 24.6772C98.0189 24.5204 97.6673 24.2808 97.3789 23.9748C96.7825 23.3555 96.5676 22.3407 96.5676 20.9791V14.7091H94.781V13.1177H96.5676V11.0026L98.6153 10.3599Z" fill="white"/>
<path d="M103.973 16.7051C103.973 15.3508 103.95 14.185 103.879 13.1161H105.712L105.785 15.3742H105.88C106.077 14.6716 106.491 14.0493 107.064 13.5965C107.638 13.1438 108.34 12.8839 109.07 12.8542C109.271 12.8516 109.472 12.8754 109.667 12.925V14.9012C109.432 14.8507 109.192 14.827 108.952 14.8304C107.475 14.8304 106.427 15.9468 106.14 17.5154C106.082 17.8372 106.05 18.1632 106.046 18.4902V24.6226H103.971L103.973 16.7051Z" fill="white"/>
<path d="M114.196 9.88957C114.196 10.2331 114.059 10.5626 113.816 10.8056C113.573 11.0485 113.242 11.185 112.898 11.185C112.554 11.185 112.224 11.0485 111.98 10.8056C111.737 10.5626 111.6 10.2331 111.6 9.88957C111.595 9.71633 111.625 9.54381 111.689 9.38264C111.753 9.22147 111.849 9.07506 111.972 8.95244C112.094 8.82982 112.241 8.73359 112.402 8.66967C112.564 8.60575 112.737 8.5755 112.91 8.58078C113.083 8.57498 113.255 8.60506 113.415 8.66912C113.575 8.73318 113.721 8.82982 113.842 8.95289C113.963 9.07596 114.057 9.22279 114.118 9.38404C114.179 9.54529 114.205 9.71744 114.196 9.88957ZM111.859 24.6236V13.1178H113.957V24.6236H111.859Z" fill="white"/>
<path d="M118.408 13.1179L120.045 15.5898C120.474 16.2305 120.831 16.8264 121.213 17.4671H121.284C121.666 16.779 122.047 16.1837 122.428 15.5664L124.047 13.1172H126.31L122.381 18.6797L126.428 24.6223H124.052L122.361 22.0315C121.909 21.3667 121.527 20.724 121.124 20.0346H121.075C120.695 20.7481 120.289 21.342 119.862 22.0315L118.193 24.6223H115.883L119.98 18.7512L116.074 13.1232L118.408 13.1179Z" fill="white"/>
<path d="M127.341 27.3601H49.8613V27.9935H127.341V27.3601Z" fill="#DEDEDE"/>
<path d="M54.1181 35.7712C53.7567 35.9156 53.3693 35.9838 52.9802 35.9716C52.6966 35.9928 52.4118 35.9526 52.1452 35.8539C51.8786 35.7552 51.6365 35.6003 51.4353 35.3998C51.2342 35.1992 51.0787 34.9577 50.9796 34.6917C50.8804 34.4257 50.8399 34.1415 50.8608 33.8585C50.8477 33.563 50.8972 33.2681 51.0062 32.9931C51.1152 32.718 51.2812 32.4691 51.4933 32.2625C51.7054 32.056 51.9588 31.8964 52.2369 31.7944C52.5151 31.6924 52.8117 31.6502 53.1073 31.6705C53.4573 31.6556 53.8062 31.7176 54.1295 31.8522L53.9896 32.2918C53.7193 32.1681 53.4248 32.106 53.1274 32.1101C52.899 32.0939 52.6698 32.1276 52.4558 32.2088C52.2417 32.2901 52.0481 32.417 51.8882 32.5807C51.7284 32.7443 51.6062 32.9408 51.5303 33.1564C51.4544 33.3721 51.4265 33.6016 51.4486 33.8291C51.4268 34.0516 51.4542 34.2761 51.5288 34.4869C51.6034 34.6977 51.7234 34.8897 51.8803 35.0492C52.0372 35.2087 52.2273 35.332 52.4371 35.4104C52.6469 35.4887 52.8713 35.5202 53.0946 35.5026C53.4065 35.5079 53.7161 35.4492 54.0043 35.3303L54.1181 35.7712Z" fill="#DEDEDE"/>
<path d="M55.8626 34.5934L55.4168 35.9022H54.8418L56.2971 31.7373H56.9665L58.4392 35.9022H57.8441L57.3842 34.5934H55.8626ZM57.2744 34.1725L56.8467 32.9739C56.7576 32.7014 56.694 32.4548 56.6304 32.213H56.6104C56.5541 32.4542 56.4832 32.7141 56.3995 32.9679L55.9791 34.1705L57.2744 34.1725Z" fill="#DEDEDE"/>
<path d="M59.7117 32.1949H58.4023V31.7373H61.5894V32.1949H60.2767V35.9022H59.7144L59.7117 32.1949Z" fill="#DEDEDE"/>
<path d="M62.6003 34.5934L62.1531 35.9022H61.5781L63.0334 31.7373H63.7155L65.1882 35.9022H64.5931L64.1326 34.5934H62.6003ZM64.0121 34.1725L63.5843 32.9739C63.4953 32.7014 63.4317 32.4548 63.3681 32.213H63.352C63.2938 32.4542 63.2249 32.7141 63.1412 32.9679L62.7194 34.1705L64.0121 34.1725Z" fill="#DEDEDE"/>
<path d="M66.125 31.7373H66.6873V35.4519H68.5262V35.9022H66.125V31.7373Z" fill="#DEDEDE"/>
<path d="M69.8291 35.9022V34.1357L68.4629 31.7373H69.1015L69.704 32.8864C69.864 33.2024 69.9985 33.4563 70.133 33.7449H70.1458C70.2602 33.4777 70.4135 33.2004 70.5789 32.8864L71.1994 31.7373H71.8253L70.3881 34.1304V35.9022H69.8291Z" fill="#DEDEDE"/>
<path d="M72.3516 35.5855L74.74 32.2049V32.1869H72.5571V31.7346H75.4676V32.0633L73.0846 35.4312V35.4492H75.4944V35.8995H72.3516V35.5855Z" fill="#DEDEDE"/>
<path d="M77.0527 31.7373V35.9022H76.4904V31.7373H77.0527Z" fill="#DEDEDE"/>
<path d="M78.3418 35.9022V31.7373H78.955L80.3286 33.8538C80.615 34.2865 80.8708 34.7386 81.0944 35.2067H81.1125C81.0616 34.6508 81.0455 34.1444 81.0455 33.5017V31.7513H81.5697V35.9195H81.0074L79.6411 33.8064C79.344 33.3611 79.0772 32.8964 78.8425 32.4154H78.8244C78.8552 32.9399 78.8626 33.4409 78.8626 34.1331V35.9122L78.3418 35.9022Z" fill="#DEDEDE"/>
<path d="M86.1461 35.7172C85.7191 35.8679 85.2696 35.9451 84.8167 35.9457C84.2307 35.9783 83.6549 35.7832 83.2101 35.4012C82.9074 35.0811 82.708 34.6777 82.6377 34.2432C82.5674 33.8087 82.6294 33.3631 82.8158 32.9642C83.0022 32.5653 83.3043 32.2315 83.683 32.0059C84.0617 31.7804 84.4996 31.6736 84.9398 31.6993C85.3088 31.6904 85.6758 31.7558 86.0189 31.8917L85.879 32.3313C85.5795 32.2005 85.2545 32.1383 84.9278 32.1496C84.6998 32.1282 84.4699 32.1564 84.2539 32.2322C84.0379 32.3079 83.8409 32.4295 83.6765 32.5886C83.5121 32.7477 83.3842 32.9404 83.3016 33.1535C83.219 33.3666 83.1837 33.5951 83.198 33.8232C83.1789 34.0467 83.2085 34.2717 83.2849 34.4828C83.3613 34.6938 83.4825 34.8858 83.6404 35.0455C83.7982 35.2053 83.9889 35.329 84.1992 35.4082C84.4096 35.4873 84.6346 35.5201 84.8588 35.5041C85.1106 35.5175 85.3625 35.4798 85.5992 35.3932V34.1532H84.729V33.7196H86.1481L86.1461 35.7172Z" fill="#DEDEDE"/>
<path d="M89.5447 31.7373V33.4804H91.6259V31.7373H92.1882V35.9022H91.6259V33.9507H89.5447V35.9022H88.9824V31.7373H89.5447Z" fill="#DEDEDE"/>
<path d="M95.6855 33.9507H94.0193V35.4519H95.8836V35.9022H93.457V31.7373H95.7892V32.1896H94.0193V33.5057H95.6855V33.9507Z" fill="#DEDEDE"/>
<path d="M97.6225 34.5934L97.1746 35.9022H96.5996L98.0549 31.7373H98.7243L100.197 35.9022H99.6019L99.1413 34.5934H97.6225ZM99.0342 34.1725L98.6065 32.9739C98.5175 32.7014 98.4539 32.4548 98.3903 32.213H98.3702C98.312 32.4542 98.243 32.7141 98.1593 32.9679L97.7336 34.1705L99.0342 34.1725Z" fill="#DEDEDE"/>
<path d="M101.146 31.7373H101.709V35.4519H103.554V35.9022H101.152L101.146 31.7373Z" fill="#DEDEDE"/>
<path d="M104.728 32.1949H103.418V31.7373H106.605V32.1949H105.29V35.9022H104.727L104.728 32.1949Z" fill="#DEDEDE"/>
<path d="M107.961 31.7373V33.4804H110.042V31.7373H110.604V35.9022H110.042V33.9507H107.961V35.9022H107.398V31.7373H107.961Z" fill="#DEDEDE"/>
<path d="M114.888 35.7712C114.526 35.9156 114.139 35.9838 113.75 35.9716C113.466 35.9928 113.181 35.9526 112.915 35.8539C112.648 35.7552 112.406 35.6003 112.205 35.3998C112.004 35.1992 111.848 34.9577 111.749 34.6917C111.65 34.4257 111.609 34.1415 111.63 33.8585C111.617 33.563 111.667 33.2681 111.776 32.9931C111.885 32.718 112.051 32.4691 112.263 32.2625C112.475 32.056 112.728 31.8964 113.006 31.7944C113.285 31.6924 113.581 31.6502 113.877 31.6705C114.227 31.6556 114.576 31.7176 114.899 31.8522L114.759 32.2918C114.489 32.168 114.194 32.106 113.897 32.1101C113.669 32.0939 113.439 32.1276 113.225 32.2088C113.011 32.2901 112.818 32.417 112.658 32.5807C112.498 32.7443 112.376 32.9408 112.3 33.1564C112.224 33.3721 112.196 33.6016 112.218 33.8291C112.196 34.0516 112.224 34.2761 112.298 34.4869C112.373 34.6977 112.493 34.8897 112.65 35.0492C112.807 35.2087 112.997 35.332 113.207 35.4104C113.416 35.4887 113.641 35.5202 113.864 35.5026C114.176 35.5079 114.486 35.4492 114.774 35.3303L114.888 35.7712Z" fill="#DEDEDE"/>
<path d="M116.63 34.5934L116.184 35.9022H115.609L117.065 31.7373H117.739L119.212 35.9022H118.617L118.158 34.5934H116.63ZM118.042 34.1725L117.614 32.9739C117.525 32.7014 117.462 32.4548 117.398 32.213H117.376C117.32 32.4542 117.249 32.7141 117.165 32.9679L116.745 34.1705L118.042 34.1725Z" fill="#DEDEDE"/>
<path d="M120.164 31.7996C120.516 31.7374 120.872 31.7063 121.23 31.7067C121.676 31.6635 122.122 31.787 122.482 32.0534C122.592 32.153 122.68 32.2754 122.738 32.4121C122.796 32.5488 122.824 32.6966 122.82 32.8451C122.818 33.0854 122.738 33.3185 122.591 33.5092C122.445 33.6999 122.24 33.8378 122.008 33.902V33.9201C122.177 33.9938 122.325 34.11 122.436 34.2572C122.547 34.4045 122.617 34.5779 122.642 34.7605C122.718 35.1495 122.827 35.5313 122.967 35.9023H122.392C122.261 35.5818 122.166 35.2483 122.106 34.9075C121.977 34.3336 121.742 34.1178 121.236 34.0998H120.712V35.9036H120.166L120.164 31.7996ZM120.71 33.6916H121.279C121.872 33.6916 122.249 33.3756 122.249 32.8999C122.249 32.3554 121.847 32.1283 121.259 32.1283C121.076 32.1235 120.893 32.1399 120.714 32.177L120.71 33.6916Z" fill="#DEDEDE"/>
<path d="M126.142 33.9507H124.473V35.4519H126.339V35.9022H123.914V31.7373H126.244V32.1896H124.472V33.5057H126.14L126.142 33.9507Z" fill="#DEDEDE"/>
<path d="M7.38351 23.4731H0.783203L17.9935 43.1363V35.5201L7.38351 23.4731Z" fill="#BE1E2D"/>
<path d="M33.8416 20.0865H40.383L23.1539 0.451416L23.1445 8.02753L33.8416 20.0865Z" fill="#BE1E2D"/>
<path d="M18.2582 23.125C17.8323 23.3192 17.3756 23.4372 16.9087 23.4738H0.777466V19.8173C0.775309 19.6973 0.801733 19.5784 0.854565 19.4705C0.907397 19.3626 0.98513 19.2688 1.08137 19.1967C1.25348 19.039 1.46758 18.9344 1.69789 18.8954H17.9945V1.4242C18.0809 1.15071 18.2406 0.906031 18.4564 0.716698C18.6453 0.556116 18.882 0.462187 19.1298 0.449463L23.1516 0.449463V17.473C23.1664 17.8129 23.1308 18.153 23.0458 18.4825C22.9237 18.7727 22.7464 19.0366 22.5237 19.2595L19.3313 22.3093C19.0174 22.6332 18.6563 22.908 18.2603 23.1244" fill="#EC1C24"/>
<path d="M23.1718 20.2688C23.5796 20.1359 24.0074 20.0744 24.4363 20.0871H40.3854L40.3961 23.7054C40.3872 23.8261 40.3527 23.9435 40.295 24.0499C40.2373 24.1562 40.1577 24.2493 40.0614 24.3228C39.8834 24.4817 39.6721 24.599 39.4429 24.6661H23.1497L23.1604 42.0618C23.1257 42.3597 22.9865 42.6356 22.7674 42.8408C22.5781 43.0044 22.3436 43.1069 22.0947 43.1348H17.9926V26.0317C17.9876 25.6859 18.0293 25.341 18.1164 25.0062C18.2399 24.7172 18.4178 24.4546 18.6406 24.2326L22.3116 20.8433C22.5596 20.6127 22.8427 20.4229 23.1503 20.2808L23.1718 20.2688Z" fill="#EC1C24"/>
</g>
<defs>
<clipPath id="clip0_300_751">
<rect width="126.565" height="42.6875" fill="white" transform="translate(0.775391 0.449463)"/>
</clipPath>
</defs>
</svg>
