<?xml version="1.0" encoding="UTF-8"?>
<svg id="MedTrix_logo" data-name="MedTrix logo" xmlns="http://www.w3.org/2000/svg" version="1.1" viewBox="0 0 189.1 63.9">
  <defs>
    <style>
      .cls-1 {
        fill: #bc2030;
      }

      .cls-1, .cls-2, .cls-3 {
        stroke-width: 0px;
      }

      .cls-2 {
        fill: #e12729;
      }

      .cls-3 {
        fill: #fff;
      }
    </style>
  </defs>
  <path id="Path_32" data-name="Path 32" class="cls-3" d="M74.8,23.6c0-1.8,0-3.2-.1-4.7h2.7v2.8h.3c1.1-2,3.2-3.2,5.4-3.2,2.2,0,4.2,1.4,4.9,3.4h0c.5-.9,1.1-1.6,1.9-2.2,1.1-.8,2.4-1.3,3.8-1.2,2.3,0,5.7,1.5,5.7,7.5v10.1h-3.1v-9.8c0-3.3-1.2-5.3-3.7-5.3-1.7,0-3.2,1.2-3.7,2.8-.2.5-.2,1-.2,1.6v10.6h-3.1v-10.3c0-2.7-1.2-4.7-3.6-4.7-1.8.1-3.4,1.4-3.9,3.1-.2.5-.3,1-.3,1.5v10.4h-3.1v-12.6Z"/>
  <path id="Path_33" data-name="Path 33" class="cls-3" d="M106.3,28.1c0,4.2,2.8,6,5.9,6,1.6,0,3.3-.3,4.8-.9l.5,2.2c-1.8.8-3.8,1.1-5.7,1.1-5.3,0-8.5-3.5-8.5-8.7s3.1-9.3,8.1-9.3,7.1,4.9,7.1,8.1c0,.5,0,1-.1,1.5h-12.1ZM115.4,25.9c0-2-.8-5.1-4.3-5.1s-4.6,2.9-4.8,5.1h9.1Z"/>
  <path id="Path_34" data-name="Path 34" class="cls-3" d="M137.2,10.9v20.8c0,1.5,0,3.3.1,4.4h-2.8v-3h-.2c-1.1,2.2-3.4,3.5-5.9,3.4-4.2,0-7.4-3.5-7.4-8.8,0-5.7,3.5-9.2,7.7-9.2,2.1-.1,4.1.9,5.2,2.6h0v-10.3h3.1ZM134.1,26c0-.4,0-.9-.1-1.3-.5-2.1-2.3-3.6-4.5-3.6-3.2,0-5.2,2.8-5.2,6.7s1.7,6.4,5.1,6.4c2.2,0,4.1-1.6,4.6-3.7.1-.4.2-.9.1-1.4v-3Z"/>
  <path id="Path_35" data-name="Path 35" class="cls-3" d="M146.2,14.8v4.1h4.5v2.4h-4.5v9.3c0,2.1.6,3.3,2.4,3.3.6,0,1.2,0,1.8-.2v2.3c-.7.3-1.7.5-2.6.5-1.3,0-2.5-.4-3.4-1.4-.9-.9-1.2-2.4-1.2-4.5v-9.4h-2.7v-2.4h2.7v-3.2l3.1-1Z"/>
  <path id="Path_36" data-name="Path 36" class="cls-3" d="M154.2,24.3c0-2,0-3.8-.1-5.4h2.7v3.4h.3c.6-2.2,2.5-3.7,4.8-3.8.3,0,.6,0,.9.1v3c-.4,0-.7-.1-1.1-.1-2.2,0-3.8,1.7-4.2,4,0,.5-.1,1-.1,1.5v9.2h-3.1v-11.9Z"/>
  <path id="Path_37" data-name="Path 37" class="cls-3" d="M169.4,14.1c0,1.1-.9,1.9-1.9,1.9-1.1,0-1.9-.9-1.9-1.9h0c0-1.1.8-1.9,1.8-2,0,0,0,0,.1,0,1,0,1.9.8,1.9,1.8,0,0,0,.1,0,.2ZM165.9,36.2v-17.2h3.1v17.2h-3.1Z"/>
  <path id="Path_38" data-name="Path 38" class="cls-3" d="M175.7,19l2.4,3.7c.6,1,1.2,1.9,1.7,2.8h.1c.6-1,1.1-1.9,1.7-2.8l2.4-3.7h3.4l-5.9,8.3,6,8.9h-3.5l-2.5-3.9c-.7-1-1.2-2-1.8-3h0c-.6,1.1-1.2,2-1.8,3l-2.5,3.9h-3.5l6.1-8.8-5.8-8.4h3.5Z"/>
  <rect id="Rectangle_2" data-name="Rectangle 2" class="cls-3" x="73.3" y="40.3" width="115.7" height=".9"/>
  <path id="Path_39" data-name="Path 39" class="cls-3" d="M79.7,52.9c-.5.2-1.1.3-1.7.3-1.6.1-3-1.1-3.2-2.7,0-.1,0-.3,0-.4,0-1.7,1.3-3.2,3-3.3.1,0,.2,0,.4,0,.5,0,1,0,1.5.3l-.2.7c-.4-.2-.8-.3-1.3-.3-1.3,0-2.4.9-2.5,2.2,0,.1,0,.3,0,.4-.1,1.3.8,2.4,2.1,2.5.1,0,.3,0,.4,0,.5,0,.9,0,1.4-.3l.2.7Z"/>
  <path id="Path_40" data-name="Path 40" class="cls-3" d="M82.3,51.1l-.7,2h-.9l2.2-6.2h1l2.2,6.2h-.9l-.7-2h-2.3ZM84.4,50.5l-.6-1.8c-.1-.4-.2-.8-.3-1.1h0c0,.4-.2.8-.3,1.1l-.6,1.8h1.9Z"/>
  <path id="Path_41" data-name="Path 41" class="cls-3" d="M88,47.5h-2v-.7h4.8v.7h-2v5.5h-.8v-5.5Z"/>
  <path id="Path_42" data-name="Path 42" class="cls-3" d="M92.4,51.1l-.7,2h-.9l2.2-6.2h1l2.2,6.2h-.9l-.7-2h-2.3ZM94.5,50.5l-.6-1.8c-.1-.4-.2-.8-.3-1.1h0c0,.4-.2.8-.3,1.1l-.6,1.8h1.9Z"/>
  <path id="Path_43" data-name="Path 43" class="cls-3" d="M97.6,46.8h.8v5.6h2.7v.7h-3.6v-6.2Z"/>
  <path id="Path_44" data-name="Path 44" class="cls-3" d="M103.2,53.1v-2.6l-2-3.6h1l.9,1.7c.2.5.4.9.6,1.3h0c.2-.4.4-.8.6-1.3l.9-1.7h.9l-2.1,3.6v2.7h-.8Z"/>
  <path id="Path_45" data-name="Path 45" class="cls-3" d="M106.9,52.6l3.6-5.1h0s-3.3,0-3.3,0v-.7h4.3v.5l-3.6,5h0s3.6,0,3.6,0v.7h-4.7v-.5Z"/>
  <path id="Path_46" data-name="Path 46" class="cls-3" d="M113.9,46.8v6.2h-.8v-6.2h.8Z"/>
  <path id="Path_47" data-name="Path 47" class="cls-3" d="M115.9,53.1v-6.2h.9l2.1,3.2c.4.6.8,1.3,1.1,2h0c0-.8-.1-1.6-.1-2.6v-2.6h.8v6.2h-.8l-2-3.2c-.4-.7-.8-1.4-1.2-2.1h0c0,.8,0,1.5,0,2.6v2.7h-.8Z"/>
  <path id="Path_48" data-name="Path 48" class="cls-3" d="M127.5,52.8c-.6.2-1.3.3-2,.3-.9,0-1.7-.2-2.4-.8-1.2-1.3-1.2-3.4.1-4.6.7-.6,1.5-.9,2.4-.9.6,0,1.1,0,1.6.3l-.2.7c-.4-.2-.9-.3-1.4-.3-1.3-.1-2.5.8-2.6,2.1,0,.1,0,.2,0,.4-.1,1.3.8,2.4,2.1,2.5.1,0,.2,0,.4,0,.4,0,.8,0,1.1-.2v-1.9h-1.3v-.6h2.1v3Z"/>
  <path id="Path_49" data-name="Path 49" class="cls-3" d="M132.6,46.8v2.6h3.1v-2.6h.8v6.2h-.8v-2.9h-3.1v2.9h-.8v-6.2h.8Z"/>
  <path id="Path_50" data-name="Path 50" class="cls-3" d="M141.8,50.1h-2.5v2.2h2.8v.7h-3.6v-6.2h3.5v.7h-2.6v2h2.5v.7Z"/>
  <path id="Path_51" data-name="Path 51" class="cls-3" d="M144.7,51.1l-.7,2h-.9l2.2-6.2h1l2.2,6.2h-.9l-.7-2h-2.3ZM146.8,50.5l-.6-1.8c-.1-.4-.2-.8-.3-1.1h0c0,.4-.2.8-.3,1.1l-.6,1.8h1.9Z"/>
  <path id="Path_52" data-name="Path 52" class="cls-3" d="M149.9,46.8h.8v5.6h2.8v.7h-3.6v-6.2Z"/>
  <path id="Path_53" data-name="Path 53" class="cls-3" d="M155.3,47.5h-2v-.7h4.8v.7h-2v5.5h-.8v-5.5Z"/>
  <path id="Path_54" data-name="Path 54" class="cls-3" d="M160.1,46.8v2.6h3.1v-2.6h.8v6.2h-.8v-2.9h-3.1v2.9h-.8v-6.2h.8Z"/>
  <path id="Path_55" data-name="Path 55" class="cls-3" d="M170.5,52.9c-.5.2-1.1.3-1.7.3-1.6.1-3-1.1-3.2-2.7,0-.1,0-.3,0-.4,0-1.7,1.3-3.2,3-3.3.1,0,.2,0,.4,0,.5,0,1,0,1.5.3l-.2.7c-.4-.2-.8-.3-1.3-.3-1.3,0-2.4.9-2.5,2.2,0,.1,0,.3,0,.4-.1,1.3.8,2.4,2.1,2.5.1,0,.3,0,.4,0,.5,0,.9,0,1.4-.3l.2.7Z"/>
  <path id="Path_56" data-name="Path 56" class="cls-3" d="M173.1,51.1l-.7,2h-.9l2.2-6.2h1l2.2,6.2h-.9l-.7-2h-2.3ZM175.2,50.5l-.6-1.8c-.1-.4-.2-.8-.3-1.1h0c0,.4-.2.8-.3,1.1l-.6,1.8h1.9Z"/>
  <path id="Path_57" data-name="Path 57" class="cls-3" d="M178.3,46.9c.5,0,1.1-.1,1.6-.1.7,0,1.3.1,1.9.5.3.3.5.7.5,1.2,0,.7-.5,1.4-1.2,1.6h0c.5.3.9.7.9,1.3.1.6.3,1.2.5,1.7h-.9c-.2-.5-.3-1-.4-1.5-.2-.9-.5-1.2-1.3-1.2h-.8v2.7h-.8v-6.1ZM179.2,49.8h.9c.9,0,1.4-.5,1.4-1.2s-.6-1.2-1.5-1.2c-.3,0-.5,0-.8,0v2.3Z"/>
  <path id="Path_58" data-name="Path 58" class="cls-3" d="M187.3,50.1h-2.5v2.2h2.8v.7h-3.6v-6.2h3.5v.7h-2.6v2h2.5v.7Z"/>
  <path id="Path_59" data-name="Path 59" class="cls-1" d="M9.9,34.5H0l25.7,29.4v-11.4l-15.9-18Z"/>
  <path id="Path_60" data-name="Path 60" class="cls-1" d="M49.4,29.4h9.8L33.4,0v11.3s16,18.1,16,18.1Z"/>
  <path id="Path_61" data-name="Path 61" class="cls-2" d="M26.1,33.9c-.6.3-1.3.5-2,.5H0v-5.5c0-.4.2-.7.5-.9.3-.2.6-.4.9-.5h24.3V1.5c.1-.4.4-.8.7-1.1.3-.2.6-.4,1-.4h6v25.5c0,.5,0,1-.2,1.5-.2.4-.4.8-.8,1.2l-4.8,4.6c-.5.5-1,.9-1.6,1.2"/>
  <path id="Path_62" data-name="Path 62" class="cls-2" d="M33.5,29.7c.6-.2,1.2-.3,1.9-.3h23.8v5.4c0,.4-.2.7-.5.9-.3.2-.6.4-.9.5h-24.3v26c0,.4-.2.9-.6,1.2-.3.2-.6.4-1,.4h-6.1v-25.6c0-.5,0-1,.2-1.5.2-.4.5-.8.8-1.2l5.5-5.1c.4-.3.8-.6,1.3-.8h0Z"/>
</svg>